<svg width="23" height="28" viewBox="0 0 23 28" fill="none" xmlns="http://www.w3.org/2000/svg">
<g opacity="0.6">
<path fill-rule="evenodd" clip-rule="evenodd" d="M14.5508 21.32C14.5506 21.32 3.86336 21.32 3.86336 21.32C3.99333 21.1174 4.12561 20.8881 4.25708 20.6289C5.26399 18.6434 5.77456 15.8143 5.77456 12.2202C5.77456 9.04394 8.35439 6.4599 11.5254 6.4599C14.6963 6.4599 17.2762 9.04394 17.2762 12.2227C17.2762 12.2319 17.2763 12.2412 17.2767 12.2504C17.2795 15.8301 17.79 18.649 18.7941 20.6289C18.9256 20.8881 19.0579 21.1174 19.1879 21.32H14.5508ZM11.5256 25.1384C10.2398 25.1384 9.19095 24.1058 9.16046 22.8251H13.8907C13.8603 24.1057 12.8115 25.1384 11.5256 25.1384H11.5256ZM10.0581 3.85653C10.0581 3.11122 10.6634 2.50489 11.4075 2.50489H11.6438C12.3879 2.50489 12.9932 3.11122 12.9932 3.85653V5.1045C12.519 5.00648 12.0281 4.9549 11.5254 4.9549C11.0229 4.9549 10.5321 5.00644 10.0581 5.10435V3.85653H10.0581ZM21.2522 21.4072C21.1768 21.3582 20.6095 20.9608 20.0414 19.7585C18.9982 17.5507 18.7792 14.4405 18.7792 12.2202C18.7792 12.2105 18.779 12.2009 18.7787 12.1913C18.7673 9.2569 17.0102 6.7273 14.4957 5.59233V3.85653C14.4957 2.28136 13.2163 0.999878 11.6438 0.999878H11.4074C9.83486 0.999878 8.55549 2.28136 8.55549 3.85653V5.59223C6.03261 6.73086 4.27197 9.27338 4.27197 12.2202C4.27197 14.4405 4.053 17.5506 3.00978 19.7585C2.44177 20.9608 1.87446 21.3582 1.79903 21.4072C1.48139 21.5542 1.32478 21.8937 1.39785 22.2379C1.47163 22.5854 1.79648 22.825 2.15123 22.825H7.65792C7.68867 24.9357 9.4113 26.6434 11.5256 26.6434C13.64 26.6434 15.3626 24.9357 15.3934 22.825H20.9001C21.2548 22.825 21.5797 22.5854 21.6534 22.2379C21.7264 21.8937 21.5698 21.5541 21.2522 21.4072H21.2522Z" fill="black"/>
<path d="M3.86336 21.32L3.44255 21.0499L2.94842 21.82H3.86336V21.32ZM4.25708 20.6289L4.70299 20.8551L4.70301 20.855L4.25708 20.6289ZM17.2767 12.2504L17.7767 12.25L17.7767 12.2404L17.7763 12.2309L17.2767 12.2504ZM18.7941 20.6289L19.2401 20.4027L19.2401 20.4027L18.7941 20.6289ZM19.1879 21.32V21.82H20.1027L19.6087 21.05L19.1879 21.32ZM9.16046 22.8251V22.3251H8.64841L8.6606 22.837L9.16046 22.8251ZM13.8907 22.8251L14.3906 22.837L14.4028 22.3251H13.8907V22.8251ZM10.0581 3.85653H9.55808V4.35653H10.0581V3.85653ZM12.9932 5.1045L12.892 5.59415L13.4932 5.71842V5.1045H12.9932ZM10.0581 5.10435H9.55813V5.71818L10.1593 5.59401L10.0581 5.10435ZM10.0581 3.85653H10.5581V3.35653H10.0581V3.85653ZM21.2522 21.4072L20.98 21.8266L21.1041 21.9072H21.2522V21.4072ZM20.0414 19.7585L20.4935 19.5449L20.4935 19.5449L20.0414 19.7585ZM18.7787 12.1913L18.2787 12.1933L18.2787 12.2011L18.279 12.209L18.7787 12.1913ZM14.4957 5.59233H13.9957V5.91522L14.29 6.04805L14.4957 5.59233ZM8.55549 5.59223L8.76117 6.04796L9.05549 5.91513V5.59223H8.55549ZM3.00978 19.7585L2.5577 19.5449L2.5577 19.5449L3.00978 19.7585ZM1.79903 21.4072L2.00902 21.8609L2.04143 21.8459L2.07137 21.8265L1.79903 21.4072ZM1.39785 22.2379L1.88695 22.134L1.88694 22.134L1.39785 22.2379ZM7.65792 22.825L8.15787 22.8177L8.15069 22.325H7.65792V22.825ZM15.3934 22.825V22.325H14.9006L14.8934 22.8177L15.3934 22.825ZM21.6534 22.2379L22.1425 22.3417L22.1426 22.3416L21.6534 22.2379ZM21.2522 21.4072L21.4622 20.9534L21.3623 20.9072H21.2522V21.4072ZM14.5508 20.82C14.5508 20.82 14.5507 20.82 14.5506 20.82C14.5506 20.82 14.5504 20.82 14.5503 20.82C14.5501 20.82 14.5499 20.82 14.5497 20.82C14.5494 20.82 14.5491 20.82 14.5488 20.82C14.5485 20.82 14.5481 20.82 14.5477 20.82C14.5473 20.82 14.5469 20.82 14.5464 20.82C14.5459 20.82 14.5454 20.82 14.5448 20.82C14.5443 20.82 14.5437 20.82 14.543 20.82C14.5424 20.82 14.5417 20.82 14.541 20.82C14.5402 20.82 14.5395 20.82 14.5387 20.82C14.5379 20.82 14.537 20.82 14.5362 20.82C14.5353 20.82 14.5344 20.82 14.5334 20.82C14.5325 20.82 14.5315 20.82 14.5304 20.82C14.5294 20.82 14.5283 20.82 14.5272 20.82C14.5261 20.82 14.525 20.82 14.5238 20.82C14.5226 20.82 14.5214 20.82 14.5201 20.82C14.5188 20.82 14.5175 20.82 14.5162 20.82C14.5148 20.82 14.5135 20.82 14.5121 20.82C14.5106 20.82 14.5092 20.82 14.5077 20.82C14.5062 20.82 14.5047 20.82 14.5031 20.82C14.5015 20.82 14.4999 20.82 14.4983 20.82C14.4966 20.82 14.495 20.82 14.4932 20.82C14.4915 20.82 14.4898 20.82 14.488 20.82C14.4862 20.82 14.4844 20.82 14.4825 20.82C14.4806 20.82 14.4787 20.82 14.4768 20.82C14.4749 20.82 14.4729 20.82 14.4709 20.82C14.4689 20.82 14.4668 20.82 14.4647 20.82C14.4626 20.82 14.4605 20.82 14.4584 20.82C14.4562 20.82 14.454 20.82 14.4518 20.82C14.4495 20.82 14.4473 20.82 14.445 20.82C14.4427 20.82 14.4403 20.82 14.4379 20.82C14.4356 20.82 14.4332 20.82 14.4307 20.82C14.4283 20.82 14.4258 20.82 14.4233 20.82C14.4208 20.82 14.4182 20.82 14.4156 20.82C14.413 20.82 14.4104 20.82 14.4077 20.82C14.4051 20.82 14.4024 20.82 14.3997 20.82C14.3969 20.82 14.3942 20.82 14.3914 20.82C14.3886 20.82 14.3857 20.82 14.3829 20.82C14.38 20.82 14.3771 20.82 14.3742 20.82C14.3712 20.82 14.3682 20.82 14.3652 20.82C14.3622 20.82 14.3592 20.82 14.3561 20.82C14.353 20.82 14.3499 20.82 14.3468 20.82C14.3436 20.82 14.3405 20.82 14.3372 20.82C14.334 20.82 14.3308 20.82 14.3275 20.82C14.3242 20.82 14.3209 20.82 14.3176 20.82C14.3142 20.82 14.3108 20.82 14.3074 20.82C14.304 20.82 14.3006 20.82 14.2971 20.82C14.2936 20.82 14.2901 20.82 14.2865 20.82C14.283 20.82 14.2794 20.82 14.2758 20.82C14.2722 20.82 14.2685 20.82 14.2649 20.82C14.2612 20.82 14.2575 20.82 14.2537 20.82C14.25 20.82 14.2462 20.82 14.2424 20.82C14.2386 20.82 14.2347 20.82 14.2309 20.82C14.227 20.82 14.2231 20.82 14.2192 20.82C14.2152 20.82 14.2112 20.82 14.2072 20.82C14.2032 20.82 14.1992 20.82 14.1951 20.82C14.1911 20.82 14.187 20.82 14.1828 20.82C14.1787 20.82 14.1745 20.82 14.1704 20.82C14.1662 20.82 14.1619 20.82 14.1577 20.82C14.1534 20.82 14.1491 20.82 14.1448 20.82C14.1405 20.82 14.1361 20.82 14.1318 20.82C14.1274 20.82 14.123 20.82 14.1185 20.82C14.1141 20.82 14.1096 20.82 14.1051 20.82C14.1006 20.82 14.0961 20.82 14.0915 20.82C14.0869 20.82 14.0823 20.82 14.0777 20.82C14.0731 20.82 14.0684 20.82 14.0637 20.82C14.059 20.82 14.0543 20.82 14.0496 20.82C14.0448 20.82 14.0401 20.82 14.0352 20.82C14.0304 20.82 14.0256 20.82 14.0207 20.82C14.0159 20.82 14.011 20.82 14.006 20.82C14.0011 20.82 13.9961 20.82 13.9912 20.82C13.9862 20.82 13.9812 20.82 13.9761 20.82C13.9711 20.82 13.966 20.82 13.9609 20.82C13.9558 20.82 13.9507 20.82 13.9455 20.82C13.9403 20.82 13.9351 20.82 13.9299 20.82C13.9247 20.82 13.9195 20.82 13.9142 20.82C13.9089 20.82 13.9036 20.82 13.8983 20.82C13.8929 20.82 13.8876 20.82 13.8822 20.82C13.8768 20.82 13.8714 20.82 13.8659 20.82C13.8605 20.82 13.855 20.82 13.8495 20.82C13.844 20.82 13.8384 20.82 13.8329 20.82C13.8273 20.82 13.8217 20.82 13.8161 20.82C13.8105 20.82 13.8049 20.82 13.7992 20.82C13.7935 20.82 13.7878 20.82 13.7821 20.82C13.7764 20.82 13.7706 20.82 13.7648 20.82C13.7591 20.82 13.7533 20.82 13.7474 20.82C13.7416 20.82 13.7357 20.82 13.7298 20.82C13.7239 20.82 13.718 20.82 13.7121 20.82C13.7061 20.82 13.7002 20.82 13.6942 20.82C13.6882 20.82 13.6822 20.82 13.6761 20.82C13.6701 20.82 13.664 20.82 13.6579 20.82C13.6518 20.82 13.6457 20.82 13.6395 20.82C13.6334 20.82 13.6272 20.82 13.621 20.82C13.6148 20.82 13.6085 20.82 13.6023 20.82C13.596 20.82 13.5897 20.82 13.5834 20.82C13.5771 20.82 13.5708 20.82 13.5644 20.82C13.5581 20.82 13.5517 20.82 13.5453 20.82C13.5388 20.82 13.5324 20.82 13.526 20.82C13.5195 20.82 13.513 20.82 13.5065 20.82C13.5 20.82 13.4934 20.82 13.4869 20.82C13.4803 20.82 13.4737 20.82 13.4671 20.82C13.4605 20.82 13.4539 20.82 13.4472 20.82C13.4406 20.82 13.4339 20.82 13.4272 20.82C13.4205 20.82 13.4137 20.82 13.407 20.82C13.4002 20.82 13.3934 20.82 13.3866 20.82C13.3798 20.82 13.373 20.82 13.3661 20.82C13.3593 20.82 13.3524 20.82 13.3455 20.82C13.3386 20.82 13.3317 20.82 13.3247 20.82C13.3178 20.82 13.3108 20.82 13.3038 20.82C13.2968 20.82 13.2898 20.82 13.2827 20.82C13.2757 20.82 13.2686 20.82 13.2615 20.82C13.2545 20.82 13.2473 20.82 13.2402 20.82C13.2331 20.82 13.2259 20.82 13.2187 20.82C13.2116 20.82 13.2044 20.82 13.1971 20.82C13.1899 20.82 13.1827 20.82 13.1754 20.82C13.1681 20.82 13.1608 20.82 13.1535 20.82C13.1462 20.82 13.1389 20.82 13.1315 20.82C13.1241 20.82 13.1168 20.82 13.1093 20.82C13.1019 20.82 13.0945 20.82 13.0871 20.82C13.0796 20.82 13.0722 20.82 13.0647 20.82C13.0572 20.82 13.0497 20.82 13.0421 20.82C13.0346 20.82 13.027 20.82 13.0195 20.82C13.0119 20.82 13.0043 20.82 12.9967 20.82C12.989 20.82 12.9814 20.82 12.9737 20.82C12.9661 20.82 12.9584 20.82 12.9507 20.82C12.943 20.82 12.9353 20.82 12.9275 20.82C12.9198 20.82 12.912 20.82 12.9042 20.82C12.8964 20.82 12.8886 20.82 12.8808 20.82C12.873 20.82 12.8651 20.82 12.8572 20.82C12.8494 20.82 12.8415 20.82 12.8336 20.82C12.8257 20.82 12.8177 20.82 12.8098 20.82C12.8018 20.82 12.7939 20.82 12.7859 20.82C12.7779 20.82 12.7699 20.82 12.7619 20.82C12.7538 20.82 12.7458 20.82 12.7377 20.82C12.7297 20.82 12.7216 20.82 12.7135 20.82C12.7054 20.82 12.6972 20.82 12.6891 20.82C12.6809 20.82 12.6728 20.82 12.6646 20.82C12.6564 20.82 12.6482 20.82 12.64 20.82C12.6318 20.82 12.6235 20.82 12.6153 20.82C12.607 20.82 12.5988 20.82 12.5905 20.82C12.5822 20.82 12.5739 20.82 12.5655 20.82C12.5572 20.82 12.5488 20.82 12.5405 20.82C12.5321 20.82 12.5237 20.82 12.5153 20.82C12.5069 20.82 12.4985 20.82 12.4901 20.82C12.4816 20.82 12.4732 20.82 12.4647 20.82C12.4562 20.82 12.4477 20.82 12.4392 20.82C12.4307 20.82 12.4222 20.82 12.4136 20.82C12.4051 20.82 12.3965 20.82 12.3879 20.82C12.3794 20.82 12.3708 20.82 12.3621 20.82C12.3535 20.82 12.3449 20.82 12.3363 20.82C12.3276 20.82 12.3189 20.82 12.3103 20.82C12.3016 20.82 12.2929 20.82 12.2842 20.82C12.2755 20.82 12.2667 20.82 12.258 20.82C12.2492 20.82 12.2405 20.82 12.2317 20.82C12.2229 20.82 12.2141 20.82 12.2053 20.82C12.1965 20.82 12.1877 20.82 12.1788 20.82C12.17 20.82 12.1611 20.82 12.1522 20.82C12.1434 20.82 12.1345 20.82 12.1256 20.82C12.1166 20.82 12.1077 20.82 12.0988 20.82C12.0898 20.82 12.0809 20.82 12.0719 20.82C12.063 20.82 12.054 20.82 12.045 20.82C12.036 20.82 12.027 20.82 12.0179 20.82C12.0089 20.82 11.9999 20.82 11.9908 20.82C11.9817 20.82 11.9727 20.82 11.9636 20.82C11.9545 20.82 11.9454 20.82 11.9363 20.82C11.9271 20.82 11.918 20.82 11.9089 20.82C11.8997 20.82 11.8906 20.82 11.8814 20.82C11.8722 20.82 11.863 20.82 11.8538 20.82C11.8446 20.82 11.8354 20.82 11.8262 20.82C11.8169 20.82 11.8077 20.82 11.7984 20.82C11.7892 20.82 11.7799 20.82 11.7706 20.82C11.7613 20.82 11.752 20.82 11.7427 20.82C11.7334 20.82 11.7241 20.82 11.7147 20.82C11.7054 20.82 11.696 20.82 11.6867 20.82C11.6773 20.82 11.6679 20.82 11.6585 20.82C11.6491 20.82 11.6397 20.82 11.6303 20.82C11.6209 20.82 11.6115 20.82 11.602 20.82C11.5926 20.82 11.5831 20.82 11.5737 20.82C11.5642 20.82 11.5547 20.82 11.5452 20.82C11.5357 20.82 11.5262 20.82 11.5167 20.82C11.5072 20.82 11.4977 20.82 11.4881 20.82C11.4786 20.82 11.469 20.82 11.4595 20.82C11.4499 20.82 11.4403 20.82 11.4307 20.82C11.4211 20.82 11.4115 20.82 11.4019 20.82C11.3923 20.82 11.3827 20.82 11.3731 20.82C11.3634 20.82 11.3538 20.82 11.3441 20.82C11.3345 20.82 11.3248 20.82 11.3151 20.82C11.3054 20.82 11.2957 20.82 11.286 20.82C11.2763 20.82 11.2666 20.82 11.2569 20.82C11.2472 20.82 11.2375 20.82 11.2277 20.82C11.218 20.82 11.2082 20.82 11.1985 20.82C11.1887 20.82 11.1789 20.82 11.1691 20.82C11.1593 20.82 11.1496 20.82 11.1397 20.82C11.1299 20.82 11.1201 20.82 11.1103 20.82C11.1005 20.82 11.0906 20.82 11.0808 20.82C11.071 20.82 11.0611 20.82 11.0512 20.82C11.0414 20.82 11.0315 20.82 11.0216 20.82C11.0117 20.82 11.0018 20.82 10.9919 20.82C10.982 20.82 10.9721 20.82 10.9622 20.82C10.9523 20.82 10.9424 20.82 10.9324 20.82C10.9225 20.82 10.9125 20.82 10.9026 20.82C10.8926 20.82 10.8827 20.82 10.8727 20.82C10.8627 20.82 10.8527 20.82 10.8428 20.82C10.8328 20.82 10.8228 20.82 10.8128 20.82C10.8028 20.82 10.7927 20.82 10.7827 20.82C10.7727 20.82 10.7627 20.82 10.7526 20.82C10.7426 20.82 10.7325 20.82 10.7225 20.82C10.7124 20.82 10.7024 20.82 10.6923 20.82C10.6822 20.82 10.6721 20.82 10.6621 20.82C10.652 20.82 10.6419 20.82 10.6318 20.82C10.6217 20.82 10.6116 20.82 10.6015 20.82C10.5913 20.82 10.5812 20.82 10.5711 20.82C10.561 20.82 10.5508 20.82 10.5407 20.82C10.5306 20.82 10.5204 20.82 10.5102 20.82C10.5001 20.82 10.4899 20.82 10.4798 20.82C10.4696 20.82 10.4594 20.82 10.4492 20.82C10.439 20.82 10.4289 20.82 10.4187 20.82C10.4085 20.82 10.3983 20.82 10.3881 20.82C10.3779 20.82 10.3676 20.82 10.3574 20.82C10.3472 20.82 10.337 20.82 10.3267 20.82C10.3165 20.82 10.3063 20.82 10.296 20.82C10.2858 20.82 10.2756 20.82 10.2653 20.82C10.255 20.82 10.2448 20.82 10.2345 20.82C10.2243 20.82 10.214 20.82 10.2037 20.82C10.1934 20.82 10.1832 20.82 10.1729 20.82C10.1626 20.82 10.1523 20.82 10.142 20.82C10.1317 20.82 10.1214 20.82 10.1111 20.82C10.1008 20.82 10.0905 20.82 10.0802 20.82C10.0699 20.82 10.0596 20.82 10.0493 20.82C10.0389 20.82 10.0286 20.82 10.0183 20.82C10.0079 20.82 9.99761 20.82 9.98728 20.82C9.97694 20.82 9.9666 20.82 9.95625 20.82C9.94591 20.82 9.93556 20.82 9.9252 20.82C9.91485 20.82 9.9045 20.82 9.89414 20.82C9.88378 20.82 9.87341 20.82 9.86305 20.82C9.85268 20.82 9.84231 20.82 9.83194 20.82C9.82156 20.82 9.81119 20.82 9.80081 20.82C9.79043 20.82 9.78005 20.82 9.76966 20.82C9.75928 20.82 9.74889 20.82 9.7385 20.82C9.72811 20.82 9.71771 20.82 9.70732 20.82C9.69692 20.82 9.68652 20.82 9.67612 20.82C9.66572 20.82 9.65532 20.82 9.64491 20.82C9.6345 20.82 9.6241 20.82 9.61369 20.82C9.60328 20.82 9.59286 20.82 9.58245 20.82C9.57204 20.82 9.56162 20.82 9.5512 20.82C9.54079 20.82 9.53037 20.82 9.51995 20.82C9.50952 20.82 9.4991 20.82 9.48868 20.82C9.47825 20.82 9.46783 20.82 9.4574 20.82C9.44698 20.82 9.43655 20.82 9.42612 20.82C9.41569 20.82 9.40526 20.82 9.39483 20.82C9.3844 20.82 9.37397 20.82 9.36353 20.82C9.3531 20.82 9.34267 20.82 9.33223 20.82C9.3218 20.82 9.31136 20.82 9.30093 20.82C9.29049 20.82 9.28006 20.82 9.26962 20.82C9.25918 20.82 9.24875 20.82 9.23831 20.82C9.22787 20.82 9.21744 20.82 9.207 20.82C9.19656 20.82 9.18613 20.82 9.17569 20.82C9.16525 20.82 9.15482 20.82 9.14438 20.82C9.13394 20.82 9.12351 20.82 9.11307 20.82C9.10264 20.82 9.0922 20.82 9.08177 20.82C9.07133 20.82 9.0609 20.82 9.05047 20.82C9.04003 20.82 9.0296 20.82 9.01917 20.82C9.00874 20.82 8.99831 20.82 8.98788 20.82C8.97745 20.82 8.96702 20.82 8.9566 20.82C8.94617 20.82 8.93575 20.82 8.92532 20.82C8.9149 20.82 8.90447 20.82 8.89405 20.82C8.88363 20.82 8.87321 20.82 8.8628 20.82C8.85238 20.82 8.84196 20.82 8.83155 20.82C8.82113 20.82 8.81072 20.82 8.80031 20.82C8.7899 20.82 8.7795 20.82 8.76909 20.82C8.75868 20.82 8.74828 20.82 8.73788 20.82C8.72748 20.82 8.71708 20.82 8.70668 20.82C8.69629 20.82 8.68589 20.82 8.6755 20.82C8.66511 20.82 8.65472 20.82 8.64434 20.82C8.63395 20.82 8.62357 20.82 8.61319 20.82C8.60281 20.82 8.59244 20.82 8.58206 20.82C8.57169 20.82 8.56132 20.82 8.55095 20.82C8.54059 20.82 8.53022 20.82 8.51986 20.82C8.5095 20.82 8.49915 20.82 8.4888 20.82C8.47844 20.82 8.46809 20.82 8.45775 20.82C8.4474 20.82 8.43706 20.82 8.42673 20.82C8.41639 20.82 8.40606 20.82 8.39573 20.82C8.3854 20.82 8.37507 20.82 8.36475 20.82C8.35443 20.82 8.34411 20.82 8.3338 20.82C8.32349 20.82 8.31318 20.82 8.30288 20.82C8.29258 20.82 8.28228 20.82 8.27198 20.82C8.26169 20.82 8.2514 20.82 8.24112 20.82C8.23083 20.82 8.22056 20.82 8.21028 20.82C8.20001 20.82 8.18974 20.82 8.17948 20.82C8.16921 20.82 8.15896 20.82 8.1487 20.82C8.13845 20.82 8.1282 20.82 8.11796 20.82C8.10772 20.82 8.09748 20.82 8.08725 20.82C8.07702 20.82 8.0668 20.82 8.05658 20.82C8.04636 20.82 8.03615 20.82 8.02594 20.82C8.01573 20.82 8.00553 20.82 7.99534 20.82C7.98514 20.82 7.97495 20.82 7.96477 20.82C7.95459 20.82 7.94441 20.82 7.93425 20.82C7.92408 20.82 7.91391 20.82 7.90376 20.82C7.8936 20.82 7.88345 20.82 7.87331 20.82C7.86317 20.82 7.85303 20.82 7.8429 20.82C7.83278 20.82 7.82265 20.82 7.81254 20.82C7.80243 20.82 7.79232 20.82 7.78222 20.82C7.77212 20.82 7.76203 20.82 7.75194 20.82C7.74186 20.82 7.73178 20.82 7.72171 20.82C7.71164 20.82 7.70158 20.82 7.69152 20.82C7.68147 20.82 7.67142 20.82 7.66138 20.82C7.65134 20.82 7.64131 20.82 7.63129 20.82C7.62127 20.82 7.61125 20.82 7.60125 20.82C7.59124 20.82 7.58124 20.82 7.57125 20.82C7.56126 20.82 7.55128 20.82 7.54131 20.82C7.53134 20.82 7.52137 20.82 7.51142 20.82C7.50146 20.82 7.49152 20.82 7.48158 20.82C7.47164 20.82 7.46171 20.82 7.4518 20.82C7.44188 20.82 7.43197 20.82 7.42206 20.82C7.41216 20.82 7.40227 20.82 7.39239 20.82C7.38251 20.82 7.37263 20.82 7.36277 20.82C7.35291 20.82 7.34305 20.82 7.33321 20.82C7.32336 20.82 7.31353 20.82 7.30371 20.82C7.29388 20.82 7.28407 20.82 7.27426 20.82C7.26446 20.82 7.25466 20.82 7.24488 20.82C7.23509 20.82 7.22532 20.82 7.21555 20.82C7.20579 20.82 7.19604 20.82 7.18629 20.82C7.17655 20.82 7.16682 20.82 7.1571 20.82C7.14737 20.82 7.13766 20.82 7.12796 20.82C7.11826 20.82 7.10857 20.82 7.09889 20.82C7.08922 20.82 7.07955 20.82 7.06989 20.82C7.06023 20.82 7.05059 20.82 7.04096 20.82C7.03132 20.82 7.0217 20.82 7.01209 20.82C7.00248 20.82 6.99288 20.82 6.98329 20.82C6.9737 20.82 6.96412 20.82 6.95456 20.82C6.94499 20.82 6.93544 20.82 6.9259 20.82C6.91636 20.82 6.90683 20.82 6.89731 20.82C6.8878 20.82 6.87829 20.82 6.8688 20.82C6.85931 20.82 6.84983 20.82 6.84036 20.82C6.83089 20.82 6.82143 20.82 6.81199 20.82C6.80255 20.82 6.79312 20.82 6.7837 20.82C6.77428 20.82 6.76488 20.82 6.75549 20.82C6.74609 20.82 6.73672 20.82 6.72735 20.82C6.71798 20.82 6.70863 20.82 6.69929 20.82C6.68995 20.82 6.68062 20.82 6.67131 20.82C6.662 20.82 6.6527 20.82 6.64341 20.82C6.63413 20.82 6.62485 20.82 6.61559 20.82C6.60634 20.82 6.59709 20.82 6.58786 20.82C6.57863 20.82 6.56941 20.82 6.56021 20.82C6.551 20.82 6.54181 20.82 6.53264 20.82C6.52346 20.82 6.5143 20.82 6.50515 20.82C6.49601 20.82 6.48688 20.82 6.47776 20.82C6.46864 20.82 6.45954 20.82 6.45045 20.82C6.44136 20.82 6.43228 20.82 6.42322 20.82C6.41416 20.82 6.40512 20.82 6.39609 20.82C6.38706 20.82 6.37805 20.82 6.36905 20.82C6.36005 20.82 6.35106 20.82 6.34209 20.82C6.33312 20.82 6.32417 20.82 6.31523 20.82C6.30629 20.82 6.29737 20.82 6.28846 20.82C6.27956 20.82 6.27066 20.82 6.26179 20.82C6.25291 20.82 6.24405 20.82 6.23521 20.82C6.22636 20.82 6.21754 20.82 6.20872 20.82C6.19991 20.82 6.19111 20.82 6.18234 20.82C6.17356 20.82 6.16479 20.82 6.15604 20.82C6.1473 20.82 6.13857 20.82 6.12985 20.82C6.12114 20.82 6.11244 20.82 6.10376 20.82C6.09508 20.82 6.08641 20.82 6.07777 20.82C6.06912 20.82 6.06049 20.82 6.05187 20.82C6.04326 20.82 6.03466 20.82 6.02609 20.82C6.01751 20.82 6.00894 20.82 6.0004 20.82C5.99185 20.82 5.98333 20.82 5.97482 20.82C5.96631 20.82 5.95782 20.82 5.94934 20.82C5.94087 20.82 5.93241 20.82 5.92397 20.82C5.91553 20.82 5.90711 20.82 5.89871 20.82C5.8903 20.82 5.88192 20.82 5.87355 20.82C5.86518 20.82 5.85683 20.82 5.8485 20.82C5.84017 20.82 5.83186 20.82 5.82357 20.82C5.81527 20.82 5.807 20.82 5.79874 20.82C5.79048 20.82 5.78225 20.82 5.77403 20.82C5.76581 20.82 5.75761 20.82 5.74942 20.82C5.74124 20.82 5.73308 20.82 5.72494 20.82C5.71679 20.82 5.70867 20.82 5.70056 20.82C5.69246 20.82 5.68437 20.82 5.67631 20.82C5.66824 20.82 5.66019 20.82 5.65217 20.82C5.64414 20.82 5.63613 20.82 5.62814 20.82C5.62015 20.82 5.61219 20.82 5.60424 20.82C5.59629 20.82 5.58836 20.82 5.58045 20.82C5.57254 20.82 5.56465 20.82 5.55679 20.82C5.54892 20.82 5.54107 20.82 5.53324 20.82C5.52541 20.82 5.51761 20.82 5.50982 20.82C5.50203 20.82 5.49427 20.82 5.48652 20.82C5.47878 20.82 5.47105 20.82 5.46335 20.82C5.45564 20.82 5.44796 20.82 5.4403 20.82C5.43264 20.82 5.425 20.82 5.41738 20.82C5.40976 20.82 5.40216 20.82 5.39458 20.82C5.387 20.82 5.37945 20.82 5.37191 20.82C5.36438 20.82 5.35687 20.82 5.34938 20.82C5.34188 20.82 5.33441 20.82 5.32697 20.82C5.31952 20.82 5.31209 20.82 5.30469 20.82C5.29729 20.82 5.2899 20.82 5.28254 20.82C5.27518 20.82 5.26785 20.82 5.26053 20.82C5.25322 20.82 5.24592 20.82 5.23865 20.82C5.23138 20.82 5.22413 20.82 5.21691 20.82C5.20968 20.82 5.20248 20.82 5.1953 20.82C5.18812 20.82 5.18096 20.82 5.17383 20.82C5.16669 20.82 5.15958 20.82 5.15249 20.82C5.1454 20.82 5.13834 20.82 5.1313 20.82C5.12425 20.82 5.11723 20.82 5.11024 20.82C5.10324 20.82 5.09627 20.82 5.08932 20.82C5.08237 20.82 5.07545 20.82 5.06855 20.82C5.06165 20.82 5.05477 20.82 5.04792 20.82C5.04106 20.82 5.03423 20.82 5.02743 20.82C5.02062 20.82 5.01384 20.82 5.00708 20.82C5.00032 20.82 4.99359 20.82 4.98688 20.82C4.98017 20.82 4.97349 20.82 4.96683 20.82C4.96017 20.82 4.95353 20.82 4.94692 20.82C4.94031 20.82 4.93373 20.82 4.92717 20.82C4.9206 20.82 4.91407 20.82 4.90756 20.82C4.90104 20.82 4.89456 20.82 4.8881 20.82C4.88164 20.82 4.8752 20.82 4.86879 20.82C4.86238 20.82 4.85599 20.82 4.84963 20.82C4.84327 20.82 4.83694 20.82 4.83063 20.82C4.82432 20.82 4.81804 20.82 4.81178 20.82C4.80552 20.82 4.79929 20.82 4.79309 20.82C4.78688 20.82 4.7807 20.82 4.77455 20.82C4.76839 20.82 4.76227 20.82 4.75617 20.82C4.75006 20.82 4.74399 20.82 4.73794 20.82C4.73189 20.82 4.72587 20.82 4.71988 20.82C4.71388 20.82 4.70791 20.82 4.70197 20.82C4.69603 20.82 4.69011 20.82 4.68422 20.82C4.67834 20.82 4.67247 20.82 4.66664 20.82C4.6608 20.82 4.655 20.82 4.64922 20.82C4.64344 20.82 4.63768 20.82 4.63196 20.82C4.62623 20.82 4.62054 20.82 4.61487 20.82C4.60919 20.82 4.60355 20.82 4.59794 20.82C4.59232 20.82 4.58673 20.82 4.58117 20.82C4.57561 20.82 4.57008 20.82 4.56458 20.82C4.55908 20.82 4.5536 20.82 4.54815 20.82C4.5427 20.82 4.53728 20.82 4.53189 20.82C4.5265 20.82 4.52114 20.82 4.51581 20.82C4.51047 20.82 4.50517 20.82 4.49989 20.82C4.49461 20.82 4.48936 20.82 4.48414 20.82C4.47892 20.82 4.47373 20.82 4.46857 20.82C4.46341 20.82 4.45828 20.82 4.45317 20.82C4.44807 20.82 4.443 20.82 4.43795 20.82C4.43291 20.82 4.42789 20.82 4.4229 20.82C4.41792 20.82 4.41296 20.82 4.40803 20.82C4.40311 20.82 4.39821 20.82 4.39334 20.82C4.38847 20.82 4.38363 20.82 4.37883 20.82C4.37402 20.82 4.36924 20.82 4.36449 20.82C4.35974 20.82 4.35503 20.82 4.35034 20.82C4.34565 20.82 4.34099 20.82 4.33637 20.82C4.33174 20.82 4.32714 20.82 4.32258 20.82C4.31801 20.82 4.31347 20.82 4.30897 20.82C4.30447 20.82 4.29999 20.82 4.29555 20.82C4.2911 20.82 4.28669 20.82 4.28231 20.82C4.27793 20.82 4.27358 20.82 4.26926 20.82C4.26494 20.82 4.26065 20.82 4.2564 20.82C4.25214 20.82 4.24792 20.82 4.24372 20.82C4.23953 20.82 4.23537 20.82 4.23124 20.82C4.22711 20.82 4.22301 20.82 4.21894 20.82C4.21488 20.82 4.21084 20.82 4.20684 20.82C4.20284 20.82 4.19886 20.82 4.19493 20.82C4.19099 20.82 4.18708 20.82 4.18321 20.82C4.17933 20.82 4.17549 20.82 4.17168 20.82C4.16787 20.82 4.1641 20.82 4.16035 20.82C4.15661 20.82 4.1529 20.82 4.14922 20.82C4.14554 20.82 4.14189 20.82 4.13828 20.82C4.13467 20.82 4.13109 20.82 4.12754 20.82C4.12399 20.82 4.12048 20.82 4.117 20.82C4.11352 20.82 4.11007 20.82 4.10666 20.82C4.10324 20.82 4.09986 20.82 4.09652 20.82C4.09317 20.82 4.08986 20.82 4.08658 20.82C4.0833 20.82 4.08005 20.82 4.07684 20.82C4.07363 20.82 4.07045 20.82 4.06731 20.82C4.06416 20.82 4.06105 20.82 4.05798 20.82C4.0549 20.82 4.05186 20.82 4.04886 20.82C4.04585 20.82 4.04288 20.82 4.03994 20.82C4.037 20.82 4.0341 20.82 4.03123 20.82C4.02836 20.82 4.02553 20.82 4.02273 20.82C4.01993 20.82 4.01717 20.82 4.01444 20.82C4.01171 20.82 4.00901 20.82 4.00636 20.82C4.0037 20.82 4.00107 20.82 3.99848 20.82C3.9959 20.82 3.99334 20.82 3.99083 20.82C3.98831 20.82 3.98583 20.82 3.98338 20.82C3.98094 20.82 3.97852 20.82 3.97615 20.82C3.97378 20.82 3.97144 20.82 3.96913 20.82C3.96683 20.82 3.96456 20.82 3.96233 20.82C3.9601 20.82 3.95791 20.82 3.95575 20.82C3.95359 20.82 3.95147 20.82 3.94938 20.82C3.9473 20.82 3.94525 20.82 3.94324 20.82C3.94123 20.82 3.93925 20.82 3.93731 20.82C3.93537 20.82 3.93347 20.82 3.93161 20.82C3.92974 20.82 3.92791 20.82 3.92612 20.82C3.92433 20.82 3.92258 20.82 3.92086 20.82C3.91914 20.82 3.91746 20.82 3.91582 20.82C3.91418 20.82 3.91257 20.82 3.91101 20.82C3.90944 20.82 3.90791 20.82 3.90642 20.82C3.90493 20.82 3.90347 20.82 3.90206 20.82C3.90064 20.82 3.89926 20.82 3.89792 20.82C3.89658 20.82 3.89528 20.82 3.89402 20.82C3.89275 20.82 3.89153 20.82 3.89034 20.82C3.88915 20.82 3.888 20.82 3.88689 20.82C3.88578 20.82 3.88471 20.82 3.88368 20.82C3.88265 20.82 3.88165 20.82 3.8807 20.82C3.87974 20.82 3.87882 20.82 3.87795 20.82C3.87707 20.82 3.87623 20.82 3.87543 20.82C3.87463 20.82 3.87387 20.82 3.87315 20.82C3.87243 20.82 3.87175 20.82 3.8711 20.82C3.87046 20.82 3.86986 20.82 3.8693 20.82C3.86873 20.82 3.86821 20.82 3.86773 20.82C3.86724 20.82 3.8668 20.82 3.8664 20.82C3.86599 20.82 3.86563 20.82 3.86531 20.82C3.86498 20.82 3.8647 20.82 3.86445 20.82C3.86421 20.82 3.86401 20.82 3.86385 20.82C3.86368 20.82 3.86356 20.82 3.86348 20.82C3.8634 20.82 3.86336 20.82 3.86336 21.32C3.86336 21.82 3.8634 21.82 3.86348 21.82C3.86356 21.82 3.86368 21.82 3.86385 21.82C3.86401 21.82 3.86421 21.82 3.86445 21.82C3.8647 21.82 3.86498 21.82 3.86531 21.82C3.86563 21.82 3.86599 21.82 3.8664 21.82C3.8668 21.82 3.86724 21.82 3.86773 21.82C3.86821 21.82 3.86873 21.82 3.8693 21.82C3.86986 21.82 3.87046 21.82 3.8711 21.82C3.87175 21.82 3.87243 21.82 3.87315 21.82C3.87387 21.82 3.87463 21.82 3.87543 21.82C3.87623 21.82 3.87707 21.82 3.87795 21.82C3.87882 21.82 3.87974 21.82 3.8807 21.82C3.88165 21.82 3.88265 21.82 3.88368 21.82C3.88471 21.82 3.88578 21.82 3.88689 21.82C3.888 21.82 3.88915 21.82 3.89034 21.82C3.89153 21.82 3.89275 21.82 3.89402 21.82C3.89528 21.82 3.89658 21.82 3.89792 21.82C3.89926 21.82 3.90064 21.82 3.90206 21.82C3.90347 21.82 3.90493 21.82 3.90642 21.82C3.90791 21.82 3.90944 21.82 3.91101 21.82C3.91257 21.82 3.91418 21.82 3.91582 21.82C3.91746 21.82 3.91914 21.82 3.92086 21.82C3.92258 21.82 3.92433 21.82 3.92612 21.82C3.92791 21.82 3.92974 21.82 3.93161 21.82C3.93347 21.82 3.93537 21.82 3.93731 21.82C3.93925 21.82 3.94123 21.82 3.94324 21.82C3.94525 21.82 3.9473 21.82 3.94938 21.82C3.95147 21.82 3.95359 21.82 3.95575 21.82C3.95791 21.82 3.9601 21.82 3.96233 21.82C3.96456 21.82 3.96683 21.82 3.96913 21.82C3.97144 21.82 3.97378 21.82 3.97615 21.82C3.97852 21.82 3.98094 21.82 3.98338 21.82C3.98583 21.82 3.98831 21.82 3.99083 21.82C3.99334 21.82 3.9959 21.82 3.99848 21.82C4.00107 21.82 4.0037 21.82 4.00636 21.82C4.00901 21.82 4.01171 21.82 4.01444 21.82C4.01717 21.82 4.01993 21.82 4.02273 21.82C4.02553 21.82 4.02836 21.82 4.03123 21.82C4.0341 21.82 4.037 21.82 4.03994 21.82C4.04288 21.82 4.04585 21.82 4.04886 21.82C4.05186 21.82 4.0549 21.82 4.05798 21.82C4.06105 21.82 4.06416 21.82 4.06731 21.82C4.07045 21.82 4.07363 21.82 4.07684 21.82C4.08005 21.82 4.0833 21.82 4.08658 21.82C4.08986 21.82 4.09317 21.82 4.09652 21.82C4.09986 21.82 4.10324 21.82 4.10666 21.82C4.11007 21.82 4.11352 21.82 4.117 21.82C4.12048 21.82 4.12399 21.82 4.12754 21.82C4.13109 21.82 4.13467 21.82 4.13828 21.82C4.14189 21.82 4.14554 21.82 4.14922 21.82C4.1529 21.82 4.15661 21.82 4.16035 21.82C4.1641 21.82 4.16787 21.82 4.17168 21.82C4.17549 21.82 4.17933 21.82 4.18321 21.82C4.18708 21.82 4.19099 21.82 4.19493 21.82C4.19886 21.82 4.20284 21.82 4.20684 21.82C4.21084 21.82 4.21488 21.82 4.21894 21.82C4.22301 21.82 4.22711 21.82 4.23124 21.82C4.23537 21.82 4.23953 21.82 4.24372 21.82C4.24792 21.82 4.25214 21.82 4.2564 21.82C4.26065 21.82 4.26494 21.82 4.26926 21.82C4.27358 21.82 4.27793 21.82 4.28231 21.82C4.28669 21.82 4.2911 21.82 4.29555 21.82C4.29999 21.82 4.30447 21.82 4.30897 21.82C4.31347 21.82 4.31801 21.82 4.32258 21.82C4.32714 21.82 4.33174 21.82 4.33637 21.82C4.34099 21.82 4.34565 21.82 4.35034 21.82C4.35503 21.82 4.35974 21.82 4.36449 21.82C4.36924 21.82 4.37402 21.82 4.37883 21.82C4.38363 21.82 4.38847 21.82 4.39334 21.82C4.39821 21.82 4.40311 21.82 4.40803 21.82C4.41296 21.82 4.41792 21.82 4.4229 21.82C4.42789 21.82 4.43291 21.82 4.43795 21.82C4.443 21.82 4.44807 21.82 4.45317 21.82C4.45828 21.82 4.46341 21.82 4.46857 21.82C4.47373 21.82 4.47892 21.82 4.48414 21.82C4.48936 21.82 4.49461 21.82 4.49989 21.82C4.50517 21.82 4.51047 21.82 4.51581 21.82C4.52114 21.82 4.5265 21.82 4.53189 21.82C4.53728 21.82 4.5427 21.82 4.54815 21.82C4.5536 21.82 4.55908 21.82 4.56458 21.82C4.57008 21.82 4.57561 21.82 4.58117 21.82C4.58673 21.82 4.59232 21.82 4.59794 21.82C4.60355 21.82 4.60919 21.82 4.61487 21.82C4.62054 21.82 4.62623 21.82 4.63196 21.82C4.63768 21.82 4.64344 21.82 4.64922 21.82C4.655 21.82 4.6608 21.82 4.66664 21.82C4.67247 21.82 4.67834 21.82 4.68422 21.82C4.69011 21.82 4.69603 21.82 4.70197 21.82C4.70791 21.82 4.71388 21.82 4.71988 21.82C4.72587 21.82 4.73189 21.82 4.73794 21.82C4.74399 21.82 4.75006 21.82 4.75617 21.82C4.76227 21.82 4.76839 21.82 4.77455 21.82C4.7807 21.82 4.78688 21.82 4.79309 21.82C4.79929 21.82 4.80552 21.82 4.81178 21.82C4.81804 21.82 4.82432 21.82 4.83063 21.82C4.83694 21.82 4.84327 21.82 4.84963 21.82C4.85599 21.82 4.86238 21.82 4.86879 21.82C4.8752 21.82 4.88164 21.82 4.8881 21.82C4.89456 21.82 4.90104 21.82 4.90756 21.82C4.91407 21.82 4.9206 21.82 4.92717 21.82C4.93373 21.82 4.94031 21.82 4.94692 21.82C4.95353 21.82 4.96017 21.82 4.96683 21.82C4.97349 21.82 4.98017 21.82 4.98688 21.82C4.99359 21.82 5.00032 21.82 5.00708 21.82C5.01384 21.82 5.02062 21.82 5.02743 21.82C5.03423 21.82 5.04106 21.82 5.04792 21.82C5.05477 21.82 5.06165 21.82 5.06855 21.82C5.07545 21.82 5.08237 21.82 5.08932 21.82C5.09627 21.82 5.10324 21.82 5.11024 21.82C5.11723 21.82 5.12425 21.82 5.1313 21.82C5.13834 21.82 5.1454 21.82 5.15249 21.82C5.15958 21.82 5.16669 21.82 5.17383 21.82C5.18096 21.82 5.18812 21.82 5.1953 21.82C5.20248 21.82 5.20968 21.82 5.21691 21.82C5.22413 21.82 5.23138 21.82 5.23865 21.82C5.24592 21.82 5.25322 21.82 5.26053 21.82C5.26785 21.82 5.27518 21.82 5.28254 21.82C5.2899 21.82 5.29729 21.82 5.30469 21.82C5.31209 21.82 5.31952 21.82 5.32697 21.82C5.33441 21.82 5.34188 21.82 5.34938 21.82C5.35687 21.82 5.36438 21.82 5.37191 21.82C5.37945 21.82 5.387 21.82 5.39458 21.82C5.40216 21.82 5.40976 21.82 5.41738 21.82C5.425 21.82 5.43264 21.82 5.4403 21.82C5.44796 21.82 5.45564 21.82 5.46335 21.82C5.47105 21.82 5.47878 21.82 5.48652 21.82C5.49427 21.82 5.50203 21.82 5.50982 21.82C5.51761 21.82 5.52541 21.82 5.53324 21.82C5.54107 21.82 5.54892 21.82 5.55679 21.82C5.56465 21.82 5.57254 21.82 5.58045 21.82C5.58836 21.82 5.59629 21.82 5.60424 21.82C5.61219 21.82 5.62015 21.82 5.62814 21.82C5.63613 21.82 5.64414 21.82 5.65217 21.82C5.66019 21.82 5.66824 21.82 5.67631 21.82C5.68437 21.82 5.69246 21.82 5.70056 21.82C5.70867 21.82 5.71679 21.82 5.72494 21.82C5.73308 21.82 5.74124 21.82 5.74942 21.82C5.75761 21.82 5.76581 21.82 5.77403 21.82C5.78225 21.82 5.79048 21.82 5.79874 21.82C5.807 21.82 5.81527 21.82 5.82357 21.82C5.83186 21.82 5.84017 21.82 5.8485 21.82C5.85683 21.82 5.86518 21.82 5.87355 21.82C5.88192 21.82 5.8903 21.82 5.89871 21.82C5.90711 21.82 5.91553 21.82 5.92397 21.82C5.93241 21.82 5.94087 21.82 5.94934 21.82C5.95782 21.82 5.96631 21.82 5.97482 21.82C5.98333 21.82 5.99185 21.82 6.0004 21.82C6.00894 21.82 6.01751 21.82 6.02609 21.82C6.03466 21.82 6.04326 21.82 6.05187 21.82C6.06049 21.82 6.06912 21.82 6.07777 21.82C6.08641 21.82 6.09508 21.82 6.10376 21.82C6.11244 21.82 6.12114 21.82 6.12985 21.82C6.13857 21.82 6.1473 21.82 6.15604 21.82C6.16479 21.82 6.17356 21.82 6.18234 21.82C6.19111 21.82 6.19991 21.82 6.20872 21.82C6.21754 21.82 6.22636 21.82 6.23521 21.82C6.24405 21.82 6.25291 21.82 6.26179 21.82C6.27066 21.82 6.27956 21.82 6.28846 21.82C6.29737 21.82 6.30629 21.82 6.31523 21.82C6.32417 21.82 6.33312 21.82 6.34209 21.82C6.35106 21.82 6.36005 21.82 6.36905 21.82C6.37805 21.82 6.38706 21.82 6.39609 21.82C6.40512 21.82 6.41416 21.82 6.42322 21.82C6.43228 21.82 6.44136 21.82 6.45045 21.82C6.45954 21.82 6.46864 21.82 6.47776 21.82C6.48688 21.82 6.49601 21.82 6.50515 21.82C6.5143 21.82 6.52346 21.82 6.53264 21.82C6.54181 21.82 6.551 21.82 6.56021 21.82C6.56941 21.82 6.57863 21.82 6.58786 21.82C6.59709 21.82 6.60634 21.82 6.61559 21.82C6.62485 21.82 6.63413 21.82 6.64341 21.82C6.6527 21.82 6.662 21.82 6.67131 21.82C6.68062 21.82 6.68995 21.82 6.69929 21.82C6.70863 21.82 6.71798 21.82 6.72735 21.82C6.73672 21.82 6.74609 21.82 6.75549 21.82C6.76488 21.82 6.77428 21.82 6.7837 21.82C6.79312 21.82 6.80255 21.82 6.81199 21.82C6.82143 21.82 6.83089 21.82 6.84036 21.82C6.84983 21.82 6.85931 21.82 6.8688 21.82C6.87829 21.82 6.8878 21.82 6.89731 21.82C6.90683 21.82 6.91636 21.82 6.9259 21.82C6.93544 21.82 6.94499 21.82 6.95456 21.82C6.96412 21.82 6.9737 21.82 6.98329 21.82C6.99288 21.82 7.00248 21.82 7.01209 21.82C7.0217 21.82 7.03132 21.82 7.04096 21.82C7.05059 21.82 7.06023 21.82 7.06989 21.82C7.07955 21.82 7.08922 21.82 7.09889 21.82C7.10857 21.82 7.11826 21.82 7.12796 21.82C7.13766 21.82 7.14737 21.82 7.1571 21.82C7.16682 21.82 7.17655 21.82 7.18629 21.82C7.19604 21.82 7.20579 21.82 7.21555 21.82C7.22532 21.82 7.23509 21.82 7.24488 21.82C7.25466 21.82 7.26446 21.82 7.27426 21.82C7.28407 21.82 7.29388 21.82 7.30371 21.82C7.31353 21.82 7.32336 21.82 7.33321 21.82C7.34305 21.82 7.35291 21.82 7.36277 21.82C7.37263 21.82 7.38251 21.82 7.39239 21.82C7.40227 21.82 7.41216 21.82 7.42206 21.82C7.43197 21.82 7.44188 21.82 7.4518 21.82C7.46171 21.82 7.47164 21.82 7.48158 21.82C7.49152 21.82 7.50146 21.82 7.51142 21.82C7.52137 21.82 7.53134 21.82 7.54131 21.82C7.55128 21.82 7.56126 21.82 7.57125 21.82C7.58124 21.82 7.59124 21.82 7.60125 21.82C7.61125 21.82 7.62127 21.82 7.63129 21.82C7.64131 21.82 7.65134 21.82 7.66138 21.82C7.67142 21.82 7.68147 21.82 7.69152 21.82C7.70158 21.82 7.71164 21.82 7.72171 21.82C7.73178 21.82 7.74186 21.82 7.75194 21.82C7.76203 21.82 7.77212 21.82 7.78222 21.82C7.79232 21.82 7.80243 21.82 7.81254 21.82C7.82265 21.82 7.83278 21.82 7.8429 21.82C7.85303 21.82 7.86317 21.82 7.87331 21.82C7.88345 21.82 7.8936 21.82 7.90376 21.82C7.91391 21.82 7.92408 21.82 7.93425 21.82C7.94441 21.82 7.95459 21.82 7.96477 21.82C7.97495 21.82 7.98514 21.82 7.99534 21.82C8.00553 21.82 8.01573 21.82 8.02594 21.82C8.03615 21.82 8.04636 21.82 8.05658 21.82C8.0668 21.82 8.07702 21.82 8.08725 21.82C8.09748 21.82 8.10772 21.82 8.11796 21.82C8.1282 21.82 8.13845 21.82 8.1487 21.82C8.15896 21.82 8.16921 21.82 8.17948 21.82C8.18974 21.82 8.20001 21.82 8.21028 21.82C8.22056 21.82 8.23083 21.82 8.24112 21.82C8.2514 21.82 8.26169 21.82 8.27198 21.82C8.28228 21.82 8.29258 21.82 8.30288 21.82C8.31318 21.82 8.32349 21.82 8.3338 21.82C8.34411 21.82 8.35443 21.82 8.36475 21.82C8.37507 21.82 8.3854 21.82 8.39573 21.82C8.40606 21.82 8.41639 21.82 8.42673 21.82C8.43706 21.82 8.4474 21.82 8.45775 21.82C8.46809 21.82 8.47844 21.82 8.4888 21.82C8.49915 21.82 8.5095 21.82 8.51986 21.82C8.53022 21.82 8.54059 21.82 8.55095 21.82C8.56132 21.82 8.57169 21.82 8.58206 21.82C8.59244 21.82 8.60281 21.82 8.61319 21.82C8.62357 21.82 8.63395 21.82 8.64434 21.82C8.65472 21.82 8.66511 21.82 8.6755 21.82C8.68589 21.82 8.69629 21.82 8.70668 21.82C8.71708 21.82 8.72748 21.82 8.73788 21.82C8.74828 21.82 8.75868 21.82 8.76909 21.82C8.7795 21.82 8.7899 21.82 8.80031 21.82C8.81072 21.82 8.82113 21.82 8.83155 21.82C8.84196 21.82 8.85238 21.82 8.8628 21.82C8.87321 21.82 8.88363 21.82 8.89405 21.82C8.90447 21.82 8.9149 21.82 8.92532 21.82C8.93575 21.82 8.94617 21.82 8.9566 21.82C8.96702 21.82 8.97745 21.82 8.98788 21.82C8.99831 21.82 9.00874 21.82 9.01917 21.82C9.0296 21.82 9.04003 21.82 9.05047 21.82C9.0609 21.82 9.07133 21.82 9.08177 21.82C9.0922 21.82 9.10264 21.82 9.11307 21.82C9.12351 21.82 9.13394 21.82 9.14438 21.82C9.15482 21.82 9.16525 21.82 9.17569 21.82C9.18613 21.82 9.19656 21.82 9.207 21.82C9.21744 21.82 9.22787 21.82 9.23831 21.82C9.24875 21.82 9.25918 21.82 9.26962 21.82C9.28006 21.82 9.29049 21.82 9.30093 21.82C9.31136 21.82 9.3218 21.82 9.33223 21.82C9.34267 21.82 9.3531 21.82 9.36353 21.82C9.37397 21.82 9.3844 21.82 9.39483 21.82C9.40526 21.82 9.41569 21.82 9.42612 21.82C9.43655 21.82 9.44698 21.82 9.4574 21.82C9.46783 21.82 9.47825 21.82 9.48868 21.82C9.4991 21.82 9.50952 21.82 9.51995 21.82C9.53037 21.82 9.54079 21.82 9.5512 21.82C9.56162 21.82 9.57204 21.82 9.58245 21.82C9.59286 21.82 9.60328 21.82 9.61369 21.82C9.6241 21.82 9.6345 21.82 9.64491 21.82C9.65532 21.82 9.66572 21.82 9.67612 21.82C9.68652 21.82 9.69692 21.82 9.70732 21.82C9.71771 21.82 9.72811 21.82 9.7385 21.82C9.74889 21.82 9.75928 21.82 9.76966 21.82C9.78005 21.82 9.79043 21.82 9.80081 21.82C9.81119 21.82 9.82156 21.82 9.83194 21.82C9.84231 21.82 9.85268 21.82 9.86305 21.82C9.87341 21.82 9.88378 21.82 9.89414 21.82C9.9045 21.82 9.91485 21.82 9.9252 21.82C9.93556 21.82 9.94591 21.82 9.95625 21.82C9.9666 21.82 9.97694 21.82 9.98728 21.82C9.99761 21.82 10.0079 21.82 10.0183 21.82C10.0286 21.82 10.0389 21.82 10.0493 21.82C10.0596 21.82 10.0699 21.82 10.0802 21.82C10.0905 21.82 10.1008 21.82 10.1111 21.82C10.1214 21.82 10.1317 21.82 10.142 21.82C10.1523 21.82 10.1626 21.82 10.1729 21.82C10.1832 21.82 10.1934 21.82 10.2037 21.82C10.214 21.82 10.2243 21.82 10.2345 21.82C10.2448 21.82 10.255 21.82 10.2653 21.82C10.2756 21.82 10.2858 21.82 10.296 21.82C10.3063 21.82 10.3165 21.82 10.3267 21.82C10.337 21.82 10.3472 21.82 10.3574 21.82C10.3676 21.82 10.3779 21.82 10.3881 21.82C10.3983 21.82 10.4085 21.82 10.4187 21.82C10.4289 21.82 10.439 21.82 10.4492 21.82C10.4594 21.82 10.4696 21.82 10.4798 21.82C10.4899 21.82 10.5001 21.82 10.5102 21.82C10.5204 21.82 10.5306 21.82 10.5407 21.82C10.5508 21.82 10.561 21.82 10.5711 21.82C10.5812 21.82 10.5913 21.82 10.6015 21.82C10.6116 21.82 10.6217 21.82 10.6318 21.82C10.6419 21.82 10.652 21.82 10.6621 21.82C10.6721 21.82 10.6822 21.82 10.6923 21.82C10.7024 21.82 10.7124 21.82 10.7225 21.82C10.7325 21.82 10.7426 21.82 10.7526 21.82C10.7627 21.82 10.7727 21.82 10.7827 21.82C10.7927 21.82 10.8028 21.82 10.8128 21.82C10.8228 21.82 10.8328 21.82 10.8428 21.82C10.8527 21.82 10.8627 21.82 10.8727 21.82C10.8827 21.82 10.8926 21.82 10.9026 21.82C10.9125 21.82 10.9225 21.82 10.9324 21.82C10.9424 21.82 10.9523 21.82 10.9622 21.82C10.9721 21.82 10.982 21.82 10.9919 21.82C11.0018 21.82 11.0117 21.82 11.0216 21.82C11.0315 21.82 11.0414 21.82 11.0512 21.82C11.0611 21.82 11.071 21.82 11.0808 21.82C11.0906 21.82 11.1005 21.82 11.1103 21.82C11.1201 21.82 11.1299 21.82 11.1397 21.82C11.1496 21.82 11.1593 21.82 11.1691 21.82C11.1789 21.82 11.1887 21.82 11.1985 21.82C11.2082 21.82 11.218 21.82 11.2277 21.82C11.2375 21.82 11.2472 21.82 11.2569 21.82C11.2666 21.82 11.2763 21.82 11.286 21.82C11.2957 21.82 11.3054 21.82 11.3151 21.82C11.3248 21.82 11.3345 21.82 11.3441 21.82C11.3538 21.82 11.3634 21.82 11.3731 21.82C11.3827 21.82 11.3923 21.82 11.4019 21.82C11.4115 21.82 11.4211 21.82 11.4307 21.82C11.4403 21.82 11.4499 21.82 11.4595 21.82C11.469 21.82 11.4786 21.82 11.4881 21.82C11.4977 21.82 11.5072 21.82 11.5167 21.82C11.5262 21.82 11.5357 21.82 11.5452 21.82C11.5547 21.82 11.5642 21.82 11.5737 21.82C11.5831 21.82 11.5926 21.82 11.602 21.82C11.6115 21.82 11.6209 21.82 11.6303 21.82C11.6397 21.82 11.6491 21.82 11.6585 21.82C11.6679 21.82 11.6773 21.82 11.6867 21.82C11.696 21.82 11.7054 21.82 11.7147 21.82C11.7241 21.82 11.7334 21.82 11.7427 21.82C11.752 21.82 11.7613 21.82 11.7706 21.82C11.7799 21.82 11.7892 21.82 11.7984 21.82C11.8077 21.82 11.8169 21.82 11.8262 21.82C11.8354 21.82 11.8446 21.82 11.8538 21.82C11.863 21.82 11.8722 21.82 11.8814 21.82C11.8906 21.82 11.8997 21.82 11.9089 21.82C11.918 21.82 11.9271 21.82 11.9363 21.82C11.9454 21.82 11.9545 21.82 11.9636 21.82C11.9727 21.82 11.9817 21.82 11.9908 21.82C11.9999 21.82 12.0089 21.82 12.0179 21.82C12.027 21.82 12.036 21.82 12.045 21.82C12.054 21.82 12.063 21.82 12.0719 21.82C12.0809 21.82 12.0898 21.82 12.0988 21.82C12.1077 21.82 12.1166 21.82 12.1256 21.82C12.1345 21.82 12.1434 21.82 12.1522 21.82C12.1611 21.82 12.17 21.82 12.1788 21.82C12.1877 21.82 12.1965 21.82 12.2053 21.82C12.2141 21.82 12.2229 21.82 12.2317 21.82C12.2405 21.82 12.2492 21.82 12.258 21.82C12.2667 21.82 12.2755 21.82 12.2842 21.82C12.2929 21.82 12.3016 21.82 12.3103 21.82C12.3189 21.82 12.3276 21.82 12.3363 21.82C12.3449 21.82 12.3535 21.82 12.3621 21.82C12.3708 21.82 12.3794 21.82 12.3879 21.82C12.3965 21.82 12.4051 21.82 12.4136 21.82C12.4222 21.82 12.4307 21.82 12.4392 21.82C12.4477 21.82 12.4562 21.82 12.4647 21.82C12.4732 21.82 12.4816 21.82 12.4901 21.82C12.4985 21.82 12.5069 21.82 12.5153 21.82C12.5237 21.82 12.5321 21.82 12.5405 21.82C12.5488 21.82 12.5572 21.82 12.5655 21.82C12.5739 21.82 12.5822 21.82 12.5905 21.82C12.5988 21.82 12.607 21.82 12.6153 21.82C12.6235 21.82 12.6318 21.82 12.64 21.82C12.6482 21.82 12.6564 21.82 12.6646 21.82C12.6728 21.82 12.6809 21.82 12.6891 21.82C12.6972 21.82 12.7054 21.82 12.7135 21.82C12.7216 21.82 12.7297 21.82 12.7377 21.82C12.7458 21.82 12.7538 21.82 12.7619 21.82C12.7699 21.82 12.7779 21.82 12.7859 21.82C12.7939 21.82 12.8018 21.82 12.8098 21.82C12.8177 21.82 12.8257 21.82 12.8336 21.82C12.8415 21.82 12.8494 21.82 12.8572 21.82C12.8651 21.82 12.873 21.82 12.8808 21.82C12.8886 21.82 12.8964 21.82 12.9042 21.82C12.912 21.82 12.9198 21.82 12.9275 21.82C12.9353 21.82 12.943 21.82 12.9507 21.82C12.9584 21.82 12.9661 21.82 12.9737 21.82C12.9814 21.82 12.989 21.82 12.9967 21.82C13.0043 21.82 13.0119 21.82 13.0195 21.82C13.027 21.82 13.0346 21.82 13.0421 21.82C13.0497 21.82 13.0572 21.82 13.0647 21.82C13.0722 21.82 13.0796 21.82 13.0871 21.82C13.0945 21.82 13.1019 21.82 13.1093 21.82C13.1168 21.82 13.1241 21.82 13.1315 21.82C13.1389 21.82 13.1462 21.82 13.1535 21.82C13.1608 21.82 13.1681 21.82 13.1754 21.82C13.1827 21.82 13.1899 21.82 13.1971 21.82C13.2044 21.82 13.2116 21.82 13.2187 21.82C13.2259 21.82 13.2331 21.82 13.2402 21.82C13.2473 21.82 13.2545 21.82 13.2615 21.82C13.2686 21.82 13.2757 21.82 13.2827 21.82C13.2898 21.82 13.2968 21.82 13.3038 21.82C13.3108 21.82 13.3178 21.82 13.3247 21.82C13.3317 21.82 13.3386 21.82 13.3455 21.82C13.3524 21.82 13.3593 21.82 13.3661 21.82C13.373 21.82 13.3798 21.82 13.3866 21.82C13.3934 21.82 13.4002 21.82 13.407 21.82C13.4137 21.82 13.4205 21.82 13.4272 21.82C13.4339 21.82 13.4406 21.82 13.4472 21.82C13.4539 21.82 13.4605 21.82 13.4671 21.82C13.4737 21.82 13.4803 21.82 13.4869 21.82C13.4934 21.82 13.5 21.82 13.5065 21.82C13.513 21.82 13.5195 21.82 13.526 21.82C13.5324 21.82 13.5388 21.82 13.5453 21.82C13.5517 21.82 13.5581 21.82 13.5644 21.82C13.5708 21.82 13.5771 21.82 13.5834 21.82C13.5897 21.82 13.596 21.82 13.6023 21.82C13.6085 21.82 13.6148 21.82 13.621 21.82C13.6272 21.82 13.6334 21.82 13.6395 21.82C13.6457 21.82 13.6518 21.82 13.6579 21.82C13.664 21.82 13.6701 21.82 13.6761 21.82C13.6822 21.82 13.6882 21.82 13.6942 21.82C13.7002 21.82 13.7061 21.82 13.7121 21.82C13.718 21.82 13.7239 21.82 13.7298 21.82C13.7357 21.82 13.7416 21.82 13.7474 21.82C13.7533 21.82 13.7591 21.82 13.7648 21.82C13.7706 21.82 13.7764 21.82 13.7821 21.82C13.7878 21.82 13.7935 21.82 13.7992 21.82C13.8049 21.82 13.8105 21.82 13.8161 21.82C13.8217 21.82 13.8273 21.82 13.8329 21.82C13.8384 21.82 13.844 21.82 13.8495 21.82C13.855 21.82 13.8605 21.82 13.8659 21.82C13.8714 21.82 13.8768 21.82 13.8822 21.82C13.8876 21.82 13.8929 21.82 13.8983 21.82C13.9036 21.82 13.9089 21.82 13.9142 21.82C13.9195 21.82 13.9247 21.82 13.9299 21.82C13.9351 21.82 13.9403 21.82 13.9455 21.82C13.9507 21.82 13.9558 21.82 13.9609 21.82C13.966 21.82 13.9711 21.82 13.9761 21.82C13.9812 21.82 13.9862 21.82 13.9912 21.82C13.9961 21.82 14.0011 21.82 14.006 21.82C14.011 21.82 14.0159 21.82 14.0207 21.82C14.0256 21.82 14.0304 21.82 14.0352 21.82C14.0401 21.82 14.0448 21.82 14.0496 21.82C14.0543 21.82 14.059 21.82 14.0637 21.82C14.0684 21.82 14.0731 21.82 14.0777 21.82C14.0823 21.82 14.0869 21.82 14.0915 21.82C14.0961 21.82 14.1006 21.82 14.1051 21.82C14.1096 21.82 14.1141 21.82 14.1185 21.82C14.123 21.82 14.1274 21.82 14.1318 21.82C14.1361 21.82 14.1405 21.82 14.1448 21.82C14.1491 21.82 14.1534 21.82 14.1577 21.82C14.1619 21.82 14.1662 21.82 14.1704 21.82C14.1745 21.82 14.1787 21.82 14.1828 21.82C14.187 21.82 14.1911 21.82 14.1951 21.82C14.1992 21.82 14.2032 21.82 14.2072 21.82C14.2112 21.82 14.2152 21.82 14.2192 21.82C14.2231 21.82 14.227 21.82 14.2309 21.82C14.2347 21.82 14.2386 21.82 14.2424 21.82C14.2462 21.82 14.25 21.82 14.2537 21.82C14.2575 21.82 14.2612 21.82 14.2649 21.82C14.2685 21.82 14.2722 21.82 14.2758 21.82C14.2794 21.82 14.283 21.82 14.2865 21.82C14.2901 21.82 14.2936 21.82 14.2971 21.82C14.3006 21.82 14.304 21.82 14.3074 21.82C14.3108 21.82 14.3142 21.82 14.3176 21.82C14.3209 21.82 14.3242 21.82 14.3275 21.82C14.3308 21.82 14.334 21.82 14.3372 21.82C14.3405 21.82 14.3436 21.82 14.3468 21.82C14.3499 21.82 14.353 21.82 14.3561 21.82C14.3592 21.82 14.3622 21.82 14.3652 21.82C14.3682 21.82 14.3712 21.82 14.3742 21.82C14.3771 21.82 14.38 21.82 14.3829 21.82C14.3857 21.82 14.3886 21.82 14.3914 21.82C14.3942 21.82 14.3969 21.82 14.3997 21.82C14.4024 21.82 14.4051 21.82 14.4077 21.82C14.4104 21.82 14.413 21.82 14.4156 21.82C14.4182 21.82 14.4208 21.82 14.4233 21.82C14.4258 21.82 14.4283 21.82 14.4307 21.82C14.4332 21.82 14.4356 21.82 14.4379 21.82C14.4403 21.82 14.4427 21.82 14.445 21.82C14.4473 21.82 14.4495 21.82 14.4518 21.82C14.454 21.82 14.4562 21.82 14.4584 21.82C14.4605 21.82 14.4626 21.82 14.4647 21.82C14.4668 21.82 14.4689 21.82 14.4709 21.82C14.4729 21.82 14.4749 21.82 14.4768 21.82C14.4787 21.82 14.4806 21.82 14.4825 21.82C14.4844 21.82 14.4862 21.82 14.488 21.82C14.4898 21.82 14.4915 21.82 14.4932 21.82C14.495 21.82 14.4966 21.82 14.4983 21.82C14.4999 21.82 14.5015 21.82 14.5031 21.82C14.5047 21.82 14.5062 21.82 14.5077 21.82C14.5092 21.82 14.5106 21.82 14.5121 21.82C14.5135 21.82 14.5148 21.82 14.5162 21.82C14.5175 21.82 14.5188 21.82 14.5201 21.82C14.5214 21.82 14.5226 21.82 14.5238 21.82C14.525 21.82 14.5261 21.82 14.5272 21.82C14.5283 21.82 14.5294 21.82 14.5304 21.82C14.5315 21.82 14.5325 21.82 14.5334 21.82C14.5344 21.82 14.5353 21.82 14.5362 21.82C14.537 21.82 14.5379 21.82 14.5387 21.82C14.5395 21.82 14.5402 21.82 14.541 21.82C14.5417 21.82 14.5424 21.82 14.543 21.82C14.5437 21.82 14.5443 21.82 14.5448 21.82C14.5454 21.82 14.5459 21.82 14.5464 21.82C14.5469 21.82 14.5473 21.82 14.5477 21.82C14.5481 21.82 14.5485 21.82 14.5488 21.82C14.5491 21.82 14.5494 21.82 14.5497 21.82C14.5499 21.82 14.5501 21.82 14.5503 21.82C14.5504 21.82 14.5506 21.82 14.5506 21.82C14.5507 21.82 14.5508 21.82 14.5508 21.82V20.82ZM4.28417 21.59C4.42352 21.3728 4.56414 21.1288 4.70299 20.8551L3.81116 20.4027C3.68708 20.6473 3.56314 20.862 3.44255 21.0499L4.28417 21.59ZM4.70301 20.855C5.76081 18.7692 6.27456 15.8499 6.27456 12.2202H5.27456C5.27456 15.7787 4.76716 18.5176 3.81114 20.4028L4.70301 20.855ZM6.27456 12.2202C6.27456 9.31931 8.6313 6.9599 11.5254 6.9599V5.9599C8.07747 5.9599 5.27456 8.76857 5.27456 12.2202H6.27456ZM11.5254 6.9599C14.4193 6.9599 16.7762 9.31917 16.7762 12.2227H17.7762C17.7762 8.76871 14.9734 5.9599 11.5254 5.9599V6.9599ZM16.7762 12.2227C16.7762 12.2369 16.7764 12.2528 16.7771 12.2699L17.7763 12.2309C17.7762 12.2295 17.7762 12.2269 17.7762 12.2227H16.7762ZM16.7767 12.2508C16.7796 15.8661 17.2933 18.775 18.3482 20.855L19.2401 20.4027C18.2868 18.523 17.7795 15.794 17.7767 12.25L16.7767 12.2508ZM18.3482 20.855C18.4871 21.1289 18.6278 21.3729 18.767 21.5899L19.6087 21.05C19.4881 20.862 19.3641 20.6473 19.2401 20.4027L18.3482 20.855ZM19.1879 20.82H14.5508V21.82H19.1879V20.82ZM11.5256 24.6384C10.513 24.6384 9.68439 23.8242 9.66032 22.8132L8.6606 22.837C8.69751 24.3874 9.96658 25.6384 11.5256 25.6384V24.6384ZM9.16046 23.3251H13.8907V22.3251H9.16046V23.3251ZM13.3909 22.8132C13.3669 23.8241 12.5383 24.6384 11.5256 24.6384V25.6384C13.0847 25.6384 14.3537 24.3874 14.3906 22.837L13.3909 22.8132ZM11.5256 24.6384H11.5256V25.6384H11.5256V24.6384ZM10.5581 3.85653C10.5581 3.38658 10.9403 3.00489 11.4075 3.00489V2.00489C10.3865 2.00489 9.55808 2.83586 9.55808 3.85653H10.5581ZM11.4075 3.00489H11.6438V2.00489H11.4075V3.00489ZM11.6438 3.00489C12.111 3.00489 12.4932 3.38658 12.4932 3.85653H13.4932C13.4932 2.83586 12.6648 2.00489 11.6438 2.00489V3.00489ZM12.4932 3.85653V5.1045H13.4932V3.85653H12.4932ZM13.0944 4.61485C12.5872 4.51001 12.0624 4.4549 11.5254 4.4549V5.4549C11.9938 5.4549 12.4508 5.50295 12.892 5.59415L13.0944 4.61485ZM11.5254 4.4549C10.9886 4.4549 10.464 4.50996 9.95698 4.61469L10.1593 5.59401C10.6003 5.50291 11.0571 5.4549 11.5254 5.4549V4.4549ZM10.5581 5.10435V3.85653H9.55813V5.10435H10.5581ZM10.0581 3.35653H10.0581V4.35653H10.0581V3.35653ZM21.5244 20.9878C21.5286 20.9905 21.0227 20.665 20.4935 19.5449L19.5893 19.9721C20.1963 21.2566 20.8251 21.726 20.98 21.8266L21.5244 20.9878ZM20.4935 19.5449C19.5015 17.4454 19.2792 14.4333 19.2792 12.2202H18.2792C18.2792 14.4477 18.495 17.6559 19.5894 19.9721L20.4935 19.5449ZM19.2792 12.2202C19.2792 12.2036 19.2789 12.1881 19.2784 12.1737L18.279 12.209C18.2792 12.2138 18.2792 12.2174 18.2792 12.2202H19.2792ZM19.2787 12.1894C19.2665 9.05188 17.3877 6.34912 14.7014 5.1366L14.29 6.04805C16.6327 7.10547 18.2681 9.46192 18.2787 12.1933L19.2787 12.1894ZM14.9957 5.59233V3.85653H13.9957V5.59233H14.9957ZM14.9957 3.85653C14.9957 2.00599 13.4933 0.499878 11.6438 0.499878V1.49988C12.9394 1.49988 13.9957 2.55672 13.9957 3.85653H14.9957ZM11.6438 0.499878H11.4074V1.49988H11.6438V0.499878ZM11.4074 0.499878C9.55794 0.499878 8.05549 2.00599 8.05549 3.85653H9.05549C9.05549 2.55672 10.1118 1.49988 11.4074 1.49988V0.499878ZM8.05549 3.85653V5.59223H9.05549V3.85653H8.05549ZM8.34981 5.13649C5.65456 6.35292 3.77197 9.06948 3.77197 12.2202H4.77197C4.77197 9.47727 6.41066 7.1088 8.76117 6.04796L8.34981 5.13649ZM3.77197 12.2202C3.77197 14.4333 3.54974 17.4453 2.5577 19.5449L3.46185 19.9721C4.55626 17.6559 4.77197 14.4477 4.77197 12.2202H3.77197ZM2.5577 19.5449C2.02855 20.6649 1.52273 20.9904 1.52669 20.9878L2.07137 21.8265C2.22618 21.7259 2.85499 21.2566 3.46186 19.9721L2.5577 19.5449ZM1.58903 20.9534C1.04491 21.2052 0.790681 21.7857 0.908752 22.3417L1.88694 22.134C1.85888 22.0018 1.91787 21.9031 2.00902 21.8609L1.58903 20.9534ZM0.908748 22.3417C1.03623 22.9422 1.58359 23.325 2.15123 23.325V22.325C2.00936 22.325 1.90702 22.2286 1.88695 22.134L0.908748 22.3417ZM2.15123 23.325H7.65792V22.325H2.15123V23.325ZM7.15797 22.8323C7.19268 25.2148 9.13659 27.1434 11.5256 27.1434V26.1434C9.68601 26.1434 8.18465 24.6565 8.15787 22.8177L7.15797 22.8323ZM11.5256 27.1434C13.9147 27.1434 15.8586 25.2148 15.8933 22.8323L14.8934 22.8177C14.8666 24.6565 13.3653 26.1434 11.5256 26.1434V27.1434ZM15.3934 23.325H20.9001V22.325H15.3934V23.325ZM20.9001 23.325C21.4676 23.325 22.0151 22.9422 22.1425 22.3417L21.1643 22.1341C21.1443 22.2286 21.0419 22.325 20.9001 22.325V23.325ZM22.1426 22.3416C22.2604 21.7857 22.0064 21.2052 21.4622 20.9534L21.0423 21.861C21.1333 21.9031 21.1924 22.0018 21.1643 22.1341L22.1426 22.3416ZM21.2522 20.9072H21.2522V21.9072H21.2522V20.9072Z" fill="black" fill-opacity="0.01"/>
</g>
</svg>
