<svg width="63" height="60" viewBox="0 0 63 60" fill="none" xmlns="http://www.w3.org/2000/svg">
<path fill-rule="evenodd" clip-rule="evenodd" d="M19.5714 0.0872215C19.0592 0.245742 18.4128 0.916555 18.2664 1.45322C18.0225 2.36801 18.2664 2.78271 19.9617 4.5147L21.4985 6.06369L13.5586 14.0282C9.19226 18.3947 5.52113 22.1636 5.41137 22.3953C5.08206 23.0539 5.20402 24.2127 5.66749 24.8713C6.41148 25.9446 7.83846 26.3105 8.94834 25.7251C9.24105 25.5787 12.5463 22.3587 17.3029 17.6019L25.1696 9.72274L26.7551 11.2961C28.048 12.589 28.4261 12.894 28.8041 12.9549C29.4384 13.0769 30.036 12.9427 30.4873 12.5647C31.2069 11.9548 31.2069 11.906 31.2069 6.49053C31.2069 1.80694 31.1947 1.5142 30.9629 1.07514C30.8288 0.806818 30.5239 0.465306 30.2677 0.318936L29.8043 0.0261976L24.8647 0.00184599C22.1449 -0.0103648 19.7666 0.0261976 19.5714 0.0872415L19.5714 0.0872215Z" fill="#FCFAFA"/>
<path fill-rule="evenodd" clip-rule="evenodd" d="M46.3788 13.2154C45.6593 13.4715 44.8786 14.1911 44.5493 14.8984L44.2566 15.5204V33.777V52.0458H52.0626H59.8686L59.8442 33.777L59.8076 15.5204L59.5515 14.9716C59.2344 14.313 58.6489 13.7032 57.9903 13.3495C57.5024 13.0812 57.3683 13.0812 52.1846 13.0569C47.7693 13.0325 46.7935 13.0691 46.3788 13.2154Z" fill="#FCFAFA"/>
<path fill-rule="evenodd" clip-rule="evenodd" d="M25.9306 23.5129C24.9915 23.7325 24.2109 24.3546 23.7352 25.2573L23.4668 25.7575L23.4303 38.8955L23.4058 52.0457H31.2119H39.0179L38.9935 38.8955L38.9569 25.7575L38.6886 25.2573C38.3227 24.5742 37.725 24.0009 37.0664 23.6959C36.5419 23.4519 36.3102 23.4397 31.4558 23.4153C28.6749 23.4031 26.1868 23.4519 25.9306 23.5129V23.5129Z" fill="#FCFAFA"/>
<path fill-rule="evenodd" clip-rule="evenodd" d="M4.36249 34.2107C3.98439 34.4059 3.5453 34.7719 3.31355 35.0646C2.54515 36.0772 2.54515 36.0406 2.54515 44.4457V52.0457H10.3512H18.1572L18.1328 44.0797C18.0962 35.1988 18.145 35.7234 17.218 34.8084C16.3277 33.9057 16.5228 33.9301 10.4609 33.8935L5.02112 33.8569L4.36249 34.2107Z" fill="#FCFAFA"/>
<path fill-rule="evenodd" clip-rule="evenodd" d="M1.145 56.1202C0.327868 56.4738 -0.135579 57.4126 0.0351597 58.3271C0.144929 58.9001 0.754724 59.5707 1.30355 59.7292C1.62065 59.8268 10.8774 59.8512 31.4765 59.8268L61.1982 59.7902L61.5275 59.5342C62.1739 59.0586 62.369 58.6685 62.369 57.9003C62.369 57.1322 62.1739 56.742 61.5275 56.2665L61.1982 56.0104L31.3545 55.9861C6.73078 55.9617 1.4499 55.9861 1.145 56.1202V56.1202Z" fill="#FCFAFA"/>
</svg>
