<svg width="60" height="56" viewBox="0 0 60 56" fill="none" xmlns="http://www.w3.org/2000/svg">
<path fill-rule="evenodd" clip-rule="evenodd" d="M48.217 7.05838C50.9533 7.58234 52.8629 10.2604 52.4205 12.9501C52.0479 15.2323 50.3246 16.9556 48.0424 17.3282C44.6773 17.8871 41.5684 14.7782 42.1273 11.4131C42.6164 8.47891 45.3527 6.52273 48.217 7.05837V7.05838ZM4.20342 0.08374C2.20068 0.47961 0.50069 2.20291 0.11644 4.25223C0.04658 4.65976 0 10.1673 0 19.8782V34.8871H5.29793H10.5959V32.0926C10.5959 29.5077 10.6192 29.2515 10.8287 28.8323C11.2246 28.0638 11.702 27.9008 13.5068 27.9008H15.0205L15.3116 27.2487C15.4746 26.8878 15.6027 26.5268 15.6027 26.457C15.6027 26.3871 15.1486 25.8748 14.6013 25.3392C14.0541 24.7919 13.5301 24.2097 13.437 24.035C13.239 23.6624 13.2274 23.0453 13.3904 22.5796C13.5534 22.1487 18.7 16.9789 19.1774 16.7693C19.6664 16.5597 20.3068 16.5597 20.7027 16.7693C20.8774 16.8625 21.4595 17.3864 22.0068 17.9337C22.5424 18.481 23.0548 18.9351 23.1246 18.9351C23.1945 18.9351 23.5554 18.807 23.9164 18.644L24.5685 18.3528V16.8392C24.5685 15.0344 24.7315 14.557 25.5 14.1611C25.9308 13.9399 26.1753 13.9282 29.8082 13.9282C33.441 13.9282 33.6856 13.9399 34.1164 14.1611C34.8849 14.557 35.0479 15.0344 35.0479 16.8392V18.3528L35.7 18.644C36.0609 18.807 36.4219 18.9351 36.4917 18.9351C36.5616 18.9351 37.0739 18.481 37.6095 17.9337C38.1568 17.3864 38.739 16.8625 38.9136 16.7693C39.3095 16.5597 39.9499 16.5597 40.439 16.7693C40.9164 16.9789 46.0629 22.1488 46.2259 22.5796C46.389 23.0453 46.3773 23.6625 46.1794 24.035C46.0862 24.2097 45.5623 24.7919 45.015 25.3392C44.4677 25.8748 44.0136 26.3871 44.0136 26.457C44.0136 26.5268 44.1417 26.8878 44.3047 27.2487L44.5958 27.9008H46.1095C47.9143 27.9008 48.3917 28.0638 48.7876 28.8323C48.9972 29.2515 49.0205 29.5077 49.0205 32.0926V34.8871H54.3184H59.6163V19.8782C59.6163 10.3536 59.5698 4.64811 59.4999 4.25223C59.2437 2.86661 58.2307 1.48099 56.9383 0.72415C55.6109 -0.04437 57.8465 0.01385 30.0411 0.00223C16.0801 -0.0094 4.48289 0.02551 4.20344 0.08374H4.20342Z" fill="#FDFFFE"/>
<path fill-rule="evenodd" clip-rule="evenodd" d="M46.4336 10.6804C45.9325 10.9363 45.5246 11.6228 45.5246 12.1812C45.5246 12.7629 45.9325 13.4261 46.4569 13.6937C46.7016 13.8216 47.0746 13.9264 47.2727 13.9264C47.8554 13.9264 48.5197 13.5192 48.7877 12.9956C48.9159 12.7513 49.0208 12.379 49.0208 12.1812C49.0208 11.5995 48.6129 10.9363 48.0885 10.6687C47.5174 10.3779 46.993 10.3779 46.4336 10.6804V10.6804Z" fill="#FDFFFE"/>
<path fill-rule="evenodd" clip-rule="evenodd" d="M28.0599 18.6449C28.0599 20.5773 27.827 20.9731 26.3832 21.4504C25.8709 21.625 24.9046 22.0208 24.2525 22.3234C22.5293 23.1499 22.2965 23.115 20.8993 21.7181L19.9679 20.7985L18.7104 22.0557L17.4646 23.3013L18.3494 24.1744C19.246 25.0591 19.5603 25.5596 19.5603 26.0951C19.5603 26.2581 19.3042 26.9333 18.9898 27.5851C18.6871 28.2371 18.2912 29.2032 18.1166 29.7155C17.6392 31.1589 17.2433 31.3918 15.3106 31.3918H14.088V33.1379V34.884H17.6974H21.3068L21.2253 34.3835C21.0856 33.6268 21.1322 31.869 21.3068 31.1589C22.0636 28.0042 24.6368 25.4316 27.827 24.6283C28.1879 24.5352 29.0495 24.4654 29.8063 24.4654C31.2384 24.4654 31.9953 24.6051 33.1247 25.0823C35.6745 26.165 37.6655 28.4932 38.3059 31.1589C38.4805 31.869 38.5271 33.6268 38.3874 34.3835L38.3059 34.884H41.9152H45.5246V33.1379V31.3918H44.3021C42.3693 31.3918 41.9735 31.1589 41.4961 29.7155C41.3214 29.2032 40.9256 28.2371 40.6229 27.5851C40.3085 26.9333 40.0523 26.2581 40.0523 26.0951C40.0523 25.5596 40.3667 25.0591 41.2632 24.1744L42.1481 23.3013L40.9023 22.0557L39.6448 20.7985L38.7134 21.7181C37.3162 23.115 37.0833 23.1499 35.3601 22.3234C34.7081 22.0208 33.7417 21.625 33.2294 21.4504C31.7857 20.9731 31.5528 20.5773 31.5528 18.6449V17.4226H29.8063H28.0599L28.0599 18.6449Z" fill="#FDFFFE"/>
<path fill-rule="evenodd" clip-rule="evenodd" d="M28.7685 28.0317C26.0553 28.567 24.1222 31.4413 24.6928 34.0712L24.8558 34.8277H29.805H34.7541L34.9171 34.0712C35.3829 31.9184 34.1369 29.4282 32.1107 28.4856C30.9578 27.9503 29.9214 27.799 28.7685 28.0317H28.7685Z" fill="#FDFFFE"/>
<path fill-rule="evenodd" clip-rule="evenodd" d="M0 39.416C0 39.9746 0.0582164 40.7193 0.116433 41.0684C0.512298 43.1631 2.21219 44.862 4.31959 45.246C4.73875 45.3275 13.4129 45.3508 30.1556 45.3392C57.8196 45.3042 55.6074 45.3624 56.9347 44.5944C58.2271 43.838 59.2401 42.4532 59.4962 41.0684C59.5544 40.731 59.6126 39.9746 59.6126 39.416V38.3803H29.8063H0V39.416Z" fill="#FDFFFE"/>
<path fill-rule="evenodd" clip-rule="evenodd" d="M18.6618 50.5699L18.0796 52.2923L14.947 52.3505C12.2453 52.397 11.7679 52.4319 11.4418 52.6181C10.9993 52.8509 10.5917 53.5724 10.5917 54.0961C10.5917 54.678 10.9993 55.3413 11.5233 55.609C11.9775 55.8418 12.1755 55.8418 29.8063 55.8418C47.4371 55.8418 47.6351 55.8418 48.0892 55.609C48.6133 55.3413 49.0209 54.678 49.0209 54.0961C49.0209 53.5724 48.6133 52.8509 48.1708 52.6181C47.8447 52.4319 47.3672 52.397 44.6655 52.3505L41.533 52.2923L40.9507 50.5699L40.3801 48.8592H29.8063H19.2324L18.6618 50.5699Z" fill="#FDFFFE"/>
</svg>
