<svg width="46" height="46" viewBox="0 0 46 46" fill="none" xmlns="http://www.w3.org/2000/svg">
<path fill-rule="evenodd" clip-rule="evenodd" d="M0.142869 0.142857C0.062515 0.214301 1.99984e-05 0.330397 1.99984e-05 0.3929C1.99984e-05 0.455403 0.5 2.4824 1.10713 4.89334C2.2946 9.59024 2.5178 10.2332 3.38385 11.5101C3.80348 12.1262 5.32129 13.7514 5.482 13.7514C5.53557 13.7514 7.4373 11.894 9.71402 9.61699L13.8478 5.48266L12.955 4.62547C11.6961 3.41101 10.5711 2.69666 9.23189 2.24128C8.66047 2.05377 0.571435 -1.00005e-05 0.392869 -1.00005e-05C0.330374 -1.00005e-05 0.214303 0.0624932 0.142879 0.142847L0.142869 0.142857Z" fill="white"/>
<path fill-rule="evenodd" clip-rule="evenodd" d="M35.5667 0.127104C35.3614 0.189604 35.0132 0.350343 34.8078 0.475312C34.5935 0.600312 26.8347 8.30603 17.4508 17.6993C-1.59359 36.7627 0.0492553 34.9947 0.0581848 36.4323C0.0671143 37.7181 -0.0132408 37.6109 3.99564 41.6289C8.0581 45.6916 8.01345 45.6648 9.29023 45.6738C10.4241 45.6738 10.8973 45.4148 12.2813 44.0308L13.3438 42.9504L11.9509 41.5486C11.1831 40.7718 10.5134 40.0217 10.4599 39.8878C10.0313 38.7628 11.0849 37.7091 12.2098 38.1377C12.3438 38.1913 13.0938 38.861 13.8705 39.6289L15.2723 41.0218L16.2991 40.0039L17.3259 38.977L14.8795 36.5216C12.7545 34.3965 12.4241 34.0215 12.3706 33.7268C12.2366 33.0036 12.5402 32.4321 13.1741 32.191C13.9687 31.8874 13.9687 31.8874 16.7277 34.6286L19.2008 37.1019L20.2544 36.0483L21.299 35.0036L19.8437 33.5482C18.6741 32.3785 18.3705 32.0214 18.308 31.7624C18.0937 30.7981 18.9062 29.9498 19.8883 30.1373C20.174 30.191 20.4508 30.4231 21.7008 31.6642L23.1829 33.1286L24.2008 32.1017L25.2276 31.0749L22.8972 28.7266C21.6115 27.4408 20.4954 26.289 20.4151 26.1639C20.2187 25.8604 20.2276 25.1193 20.4419 24.7889C20.7008 24.396 21.0669 24.1996 21.549 24.1996C21.7901 24.1996 22.0669 24.2442 22.174 24.2978C22.2812 24.3514 23.4419 25.4675 24.7633 26.7711L27.1472 29.1552L28.1472 28.1552L29.1561 27.1462L27.7543 25.7443C26.9865 24.9675 26.3168 24.2175 26.2633 24.0835C25.8347 22.9585 26.8882 21.9048 28.0132 22.3334C28.1472 22.387 28.8972 23.0567 29.6739 23.8246L31.0757 25.2175L32.1025 24.1996L33.1293 23.1728L30.7275 20.7619C29.3972 19.4405 28.2722 18.235 28.2186 18.1011C27.9686 17.4136 28.2811 16.6724 28.9418 16.3957C29.7543 16.0653 29.7543 16.0564 32.5311 18.8244L35.0042 21.2977L36.0578 20.244L37.1024 19.1994L35.6471 17.744C34.4775 16.5743 34.1739 16.2171 34.1114 15.9582C33.8971 14.9938 34.7096 14.1456 35.6917 14.3331C35.9774 14.3867 36.2542 14.6188 37.5042 15.86L38.9863 17.3243L40.0042 16.2975L41.031 15.2706L38.7006 12.9223C37.4149 11.6366 36.2989 10.4847 36.2185 10.3597C36.0221 10.0561 36.031 9.31503 36.2453 8.98465C36.5042 8.59178 36.8703 8.39534 37.3524 8.39534C37.5935 8.39534 37.8703 8.44002 37.9774 8.49358C38.0846 8.54713 39.2453 9.66325 40.5578 10.9669L42.9506 13.3509L44.022 12.2794C45.4148 10.8955 45.6738 10.4222 45.6738 9.28822C45.6648 8.01141 45.6916 8.05605 41.6292 3.99339C38.7096 1.08251 38.0042 0.421783 37.6381 0.269983C37.0757 0.0288945 36.0757 -0.0425452 35.5667 0.127134L35.5667 0.127104Z" fill="white"/>
<path fill-rule="evenodd" clip-rule="evenodd" d="M11.5363 11.5454L7.41216 15.6697L9.42065 17.6783L11.4291 19.6869L15.6068 15.5091L19.7755 11.3223L17.767 9.3672C16.6601 8.29593 15.7407 7.41218 15.7139 7.41218C15.6871 7.41218 13.8125 9.26899 11.5362 11.5454H11.5363Z" fill="white"/>
<path fill-rule="evenodd" clip-rule="evenodd" d="M30.178 30.2258L26.0261 34.3762L28.4815 36.8307C29.8297 38.1785 30.9726 39.2853 31.0262 39.2853C31.1423 39.2853 39.2853 31.1451 39.2853 31.0291C39.2853 30.9398 34.4637 26.0754 34.3745 26.0754C34.3477 26.0754 32.4637 27.9408 30.178 30.2258V30.2258Z" fill="white"/>
<path fill-rule="evenodd" clip-rule="evenodd" d="M37.0586 37.0997L32.9068 41.2622L34.5586 42.8879C36.3354 44.6476 36.8354 45.0138 37.9962 45.4158C38.6301 45.6391 38.8354 45.6659 39.8265 45.6659C40.7997 45.6659 41.0408 45.6302 41.6748 45.4247C43.4337 44.8441 44.7819 43.4774 45.4159 41.6552C45.6391 41.021 45.6659 40.8156 45.6659 39.824C45.6659 38.8326 45.6391 38.6271 45.4159 37.9929C45.0141 36.8228 44.648 36.3315 42.9158 34.5718C42.0319 33.6785 41.2908 32.9461 41.264 32.9461C41.2283 32.9461 39.3444 34.813 37.0586 37.0997L37.0586 37.0997Z" fill="white"/>
</svg>
