<svg width="47" height="47" viewBox="0 0 47 47" fill="none" xmlns="http://www.w3.org/2000/svg">
<path fill-rule="evenodd" clip-rule="evenodd" d="M21.2686 0.0509043C18.4324 0.314536 15.4326 1.15088 13.0419 2.34176C11.9692 2.87809 10.4511 3.79621 10.4511 3.90531C10.4511 4.04165 14.969 17.9683 15.0327 18.0229C15.1054 18.0956 14.9327 18.2229 25.4775 10.5505L35.3587 3.36895L35.0133 3.15987C34.3861 2.76898 32.868 2.02356 31.8589 1.62357C30.159 0.941798 28.0864 0.405404 26.132 0.141802C25.123 0.00545569 22.3141 -0.0490827 21.2687 0.0508943L21.2686 0.0509043Z" fill="#FEFEFF"/>
<path fill-rule="evenodd" clip-rule="evenodd" d="M31.6749 9.4067C28.3746 11.8066 25.6743 13.7975 25.6835 13.8339C25.6925 13.8793 30.2293 17.2066 35.7754 21.2338C42.3851 26.0428 45.8763 28.5247 45.9218 28.461C45.9582 28.3974 46.0672 27.8883 46.1673 27.3156C47.5947 19.2702 44.7308 11.143 38.5483 5.72487C38.1301 5.35219 37.7664 5.05214 37.7301 5.05214C37.7028 5.05214 34.9753 7.01576 31.6749 9.40669V9.4067Z" fill="#FEFEFF"/>
<path fill-rule="evenodd" clip-rule="evenodd" d="M7.07064 6.56658C5.14289 8.44822 3.56068 10.6389 2.40585 13.0023C1.56019 14.7112 1.16009 15.8202 0.723618 17.5473C-0.212974 21.2742 -0.240261 24.9102 0.641777 28.6553L0.841828 29.5007H8.33458C12.4447 29.5007 15.8183 29.4734 15.8183 29.4279C15.8273 29.2371 8.12545 5.68486 8.0527 5.68486C8.00724 5.68486 7.56167 6.08481 7.07064 6.56659V6.56658Z" fill="#FEFEFF"/>
<path fill-rule="evenodd" clip-rule="evenodd" d="M32.2327 24.7096C31.8509 25.8733 30.1149 31.2277 28.3698 36.6004C26.6246 41.9731 25.2067 46.3912 25.234 46.4094C25.2522 46.4367 25.6703 46.4003 26.1611 46.3367C29.7786 45.873 33.3052 44.5367 36.341 42.4912C38.8042 40.8276 41.3674 38.164 43.0125 35.5459C43.576 34.6459 44.7031 32.4095 44.9394 31.7368L45.0667 31.355L39.0769 27.0005C35.7866 24.6005 33.0508 22.6369 33.0053 22.6188C32.9507 22.6005 32.6054 23.546 32.2327 24.7096L32.2327 24.7096Z" fill="#FEFEFF"/>
<path fill-rule="evenodd" clip-rule="evenodd" d="M1.90036 32.4533C2.10036 32.9623 3.11856 34.8891 3.5822 35.6254C4.83676 37.6158 6.84588 39.8699 8.68227 41.3514C12.3187 44.2871 17.4006 46.2776 21.6733 46.4321L22.3006 46.4594L24.6007 39.37C25.8734 35.4708 26.9098 32.2715 26.9098 32.2533C26.9098 32.2443 21.2642 32.2352 14.3642 32.2352H1.81854L1.90036 32.4533Z" fill="#FEFEFF"/>
</svg>
