<svg width="505" height="313" viewBox="0 0 505 313" fill="none" xmlns="http://www.w3.org/2000/svg">
<path opacity="0.3" fill-rule="evenodd" clip-rule="evenodd" d="M47.2461 281.037C40.9837 267.449 36.797 247.812 41.2027 220.598C60.2442 240.535 67.914 259.092 70.4465 273.836C74.5889 262.801 82.6827 250.007 97.9297 237.109C100.885 291.472 70.0339 309.729 70.0339 309.729C70.0339 309.729 32.142 312.809 3.79558 266.326C23.666 268.324 37.5818 274.287 47.2461 281.037L47.2461 281.037Z" fill="#FFAAA3" stroke="black" stroke-opacity="0.01"/>
<path fill-rule="evenodd" clip-rule="evenodd" d="M66.5633 310.62C64.2902 310.734 28.4291 311.859 1.38304 268.252C18.2359 270.073 32.4538 274.959 43.6531 282.781C43.8278 282.903 44.0646 282.894 44.229 282.756C44.3923 282.618 44.4442 282.388 44.3555 282.193C36.729 265.648 34.6585 245.728 38.1997 222.976C54.0008 239.723 63.5726 257.313 66.6556 275.271C66.6924 275.483 66.8645 275.643 67.0784 275.664C67.2897 275.673 67.4922 275.559 67.5669 275.359C72.3699 262.568 81.3215 250.491 94.1815 239.449C96.6026 290.655 68.4199 309.444 66.5633 310.62ZM65.4685 311.592C66.2672 311.592 66.7101 311.561 66.7505 311.559C66.8215 311.553 66.8911 311.531 66.9543 311.493C67.2644 311.311 98.0188 292.465 95.0801 238.437C95.0712 238.257 94.961 238.098 94.7953 238.026C94.6283 237.956 94.4383 237.984 94.3004 238.1C81.4545 248.968 72.3737 260.855 67.2884 273.458C63.8346 255.635 54.0629 238.207 38.225 221.623C38.1009 221.493 37.9162 221.447 37.7415 221.498C37.5694 221.551 37.4415 221.698 37.4137 221.876C33.7472 244.513 35.5633 264.414 42.8065 281.056C31.4792 273.549 17.2652 268.891 0.521168 267.208C0.357838 267.198 0.169298 267.275 0.0731076 267.427C-0.0230824 267.58 -0.0243624 267.773 0.0693276 267.927C25.3207 309.335 58.5697 311.592 65.4685 311.592V311.592Z" fill="#648ACC"/>
<path fill-rule="evenodd" clip-rule="evenodd" d="M113.601 284.82H329.655V247.356H113.601C106.482 263.157 106.482 269.018 113.601 284.82Z" fill="#F2F2F2"/>
<path fill-rule="evenodd" clip-rule="evenodd" d="M118.875 279.56V252.606H329.654V279.56H118.875Z" fill="white"/>
<path fill-rule="evenodd" clip-rule="evenodd" d="M218.827 279.56V252.606H329.654V279.56H218.827Z" fill="#D9E4F4" stroke="#648ACC"/>
<path fill-rule="evenodd" clip-rule="evenodd" d="M113.608 285.289H329.65C329.912 285.289 330.124 285.076 330.124 284.814C330.124 284.552 329.912 284.34 329.65 284.34H113.914C107.057 269.053 107.057 263.125 113.914 247.838H329.65C329.912 247.838 330.124 247.625 330.124 247.363C330.124 247.1 329.912 246.889 329.65 246.889H113.608C113.422 246.889 113.252 246.998 113.175 247.167C106.003 263.081 106.003 269.095 113.175 285.011C113.252 285.179 113.422 285.289 113.608 285.289Z" fill="#648ACC"/>
<path fill-rule="evenodd" clip-rule="evenodd" d="M97.4137 247.356H313.458V199.964H97.4137C90.2948 215.761 90.2948 231.558 97.4137 247.356Z" fill="#FEC655"/>
<path fill-rule="evenodd" clip-rule="evenodd" d="M102.678 242.107V205.213H313.457V242.107H102.678Z" fill="white"/>
<path fill-rule="evenodd" clip-rule="evenodd" d="M202.63 242.107V205.213H313.457V242.107H202.63Z" fill="#D9E4F4" stroke="#648ACC"/>
<path fill-rule="evenodd" clip-rule="evenodd" d="M97.4129 247.837H313.463C313.725 247.837 313.937 247.625 313.937 247.363C313.937 247.099 313.725 246.888 313.463 246.888H97.7205C90.8596 231.473 90.8596 215.847 97.7205 200.434H313.463C313.725 200.434 313.937 200.221 313.937 199.959C313.937 199.697 313.725 199.485 313.463 199.485H97.4129C97.2269 199.485 97.0573 199.595 96.9801 199.764C89.8369 215.619 89.8369 231.7 96.9801 247.558C97.0573 247.727 97.2269 247.837 97.4129 247.837V247.837Z" fill="#648ACC"/>
<path fill-rule="evenodd" clip-rule="evenodd" d="M114.341 257.232L120.403 251.946L126.464 257.232V223.66H114.341V257.232Z" fill="white"/>
<path fill-rule="evenodd" clip-rule="evenodd" d="M120.404 251.471C120.293 251.471 120.181 251.51 120.091 251.587L114.82 256.187V224.135H125.988V256.187L120.716 251.587C120.627 251.51 120.515 251.471 120.404 251.471H120.404ZM126.462 257.705C126.528 257.705 126.595 257.692 126.659 257.664C126.828 257.586 126.937 257.418 126.937 257.231V223.66C126.937 223.399 126.724 223.186 126.462 223.186H114.345C114.083 223.186 113.871 223.399 113.871 223.66V257.231C113.871 257.418 113.98 257.586 114.149 257.664C114.318 257.741 114.516 257.713 114.657 257.589L120.404 252.575L126.15 257.589C126.238 257.666 126.35 257.705 126.462 257.705V257.705Z" fill="#4D86D7"/>
<path fill-rule="evenodd" clip-rule="evenodd" d="M297.658 284.82H81.6106V311.137H297.658C302.051 302.364 302.051 293.592 297.658 284.82Z" fill="#FEC655"/>
<path fill-rule="evenodd" clip-rule="evenodd" d="M81.6105 305.886V290.069H192.438V305.886H81.6105Z" fill="white"/>
<path fill-rule="evenodd" clip-rule="evenodd" d="M81.6105 305.886V290.069H192.438V305.886H81.6105Z" fill="white"/>
<path fill-rule="evenodd" clip-rule="evenodd" d="M81.6061 311.616H297.66C297.84 311.616 298.004 311.514 298.085 311.354C302.528 302.477 302.528 293.478 298.085 284.602C298.004 284.442 297.84 284.34 297.66 284.34H81.6061C81.3441 284.34 81.1315 284.553 81.1315 284.815C81.1315 285.077 81.3441 285.29 81.6061 285.29H297.365C301.495 293.711 301.495 302.246 297.365 310.667H81.6061C81.3441 310.667 81.1315 310.879 81.1315 311.141C81.1315 311.403 81.3441 311.616 81.6061 311.616V311.616Z" fill="#648ACC"/>
<path fill-rule="evenodd" clip-rule="evenodd" d="M197.61 311.616C197.791 311.616 197.964 311.511 198.043 311.334C201.86 302.76 201.861 293.775 198.048 284.631C197.946 284.388 197.669 284.269 197.426 284.377C197.184 284.477 197.07 284.754 197.17 284.997C200.881 293.89 200.882 302.621 197.175 310.949C197.069 311.188 197.177 311.469 197.416 311.575C197.479 311.602 197.544 311.616 197.61 311.616V311.616Z" fill="#060042" stroke="#648ACC"/>
<path fill-rule="evenodd" clip-rule="evenodd" d="M93.197 199.964V194.899H195.955V199.964H93.197Z" fill="#F2F2F2"/>
<path fill-rule="evenodd" clip-rule="evenodd" d="M298.237 199.487H93.6686V195.369H298.237V199.487ZM93.194 200.437H298.712C298.974 200.437 299.186 200.224 299.186 199.962V194.895C299.186 194.633 298.974 194.42 298.712 194.42H93.194C92.9321 194.42 92.7195 194.633 92.7195 194.895V199.962C92.7195 200.224 92.9321 200.437 93.194 200.437Z" fill="#648ACC"/>
<path fill-rule="evenodd" clip-rule="evenodd" d="M195.775 100.902H65.0369L93.1923 194.899H223.93L195.775 100.902Z" fill="#FEC655"/>
<path fill-rule="evenodd" clip-rule="evenodd" d="M192.502 105.38H70.9959L96.465 190.411H217.971L192.502 105.38Z" fill="white"/>
<path fill-rule="evenodd" clip-rule="evenodd" d="M223.293 194.42H93.5472L65.6771 101.376H195.421L223.293 194.42ZM93.1941 195.369H223.93C224.081 195.369 224.222 195.299 224.311 195.178C224.4 195.058 224.428 194.902 224.385 194.759L196.23 100.765C196.169 100.565 195.984 100.427 195.776 100.427H65.0392C64.8899 100.427 64.7469 100.498 64.6583 100.618C64.5697 100.738 64.5406 100.894 64.5849 101.037L92.7397 195.031C92.8004 195.232 92.9839 195.369 93.1941 195.369H93.1941Z" fill="#648ACC"/>
<path fill-rule="evenodd" clip-rule="evenodd" d="M136.965 123.274C148.795 123.274 161.304 132.904 164.85 144.741C166.605 150.596 165.917 156.04 162.918 160.071C160.102 163.854 155.525 165.939 150.03 165.939C138.202 165.939 125.692 156.307 122.146 144.47C120.392 138.615 121.078 133.171 124.079 129.14C126.893 125.357 131.471 123.274 136.965 123.274H136.965ZM150.03 166.888C155.833 166.888 160.68 164.668 163.68 160.638C166.863 156.36 167.602 150.618 165.759 144.47C162.101 132.258 149.185 122.324 136.965 122.324C131.164 122.324 126.316 124.543 123.317 128.573C120.134 132.85 119.395 138.593 121.236 144.741C124.895 156.953 137.812 166.888 150.03 166.888Z" fill="#648ACC"/>
<path fill-rule="evenodd" clip-rule="evenodd" d="M130.981 144.606L147.905 132.788L154.982 156.423L130.981 144.606L147.905 132.788L154.982 156.423L130.981 144.606Z" fill="#FD4637"/>
<path fill-rule="evenodd" clip-rule="evenodd" d="M99.6476 183.631H210.445C210.707 183.631 210.92 183.419 210.92 183.157C210.92 182.895 210.707 182.683 210.445 182.683H99.6476C99.3856 182.683 99.173 182.895 99.173 183.157C99.173 183.419 99.3856 183.631 99.6476 183.631Z" fill="#648ACC"/>
<path fill-rule="evenodd" clip-rule="evenodd" d="M174.724 185.89H177.673L176.052 180.489H173.103L174.724 185.89Z" fill="#FD4637"/>
<path fill-rule="evenodd" clip-rule="evenodd" d="M302.667 25.6039H126.464L163.541 148.914H339.743L302.667 25.6039Z" fill="#D9E4F4" stroke="#648ACC"/>
<path fill-rule="evenodd" clip-rule="evenodd" d="M143.404 72.4831H247.402L227.391 5.93352H123.393L143.404 72.4831Z" fill="#F2F2F2"/>
<path fill-rule="evenodd" clip-rule="evenodd" d="M249.148 66.7961H147.401L128.053 2.4536H229.801L249.148 66.7961ZM147.047 67.7452H249.787C249.937 67.7452 250.078 67.6731 250.167 67.5529C250.257 67.4326 250.285 67.277 250.24 67.134L230.608 1.8423C230.547 1.64233 230.363 1.50439 230.154 1.50439H127.414C127.263 1.50439 127.123 1.57525 127.033 1.69676C126.945 1.81698 126.917 1.97267 126.96 2.11567L146.593 67.4061C146.653 67.6073 146.837 67.7452 147.047 67.7452V67.7452Z" fill="#648ACC"/>
<g opacity="0.3">
<path fill-rule="evenodd" clip-rule="evenodd" d="M142.04 31.2339H229.539L228.705 28.455H141.206L142.04 31.2339Z" fill="#FFAAA3"/>
<path fill-rule="evenodd" clip-rule="evenodd" d="M144.458 39.294H231.966L231.132 36.515H143.623L144.458 39.294Z" fill="#FFAAA3"/>
<path fill-rule="evenodd" clip-rule="evenodd" d="M146.885 47.3541H234.383L233.549 44.5751H146.051L146.885 47.3541Z" fill="#FFAAA3"/>
<path fill-rule="evenodd" clip-rule="evenodd" d="M149.312 55.4142H236.811L235.976 52.6353H148.478L149.312 55.4142Z" fill="#FFAAA3"/>
</g>
<path fill-rule="evenodd" clip-rule="evenodd" d="M239.069 173.39H299.459L281.3 113.007H220.91L239.069 173.39Z" fill="#F2F2F2"/>
<path fill-rule="evenodd" clip-rule="evenodd" d="M300.981 168.187H242.728L225.199 109.891H283.451L300.981 168.187ZM242.376 169.136H301.619C301.77 169.136 301.91 169.065 302 168.945C302.09 168.825 302.116 168.669 302.073 168.523L284.259 109.28C284.199 109.08 284.014 108.942 283.804 108.942H224.56C224.41 108.942 224.269 109.013 224.18 109.135C224.09 109.255 224.062 109.41 224.107 109.553L241.921 168.798C241.981 168.998 242.166 169.136 242.376 169.136L242.376 169.136Z" fill="#648ACC"/>
<g opacity="0.3">
<path fill-rule="evenodd" clip-rule="evenodd" d="M237.831 135.962H283.244L282.487 133.446H237.074L237.831 135.962Z" fill="#FFAAA3" stroke="black" stroke-opacity="0.01"/>
<path fill-rule="evenodd" clip-rule="evenodd" d="M240.03 143.279H285.443L284.686 140.754H239.273L240.03 143.279Z" fill="#FFAAA3" stroke="black" stroke-opacity="0.01"/>
<path fill-rule="evenodd" clip-rule="evenodd" d="M242.228 150.586H287.641L286.884 148.071H241.471L242.228 150.586Z" fill="#FFAAA3" stroke="black" stroke-opacity="0.01"/>
<path fill-rule="evenodd" clip-rule="evenodd" d="M244.426 157.903H289.849L289.092 155.388H243.669L244.426 157.903Z" fill="#FFAAA3" stroke="black" stroke-opacity="0.01"/>
</g>
<path fill-rule="evenodd" clip-rule="evenodd" d="M52.4642 88.3582C73.7347 85.8433 90.8792 76.0827 103.896 59.0724L87.3746 30.0549L35.9424 59.3394L52.4642 88.3582Z" fill="#D9E4F4" stroke="#648ACC"/>
<path fill-rule="evenodd" clip-rule="evenodd" d="M12.0027 75.9308L73.0902 64.7625L113.871 17.9343L52.7839 29.1028L12.0027 75.9308Z" fill="#FEC655"/>
<path fill-rule="evenodd" clip-rule="evenodd" d="M54.8307 51.5493C55.7056 53.0867 60.0445 52.2661 64.5215 49.7168C68.9998 47.1662 71.9194 43.8533 71.0433 42.3158C70.1684 40.7784 65.8295 41.599 61.3525 44.1483C56.8755 46.6989 53.9546 50.0119 54.8307 51.5493H54.8307Z" fill="white"/>
<path fill-rule="evenodd" clip-rule="evenodd" d="M46.946 97.3526C46.9738 97.3526 47.0004 97.3501 47.0295 97.345C47.2876 97.2994 47.4585 97.0539 47.4129 96.7957L42.7586 70.5473L63.2933 47.2478C63.4666 47.0504 63.4476 46.7504 63.2515 46.577C63.0541 46.4049 62.7541 46.4226 62.582 46.62L41.8955 70.0916C41.8006 70.2005 41.7588 70.3461 41.7841 70.4878L46.479 96.9615C46.5195 97.1906 46.7194 97.3526 46.946 97.3526L46.946 97.3526Z" fill="#060042"/>
<path fill-rule="evenodd" clip-rule="evenodd" d="M70.1848 59.6639L10.5935 70.5596L50.3755 24.8748L109.967 13.9779L70.1848 59.6639ZM9.34558 71.7455C9.37469 71.7455 9.40256 71.743 9.43042 71.7366L70.5189 60.5676C70.6252 60.5486 70.7202 60.4942 70.7923 60.4132L111.574 13.5793C111.706 13.4274 111.727 13.2084 111.629 13.0325C111.527 12.8566 111.329 12.7617 111.13 12.8009L50.0414 23.9712C49.9351 23.9901 49.8401 24.0446 49.7692 24.1256L8.98745 70.9596C8.85452 71.1114 8.83425 71.3304 8.93301 71.505C9.01779 71.6556 9.1773 71.7455 9.34558 71.7455V71.7455Z" fill="#648ACC"/>
<path fill-rule="evenodd" clip-rule="evenodd" d="M275.087 39.4202C278.461 23.8642 294.265 14.2069 309.821 18.6097C323.474 22.4747 332.092 36.3994 329.501 50.3507C327.878 59.0917 322.359 66.0472 315.114 69.8526C311.004 72.0116 307.84 75.6234 305.995 79.8845L304.809 82.6244L284.387 78.1963L284.442 75.2096C284.528 70.5639 283.139 65.9674 280.291 62.2948C275.438 56.038 273.278 47.7664 275.087 39.4202L275.087 39.4202Z" fill="#FEC655"/>
<path fill-rule="evenodd" clip-rule="evenodd" d="M297.968 83.2805C298.221 83.2805 298.461 83.1287 298.558 82.8794L313.219 45.4C313.347 45.0747 313.186 44.7078 312.861 44.58C312.537 44.4534 312.168 44.6142 312.041 44.9394L297.379 82.4175C297.252 82.744 297.411 83.1109 297.738 83.2375C297.813 83.2679 297.891 83.2805 297.968 83.2805L297.968 83.2805Z" fill="white"/>
<path fill-rule="evenodd" clip-rule="evenodd" d="M290.613 81.6812C290.947 81.6812 291.225 81.4193 291.244 81.0826L293.42 40.8968C293.439 40.5475 293.172 40.2489 292.824 40.2311C292.494 40.1843 292.178 40.4792 292.159 40.8284L289.981 81.0143C289.962 81.3623 290.23 81.661 290.579 81.68L290.613 81.6812Z" fill="white"/>
<path fill-rule="evenodd" clip-rule="evenodd" d="M297.25 91.3995L296.847 93.2569C296.402 95.3104 294.377 96.6142 292.323 96.169L290.138 95.6953C288.085 95.2501 286.781 93.2246 287.226 91.1713L287.629 89.3137L297.25 91.3995Z" fill="#FD4637"/>
<path fill-rule="evenodd" clip-rule="evenodd" d="M305.036 82.6783C305.626 82.8062 306.001 83.3879 305.873 83.9776L304.742 89.1925C304.614 89.7822 304.032 90.1565 303.443 90.0286L282.563 85.5008C281.973 85.3729 281.599 84.7912 281.727 84.2016L282.857 78.9868C282.985 78.3971 283.567 78.0227 284.157 78.1506L305.036 82.6783Z" fill="#FD4637"/>
<path fill-rule="evenodd" clip-rule="evenodd" d="M302.059 88.7307C302.649 88.8586 303.023 89.4403 302.895 90.03L301.984 94.2303C301.856 94.82 301.275 95.1944 300.685 95.0665L282.99 91.2293C282.4 91.1014 282.026 90.5197 282.154 89.93L283.065 85.7297C283.192 85.14 283.774 84.7656 284.364 84.8935L302.059 88.7307Z" fill="#FD4637"/>
<path fill-rule="evenodd" clip-rule="evenodd" d="M295.222 89.7349C295.066 89.7349 294.917 89.8134 294.827 89.9475C293.904 91.3296 292.267 92.0003 290.645 91.6473L289.792 91.4624C288.176 91.1119 286.959 89.8248 286.69 88.182C286.659 87.9896 286.513 87.8365 286.323 87.7947L282.163 86.8923C281.951 86.8468 281.768 86.7202 281.651 86.538C281.533 86.3544 281.494 86.1368 281.539 85.9241L282.367 82.1096C282.372 82.0881 282.397 82.0387 282.42 81.9969C282.49 81.8666 282.51 81.6806 282.447 81.5451C282.384 81.4097 282.277 81.2819 282.133 81.2502L281.739 81.1654C281.527 81.1199 281.346 80.9933 281.227 80.8111C281.11 80.6275 281.07 80.4098 281.117 80.1985L282.165 75.3664C282.21 75.1551 282.335 74.9728 282.519 74.8551C282.702 74.7374 282.921 74.6956 283.131 74.7437C283.273 74.7716 283.435 74.7437 283.547 74.6564C283.658 74.5691 283.743 74.44 283.745 74.297L283.801 71.3101C283.891 66.4375 282.381 61.7446 279.551 58.0946C274.587 51.6994 272.723 43.5046 274.434 35.611C276.047 28.173 280.531 21.9196 287.057 18C293.582 14.0842 301.223 13.0717 308.578 15.1549L308.707 14.698L308.578 15.1549C321.971 18.9467 330.469 32.652 327.924 46.3548C326.388 54.623 321.234 61.6105 313.782 65.525C309.699 67.669 306.383 71.3139 304.447 75.7891L303.26 78.5292C303.204 78.6608 303.209 78.8089 303.274 78.9354C303.34 79.062 303.458 79.1531 303.598 79.1822C304.072 79.2847 304.351 79.7189 304.256 80.158L303.209 84.9889C303.162 85.2015 303.037 85.3824 302.854 85.5001C302.671 85.6179 302.454 85.6584 302.241 85.6115L301.847 85.5255C301.702 85.4964 301.554 85.5331 301.442 85.6267C301.33 85.7216 301.266 85.8622 301.273 86.009C301.28 86.1355 301.284 86.1899 301.279 86.2102L300.451 90.026C300.406 90.2373 300.279 90.4208 300.097 90.5373C299.914 90.655 299.695 90.6955 299.483 90.6487L295.323 89.7462C295.29 89.7387 295.256 89.7349 295.222 89.7349L295.222 89.7349ZM291.505 92.6889C293.031 92.6889 294.478 91.9827 295.427 90.7398L299.282 91.5764C300.236 91.7852 301.173 91.1764 301.379 90.2272L302.174 86.5633C302.59 86.6215 303.009 86.5303 303.367 86.2988C303.764 86.0443 304.037 85.6495 304.137 85.1901L305.185 80.3592C305.284 79.8986 305.199 79.4265 304.944 79.0316C304.786 78.7861 304.576 78.5886 304.329 78.4494L305.318 76.165C307.169 71.8885 310.331 68.4081 314.223 66.3654C321.934 62.3154 327.268 55.085 328.857 46.5281C331.491 32.347 322.696 18.1658 308.836 14.2424C301.225 12.0884 293.32 13.135 286.57 17.1862C279.912 21.183 275.152 27.825 273.507 35.4098C271.736 43.5781 273.665 52.0589 278.801 58.678C281.499 62.156 282.937 66.6362 282.852 71.2937L282.805 73.7844C282.518 73.8084 282.248 73.9008 282.005 74.0565C281.609 74.3122 281.336 74.7058 281.236 75.1651L280.189 79.9973C280.089 80.4567 280.174 80.9287 280.429 81.3249C280.66 81.6818 281.003 81.94 281.406 82.0602L280.612 85.7229C280.512 86.1836 280.598 86.6557 280.852 87.0505C281.108 87.4467 281.501 87.7201 281.961 87.82L285.817 88.6566C286.247 90.531 287.698 91.9801 289.591 92.3902L290.444 92.5749C290.799 92.6521 291.154 92.6889 291.505 92.6889H291.505Z" fill="#648ACC"/>
<path fill-rule="evenodd" clip-rule="evenodd" d="M310.328 8.33919C310.547 8.33919 310.745 8.18729 310.793 7.96576L312.232 1.33981C312.288 1.08284 312.124 0.82962 311.868 0.773946C311.61 0.725833 311.358 0.881544 311.302 1.13854L309.862 7.7632C309.808 8.02018 309.97 8.27337 310.226 8.32907C310.26 8.33539 310.295 8.33919 310.328 8.33919H310.328Z" fill="#648ACC"/>
<path fill-rule="evenodd" clip-rule="evenodd" d="M323.199 13.4682C323.36 13.4682 323.515 13.386 323.605 13.2393L327.115 7.44809C327.252 7.22425 327.18 6.93206 326.956 6.79675C326.733 6.66018 326.44 6.73226 326.305 6.95609L322.795 12.7473C322.658 12.9712 322.73 13.2633 322.954 13.3999C323.031 13.4455 323.116 13.4682 323.199 13.4682V13.4682Z" fill="#648ACC"/>
<path fill-rule="evenodd" clip-rule="evenodd" d="M333.694 22.5037C333.801 22.5037 333.909 22.4683 333.998 22.3937L339.206 18.0628C339.409 17.8946 339.436 17.5962 339.268 17.3951C339.1 17.1915 338.8 17.165 338.6 17.3344L333.391 21.6654C333.189 21.8335 333.162 22.1319 333.329 22.333C333.424 22.4468 333.558 22.5037 333.694 22.5037H333.694Z" fill="#648ACC"/>
<path fill-rule="evenodd" clip-rule="evenodd" d="M340.68 34.4714C340.736 34.4714 340.793 34.4612 340.847 34.441L347.18 32.0358C347.425 31.9422 347.548 31.6686 347.456 31.4229C347.363 31.1772 347.088 31.0544 346.845 31.1481L340.512 33.5519C340.266 33.6456 340.144 33.9204 340.236 34.1649C340.308 34.3549 340.488 34.4714 340.68 34.4714V34.4714Z" fill="#648ACC"/>
<path fill-rule="evenodd" clip-rule="evenodd" d="M343.385 48.0516H343.399L350.176 47.8416C350.439 47.8328 350.645 47.6139 350.636 47.3521C350.628 47.0903 350.406 46.9081 350.146 46.8929L343.37 47.1029C343.108 47.1118 342.901 47.3306 342.91 47.5924C342.918 47.8492 343.129 48.0516 343.385 48.0516Z" fill="#648ACC"/>
<path fill-rule="evenodd" clip-rule="evenodd" d="M347.996 63.7871C348.199 63.7871 348.386 63.6569 348.451 63.4535C348.528 63.2032 348.387 62.9377 348.137 62.8606L341.66 60.8559C341.412 60.7788 341.145 60.9178 341.066 61.1681C340.989 61.4184 341.128 61.6838 341.38 61.7622L347.856 63.7656C347.902 63.7808 347.951 63.7871 347.996 63.7871H347.996Z" fill="#648ACC"/>
<path fill-rule="evenodd" clip-rule="evenodd" d="M296.494 7.67792C296.512 7.67792 296.531 7.67665 296.549 7.67414C296.81 7.64374 296.995 7.40711 296.965 7.14772L296.169 0.418083C296.137 0.157409 295.899 -0.0197573 295.642 0.00176976C295.381 0.0333955 295.195 0.268774 295.226 0.529438L296.023 7.25904C296.052 7.49949 296.256 7.67791 296.494 7.67791L296.494 7.67792Z" fill="#648ACC"/>
<path fill-rule="evenodd" clip-rule="evenodd" d="M283.198 11.5561C283.268 11.5561 283.337 11.5409 283.404 11.508C283.64 11.3942 283.739 11.1109 283.625 10.8744L280.676 4.77486C280.559 4.53963 280.277 4.43972 280.041 4.55353C279.804 4.66861 279.705 4.95188 279.819 5.18714L282.769 11.2879C282.852 11.4561 283.02 11.556 283.198 11.556V11.5561Z" fill="#648ACC"/>
<path fill-rule="evenodd" clip-rule="evenodd" d="M271.887 19.5559C272.008 19.5559 272.128 19.5103 272.222 19.4192C272.408 19.2344 272.409 18.9331 272.224 18.747L267.45 13.9344C267.267 13.7483 266.965 13.7471 266.779 13.9319C266.593 14.1167 266.592 14.4167 266.777 14.6027L271.549 19.4167C271.643 19.5091 271.765 19.5559 271.887 19.5559V19.5559Z" fill="#648ACC"/>
<path fill-rule="evenodd" clip-rule="evenodd" d="M263.794 30.7933C263.97 30.7933 264.137 30.6972 264.22 30.529C264.335 30.2938 264.239 30.0106 264.004 29.8943L257.926 26.9001C257.69 26.7838 257.408 26.8799 257.291 27.115C257.175 27.3503 257.272 27.6348 257.506 27.7498L263.584 30.7452C263.652 30.7781 263.723 30.7933 263.794 30.7933H263.794Z" fill="#648ACC"/>
<path fill-rule="evenodd" clip-rule="evenodd" d="M259.803 44.063C260.039 44.063 260.243 43.888 260.273 43.647C260.306 43.3857 260.122 43.1484 259.861 43.1155L253.137 42.258C252.873 42.2288 252.638 42.4102 252.606 42.6702C252.573 42.9315 252.757 43.1688 253.016 43.2017L259.742 44.0592C259.763 44.0618 259.783 44.063 259.803 44.063Z" fill="#648ACC"/>
<path fill-rule="evenodd" clip-rule="evenodd" d="M369.841 311.135H471.109C466.885 223.446 454.016 140.274 454.016 140.274L431.628 132.926H409.463L386.922 140.274C386.922 140.274 375.373 236.669 369.841 311.135H369.841Z" fill="#FEC655"/>
<path fill-rule="evenodd" clip-rule="evenodd" d="M448.866 186.146L429.224 241.978L380.752 224.924L400.394 169.093L448.866 186.146Z" fill="#FF4637" stroke="black" stroke-opacity="0.01"/>
<path fill-rule="evenodd" clip-rule="evenodd" d="M452.118 176.907L432.476 232.738L383.994 215.682L403.637 159.85L452.118 176.907Z" fill="#FF4637" stroke="black" stroke-opacity="0.01"/>
<path fill-rule="evenodd" clip-rule="evenodd" d="M451.437 178.84L449.037 185.661L402.925 169.438L405.325 162.617L451.437 178.84Z" fill="white"/>
<path fill-rule="evenodd" clip-rule="evenodd" d="M475.873 225.007C472.486 218.775 462.471 200.002 458.568 194.54L465.996 156.321C465.996 156.321 481.727 178.839 498.707 221.126C505.251 237.422 489.047 253.623 472.757 247.067C448.829 237.439 427.439 226.324 399.374 209.152L408.864 193.429C408.864 193.429 434.088 208.875 475.873 225.007H475.873Z" fill="#F4B1A4"/>
<path fill-rule="evenodd" clip-rule="evenodd" d="M415.509 205.082C415.509 205.082 412.12 176.892 409.183 176.826C406.247 176.759 405.176 186.607 405.176 186.607C405.176 186.607 390.828 179.855 389.258 183.786C387.687 187.715 392.828 189.38 392.828 189.38C392.828 189.38 388.692 188.049 388.149 190.679C387.606 193.311 391.05 195.412 391.05 195.412C391.05 195.412 387.458 194.602 386.658 196.864C385.856 199.127 389.918 200.86 389.918 200.86C389.918 200.86 385.627 199.632 385.059 201.545C384.154 204.583 400.149 211.82 404.28 211.05C408.411 210.28 415.51 205.082 415.51 205.082L415.509 205.082Z" fill="#F4B1A4"/>
<path fill-rule="evenodd" clip-rule="evenodd" d="M454.022 140.277C472.371 148.222 490.428 190.635 490.428 190.635L461.663 207.877C453.778 194.067 453.372 168.036 454.022 140.277Z" fill="#F7B737"/>
<path fill-rule="evenodd" clip-rule="evenodd" d="M325.44 127.61L342.069 132.086C342.069 132.086 339.146 159.69 342.565 204.35C346.734 198.611 350.527 192.771 353.777 186.897L377.706 176.091C377.846 179.132 378.15 182.177 378.187 185.221C378.244 189.743 377.982 194.275 377.563 198.785C371.504 206.505 364.16 215.284 355.425 224.801C343.962 237.289 323.086 230.11 321.872 213.204C319.934 186.203 321.926 161.197 325.44 127.61Z" fill="#F4B1A4"/>
<path fill-rule="evenodd" clip-rule="evenodd" d="M329.786 136.736C327.751 136.265 325.409 134.295 324.687 132.333C323.985 130.42 323.794 128.353 323.168 126.412C321.956 122.656 319.194 119.599 317.606 115.985C317.26 115.199 316.991 114.221 317.509 113.537C318.045 112.829 319.125 112.851 319.96 113.146C321.929 113.839 323.323 115.551 324.744 117.08C325.314 117.691 325.935 118.298 326.609 118.81C328.168 119.989 330.47 119.274 331.154 117.443C333.905 110.083 334.019 101.719 331.201 94.3883C330.994 93.8467 330.767 93.2924 330.77 92.7104C330.772 92.1295 331.069 91.5057 331.617 91.312C332.465 91.0096 333.266 91.8271 333.799 92.5535C335.832 95.3222 337.924 98.2276 338.498 101.615C338.859 103.746 339.989 112.213 340.582 114.135C341.915 118.455 342.424 131.005 341.909 132.827C341.209 135.301 338.738 136.952 336.21 137.418C334.013 137.824 331.944 137.237 329.787 136.736H329.786Z" fill="#F4B1A4"/>
<path fill-rule="evenodd" clip-rule="evenodd" d="M333.888 104.269C331.482 101.619 328.613 99.3908 325.448 97.7166C325.068 97.5154 324.638 97.3167 324.222 97.4331C323.693 97.5799 323.421 98.2089 323.492 98.7543C323.562 99.2984 323.888 99.7716 324.216 100.212C325.596 102.063 327.18 103.763 328.93 105.267C326.796 104.402 324.65 103.376 322.515 102.51C321.839 102.235 320.936 102.014 320.482 102.585C320.107 103.058 320.327 103.763 320.652 104.272C321.758 105.998 323.755 106.883 325.572 107.834C327.388 108.785 329.273 110.086 329.751 112.079C327.65 110.332 325.024 109.502 322.291 109.448C321.664 109.437 320.906 109.557 320.66 110.135C320.43 110.678 320.816 111.293 321.279 111.658C322.274 112.442 323.611 112.606 324.771 113.118C326.247 113.771 327.443 115.035 328.014 116.545C328.585 118.055 328.525 119.793 327.849 121.26C330.291 121.907 333.065 120.773 334.561 118.738C336.056 116.704 336.497 114.046 336.281 111.53C336.067 109.016 335.585 106.139 333.888 104.269V104.269Z" fill="#F4B1A4"/>
<path fill-rule="evenodd" clip-rule="evenodd" d="M328.433 119.702C329.295 119.702 330.065 119.385 330.73 118.755C334.011 115.64 333.641 106.011 333.534 104.112C333.523 103.939 333.388 103.806 333.199 103.815C333.026 103.824 332.892 103.974 332.902 104.147C333.191 109.257 332.682 116.03 330.293 118.295C329.663 118.896 328.948 119.144 328.102 119.052C327.924 119.039 327.772 119.158 327.753 119.332C327.734 119.506 327.86 119.662 328.034 119.682C328.169 119.695 328.301 119.702 328.433 119.702Z" fill="#C16B5B"/>
<path fill-rule="evenodd" clip-rule="evenodd" d="M386.929 140.277C368.574 148.222 348.891 193.153 348.891 193.153L379.286 207.878C383.727 184.405 386.66 161.683 386.929 140.277Z" fill="#F7B737"/>
<path fill-rule="evenodd" clip-rule="evenodd" d="M461.076 207.27C461.145 207.27 461.216 207.255 461.282 207.222C461.517 207.108 461.617 206.825 461.502 206.588C461.215 205.995 454.422 191.981 450.959 186.993C450.81 186.779 450.515 186.724 450.299 186.874C450.083 187.025 450.029 187.32 450.18 187.535C453.6 192.462 460.578 206.856 460.648 207.002C460.73 207.171 460.9 207.27 461.076 207.27V207.27Z" fill="#060042"/>
<path fill-rule="evenodd" clip-rule="evenodd" d="M379.72 206.006C379.963 206.006 380.172 205.819 380.192 205.572C380.212 205.336 382.243 181.808 384.036 170.377C384.077 170.118 383.9 169.875 383.641 169.836C383.384 169.788 383.14 169.97 383.098 170.231C381.299 181.693 379.266 205.255 379.246 205.49C379.223 205.751 379.417 205.981 379.678 206.005C379.693 206.006 379.706 206.006 379.72 206.006H379.72Z" fill="#060042"/>
<path fill-rule="evenodd" clip-rule="evenodd" d="M454.53 83.2472C450.505 91.8722 445.337 99.9835 439.09 107.171C436.887 109.706 434.163 112.766 430.449 112.431C426.414 112.066 424.441 108.376 422.907 105.12C415.874 90.1953 398.446 83.8762 391.209 68.9877C384.07 54.2979 393.223 37.8312 408.313 33.346C420.502 29.7225 438.887 33.1928 444.783 45.6438C451.252 44.9819 457.476 50.0265 459.476 56.3786C462.353 65.5136 458.361 75.0385 454.53 83.2472Z" fill="#060042"/>
<path fill-rule="evenodd" clip-rule="evenodd" d="M442.754 57.4306C434.807 38.114 399.147 40.5074 394.843 54.7006C385.987 83.8982 388.197 97.3231 396.407 104.55C406.25 113.215 411.341 115.808 409.466 132.931C412.094 142.442 426.003 142.796 431.625 132.93C433.831 110.219 443.497 93.8818 443.497 93.8818C443.497 93.8818 446.031 65.3942 442.754 57.4306V57.4306Z" fill="#F4B1A4"/>
<path fill-rule="evenodd" clip-rule="evenodd" d="M438.579 61.0584C431.626 69.06 419.763 65.7406 419.763 65.7406L427.393 60.4978C427.393 60.4978 409.017 68.8258 391.585 63.335C391.585 63.335 389.685 56.5104 398.888 46.4803C404.773 40.0631 419.859 39.9732 432.305 43.7102C444.75 47.4484 449.668 53.5757 449.084 62.7326C448.501 71.8908 448.182 83.3711 448.182 83.3711L442.84 86.5904C435.673 80.5871 438.579 61.0584 438.579 61.0584L438.579 61.0584Z" fill="#060042"/>
<path fill-rule="evenodd" clip-rule="evenodd" d="M418.307 83.1935C418.172 84.432 417.06 85.3272 415.823 85.1917C414.588 85.0562 413.694 83.9406 413.83 82.7022C413.965 81.4625 415.078 80.5685 416.314 80.704C417.551 80.8395 418.443 81.9538 418.307 83.1935V83.1935Z" fill="#060042"/>
<path fill-rule="evenodd" clip-rule="evenodd" d="M416.138 82.3306C416.088 82.7856 415.68 83.1127 415.226 83.0632C414.772 83.0138 414.444 82.6056 414.495 82.1506C414.544 81.6968 414.952 81.3685 415.407 81.4179C415.86 81.4686 416.189 81.8768 416.138 82.3306V82.3306Z" fill="white"/>
<path fill-rule="evenodd" clip-rule="evenodd" d="M400.967 81.2948C400.831 82.5343 399.717 83.4293 398.477 83.2926C397.239 83.1572 396.344 82.043 396.479 80.8049C396.615 79.5655 397.729 78.6717 398.969 78.8071C400.208 78.9426 401.102 80.0567 400.967 81.2948Z" fill="#060042"/>
<path fill-rule="evenodd" clip-rule="evenodd" d="M398.787 80.4337C398.738 80.8875 398.331 81.2158 397.88 81.1663C397.429 81.117 397.103 80.7075 397.152 80.2537C397.202 79.7999 397.608 79.4717 398.059 79.5211C398.511 79.5705 398.836 79.9799 398.787 80.4337Z" fill="white"/>
<path fill-rule="evenodd" clip-rule="evenodd" d="M403.429 72.6787C400.828 70.4116 397.157 70.1246 394.253 72.1275C393.709 72.503 393.526 73.3565 393.844 73.957C394.167 74.5703 394.889 74.746 395.434 74.3705C396.626 73.5474 398.061 73.2743 399.404 73.5234C400.084 73.6485 400.74 73.9052 401.336 74.2871C401.864 74.6259 402.352 75.1671 403.018 74.875C403.177 74.8067 403.319 74.6929 403.438 74.5538C403.841 74.0747 403.923 73.1086 403.429 72.6787H403.429Z" fill="#060042"/>
<path fill-rule="evenodd" clip-rule="evenodd" d="M412.173 73.6323C415.617 72.0259 419.798 72.5976 422.59 75.2248C423.113 75.7168 423.118 76.592 422.623 77.1043C422.118 77.6267 421.268 77.6304 420.744 77.1372C419.599 76.0595 418.052 75.4777 416.491 75.4119C415.7 75.3778 414.904 75.4739 414.147 75.6991C413.477 75.8976 412.797 76.3049 412.124 75.8698C411.962 75.7648 411.829 75.6219 411.729 75.4587C411.387 74.8984 411.52 73.9371 412.173 73.6323V73.6323Z" fill="#060042"/>
<path fill-rule="evenodd" clip-rule="evenodd" d="M405.127 94.6524C403.903 94.5182 402.658 94.112 401.501 93.3312C400.96 92.9668 400.817 92.234 401.182 91.6962C401.545 91.1571 402.277 91.0128 402.818 91.3773C405.615 93.2578 409.099 92.0202 410.187 90.8268C410.625 90.3497 411.372 90.3117 411.853 90.7509C412.334 91.1913 412.367 91.9354 411.929 92.4162C410.649 93.8159 407.945 94.9611 405.127 94.6524Z" fill="#C16B5B"/>
<path fill-rule="evenodd" clip-rule="evenodd" d="M403.088 87.6813C402.96 87.6674 402.852 87.5712 402.829 87.4383C402.482 85.4652 403.204 84.8868 403.87 84.7488C404.546 84.6122 405.31 84.8653 406.139 85.5107C406.267 85.6108 406.289 85.7968 406.189 85.9259C406.087 86.0524 405.901 86.0739 405.775 85.9765C405.091 85.4424 404.489 85.2235 403.99 85.3272C403.393 85.4487 403.198 86.1258 403.409 87.3371C403.437 87.4965 403.331 87.6497 403.17 87.6788C403.142 87.6838 403.113 87.6838 403.088 87.6813H403.088Z" fill="#C16B5B"/>
<path fill-rule="evenodd" clip-rule="evenodd" d="M451.094 95.3733C447.704 98.6211 442.867 99.0718 440.288 96.3808C437.711 93.6911 438.369 88.8763 441.759 85.6297C445.15 82.3818 449.988 81.9299 452.565 84.6209C455.143 87.3118 454.483 92.1254 451.094 95.3733L451.094 95.3733Z" fill="#F4B1A4"/>
<path fill-rule="evenodd" clip-rule="evenodd" d="M450.419 86.1564C449.219 85.344 447.515 85.1884 445.864 85.7477C445.042 86.0248 444.425 86.4057 443.978 86.9081C443.386 87.5763 443.144 88.4684 443.348 89.2378C443.528 89.9275 444.01 90.416 444.435 90.8462C444.743 91.1588 445.033 91.4524 445.18 91.7826C445.405 92.2888 445.262 92.9482 444.847 93.3164C444.433 93.6834 443.761 93.7428 443.285 93.4568C443.005 93.2885 442.644 93.3796 442.476 93.658C442.309 93.9352 442.397 94.2984 442.677 94.4667C442.982 94.6502 443.323 94.7603 443.673 94.7982C444.369 94.8742 445.097 94.6679 445.628 94.1984C446.425 93.4923 446.69 92.2749 446.257 91.3031C446.024 90.7779 445.625 90.3741 445.273 90.0186C444.921 89.6618 444.588 89.3251 444.487 88.9379C444.386 88.5494 444.531 88.0609 444.861 87.6902C444.992 87.5408 445.166 87.413 445.354 87.2903C445.937 87.3485 446.645 87.6079 446.969 88.0495C447.334 88.5494 447.458 89.2277 447.292 89.8224C447.205 90.135 447.387 90.4602 447.701 90.5475C447.733 90.5564 447.764 90.5627 447.796 90.5666C448.078 90.5969 448.349 90.421 448.426 90.1388C448.692 89.191 448.504 88.1508 447.921 87.3536C447.704 87.0587 447.416 86.8423 447.11 86.6588C448.107 86.5044 449.058 86.6601 449.758 87.1333C450.622 87.718 451.177 89.0442 450.594 90.011C450.427 90.2906 450.516 90.6513 450.795 90.8196C451.075 90.9867 451.435 90.8981 451.604 90.6197C452.452 89.21 451.909 87.1675 450.419 86.1564L450.419 86.1564Z" fill="#C16B5B"/>
<path fill-rule="evenodd" clip-rule="evenodd" d="M27.8018 311.604H503.701C503.963 311.604 504.176 311.391 504.176 311.129C504.176 310.868 503.963 310.655 503.701 310.655H27.8018C27.5399 310.655 27.3272 310.868 27.3272 311.129C27.3272 311.391 27.5399 311.604 27.8018 311.604Z" fill="#648ACC"/>
</svg>
