<svg width="222" height="474" viewBox="0 0 222 474" fill="none" xmlns="http://www.w3.org/2000/svg">
<path opacity="0.05" fill-rule="evenodd" clip-rule="evenodd" d="M-185 203.5C-185 91.11 -93.89 0 18.5 0C130.89 0 222 91.11 222 203.5C222 315.89 130.89 407 18.5 407C-93.89 407 -185 315.89 -185 203.5Z" fill="#FD6023"/>
<path opacity="0.05" fill-rule="evenodd" clip-rule="evenodd" d="M-121 203.5C-121 126.456 -58.5437 64 18.5 64C95.5437 64 158 126.456 158 203.5C158 280.544 95.5437 343 18.5 343C-58.5437 343 -121 280.544 -121 203.5Z" fill="#FD6023"/>
<path opacity="0.05" fill-rule="evenodd" clip-rule="evenodd" d="M-153 203.5C-153 108.783 -76.2168 32 18.5 32C113.217 32 190 108.783 190 203.5C190 298.217 113.217 375 18.5 375C-76.2168 375 -153 298.217 -153 203.5Z" fill="#FD6023"/>
<path opacity="0.05" fill-rule="evenodd" clip-rule="evenodd" d="M-91 203.5C-91 143.025 -41.9752 94 18.5 94C78.9752 94 128 143.025 128 203.5C128 263.975 78.9752 313 18.5 313C-41.9752 313 -91 263.975 -91 203.5Z" fill="#FD6023"/>
<path d="M-22.2657 96.1247C-22.2657 96.1247 -38.1781 185.7 6.14071 196.832C50.4595 207.964 68.3109 274.001 52.6409 323.55C36.9708 373.099 18.6627 418.911 82.1769 440.504C145.691 462.098 134.708 455.636 134.708 455.636" stroke="#FF8933"/>
<path fill-rule="evenodd" clip-rule="evenodd" d="M130 365.5C130 361.358 133.358 358 137.5 358C141.642 358 145 361.358 145 365.5C145 369.642 141.642 373 137.5 373C133.358 373 130 369.642 130 365.5Z" fill="#41E5BF"/>
<path fill-rule="evenodd" clip-rule="evenodd" d="M42.0006 473.135L31.276 464.136L40.275 453.411L50.9996 462.41L42.0006 473.135Z" fill="#FF4637"/>
</svg>
