<svg width="222" height="472" viewBox="0 0 222 472" fill="none" xmlns="http://www.w3.org/2000/svg">
<path opacity="0.05" fill-rule="evenodd" clip-rule="evenodd" d="M-185 203.5C-185 91.11 -93.89 0 18.5 0C130.89 0 222 91.11 222 203.5C222 315.89 130.89 407 18.5 407C-93.89 407 -185 315.89 -185 203.5Z" fill="#FD6023"/>
<path opacity="0.05" fill-rule="evenodd" clip-rule="evenodd" d="M-121 203.5C-121 126.456 -58.5437 64 18.5 64C95.5437 64 158 126.456 158 203.5C158 280.544 95.5437 343 18.5 343C-58.5437 343 -121 280.544 -121 203.5Z" fill="#FD6023"/>
<path opacity="0.05" fill-rule="evenodd" clip-rule="evenodd" d="M-153 203.5C-153 108.783 -76.2168 32 18.5 32C113.217 32 190 108.783 190 203.5C190 298.217 113.217 375 18.5 375C-76.2168 375 -153 298.217 -153 203.5Z" fill="#FD6023"/>
<path opacity="0.05" fill-rule="evenodd" clip-rule="evenodd" d="M-91 203.5C-91 143.025 -41.9752 94 18.5 94C78.9752 94 128 143.025 128 203.5C128 263.975 78.9752 313 18.5 313C-41.9752 313 -91 263.975 -91 203.5Z" fill="#FD6023"/>
<path d="M-22.2656 96.1247C-22.2656 96.1247 -38.178 185.7 6.14083 196.832C50.4596 207.964 68.311 274.001 52.641 323.55C36.9709 373.099 18.6628 418.911 82.177 440.504C145.691 462.098 134.708 455.636 134.708 455.636" stroke="#FF8933"/>
</svg>
