<svg width="103" height="25" viewBox="0 0 103 25" fill="none" xmlns="http://www.w3.org/2000/svg">
<g clip-path="url(#clip0_2_61)">
<path fill-rule="evenodd" clip-rule="evenodd" d="M31.6714 1.03056C31.5045 1.09252 31.3806 1.18409 31.3025 1.29994C31.2594 1.36191 30.8689 2.24536 30.4354 3.26358C29.6517 5.10066 29.6463 5.11683 29.5629 5.13032C29.5171 5.13566 28.5961 5.22189 27.5135 5.31888C25.4211 5.5074 25.4346 5.50474 25.2434 5.66903C25.0576 5.82529 24.9553 6.16195 25.0199 6.40171C25.0361 6.46365 25.0899 6.56874 25.1384 6.63337C25.1842 6.70071 25.8735 7.32295 26.6653 8.0152C27.457 8.70475 28.1383 9.30279 28.1787 9.34318L28.2541 9.41321L27.8071 11.3661C27.5162 12.6429 27.36 13.3755 27.3574 13.4806C27.3547 13.7661 27.5001 14.0031 27.7613 14.1298C27.9498 14.2241 28.1814 14.2295 28.3618 14.1486C28.4291 14.119 29.1077 13.7203 29.8698 13.2651C30.6319 12.8099 31.386 12.36 31.5422 12.2657C31.6983 12.1715 31.8465 12.088 31.868 12.0799C31.8895 12.0718 32.6112 12.4867 33.6022 13.0793C34.534 13.6369 35.3499 14.119 35.4173 14.1486C35.5977 14.2321 35.8293 14.2241 36.0178 14.1298C36.279 14.0031 36.4244 13.7661 36.4217 13.4806C36.419 13.3755 36.2629 12.6429 35.972 11.3661L35.5277 9.41321L35.5869 9.35662C35.6193 9.32429 36.3006 8.72631 37.1004 8.02598C37.9002 7.32831 38.5949 6.70072 38.6407 6.63338C38.7511 6.48249 38.7942 6.32899 38.7754 6.14852C38.7457 5.8738 38.5626 5.62866 38.3149 5.53437C38.2395 5.50476 37.5528 5.43201 36.1767 5.30811C35.0618 5.20576 34.1435 5.11685 34.1381 5.11145C34.1327 5.10608 33.7665 4.26027 33.3276 3.23127C32.8886 2.20234 32.4954 1.31615 32.4551 1.26223C32.2881 1.05481 31.9111 0.941686 31.6714 1.03058L31.6714 1.03056Z" fill="#E08825"/>
<path fill-rule="evenodd" clip-rule="evenodd" d="M47.6714 1.03056C47.5045 1.09252 47.3806 1.18409 47.3025 1.29994C47.2594 1.36191 46.8689 2.24536 46.4354 3.26358C45.6517 5.10066 45.6463 5.11683 45.5629 5.13032C45.5171 5.13566 44.5961 5.22189 43.5135 5.31888C41.4211 5.5074 41.4346 5.50474 41.2434 5.66903C41.0576 5.82529 40.9553 6.16195 41.0199 6.40171C41.0361 6.46365 41.0899 6.56874 41.1384 6.63337C41.1842 6.70071 41.8735 7.32295 42.6653 8.0152C43.457 8.70475 44.1383 9.30279 44.1787 9.34318L44.2541 9.41321L43.8071 11.3661C43.5162 12.6429 43.36 13.3755 43.3574 13.4806C43.3547 13.7661 43.5001 14.0031 43.7613 14.1298C43.9498 14.2241 44.1814 14.2295 44.3618 14.1486C44.4291 14.119 45.1077 13.7203 45.8698 13.2651C46.6319 12.8099 47.386 12.36 47.5422 12.2657C47.6983 12.1715 47.8465 12.088 47.868 12.0799C47.8895 12.0718 48.6112 12.4867 49.6022 13.0793C50.534 13.6369 51.3499 14.119 51.4173 14.1486C51.5977 14.2321 51.8293 14.2241 52.0178 14.1298C52.279 14.0031 52.4244 13.7661 52.4217 13.4806C52.419 13.3755 52.2629 12.6429 51.972 11.3661L51.5277 9.41321L51.5869 9.35662C51.6193 9.32429 52.3006 8.72631 53.1004 8.02598C53.9002 7.32831 54.5949 6.70072 54.6407 6.63338C54.7511 6.48249 54.7942 6.32899 54.7754 6.14852C54.7457 5.8738 54.5626 5.62866 54.3149 5.53437C54.2395 5.50476 53.5528 5.43201 52.1767 5.30811C51.0618 5.20576 50.1435 5.11685 50.1381 5.11145C50.1327 5.10608 49.7665 4.26027 49.3276 3.23127C48.8886 2.20234 48.4954 1.31615 48.4551 1.26223C48.2881 1.05481 47.9111 0.941686 47.6714 1.03058L47.6714 1.03056Z" fill="#E08825"/>
<path fill-rule="evenodd" clip-rule="evenodd" d="M63.6714 1.03056C63.5045 1.09252 63.3806 1.18409 63.3025 1.29994C63.2594 1.36191 62.8689 2.24536 62.4354 3.26358C61.6517 5.10066 61.6463 5.11683 61.5629 5.13032C61.5171 5.13566 60.5961 5.22189 59.5135 5.31888C57.4211 5.5074 57.4346 5.50474 57.2434 5.66903C57.0576 5.82529 56.9553 6.16195 57.0199 6.40171C57.0361 6.46365 57.0899 6.56874 57.1384 6.63337C57.1842 6.70071 57.8735 7.32295 58.6653 8.0152C59.457 8.70475 60.1383 9.30279 60.1787 9.34318L60.2541 9.41321L59.8071 11.3661C59.5162 12.6429 59.36 13.3755 59.3574 13.4806C59.3547 13.7661 59.5001 14.0031 59.7613 14.1298C59.9498 14.2241 60.1814 14.2295 60.3618 14.1486C60.4291 14.119 61.1077 13.7203 61.8698 13.2651C62.6319 12.8099 63.386 12.36 63.5422 12.2657C63.6983 12.1715 63.8465 12.088 63.868 12.0799C63.8895 12.0718 64.6112 12.4867 65.6022 13.0793C66.534 13.6369 67.3499 14.119 67.4173 14.1486C67.5977 14.2321 67.8293 14.2241 68.0178 14.1298C68.279 14.0031 68.4244 13.7661 68.4217 13.4806C68.419 13.3755 68.2629 12.6429 67.972 11.3661L67.5277 9.41321L67.5869 9.35662C67.6193 9.32429 68.3006 8.72631 69.1004 8.02598C69.9002 7.32831 70.5949 6.70072 70.6407 6.63338C70.7511 6.48249 70.7942 6.32899 70.7754 6.14852C70.7457 5.8738 70.5626 5.62866 70.3149 5.53437C70.2395 5.50476 69.5528 5.43201 68.1767 5.30811C67.0618 5.20576 66.1435 5.11685 66.1381 5.11145C66.1327 5.10608 65.7665 4.26027 65.3276 3.23127C64.8886 2.20234 64.4954 1.31615 64.4551 1.26223C64.2881 1.05481 63.9111 0.941686 63.6714 1.03058L63.6714 1.03056Z" fill="#E08825"/>
<path fill-rule="evenodd" clip-rule="evenodd" d="M79.6714 1.03056C79.5045 1.09252 79.3806 1.18409 79.3025 1.29994C79.2594 1.36191 78.8689 2.24536 78.4354 3.26358C77.6517 5.10066 77.6463 5.11683 77.5629 5.13032C77.5171 5.13566 76.5961 5.22189 75.5135 5.31888C73.4211 5.5074 73.4346 5.50474 73.2434 5.66903C73.0576 5.82529 72.9553 6.16195 73.0199 6.40171C73.0361 6.46365 73.0899 6.56874 73.1384 6.63337C73.1842 6.70071 73.8735 7.32295 74.6653 8.0152C75.457 8.70475 76.1383 9.30279 76.1787 9.34318L76.2541 9.41321L75.8071 11.3661C75.5162 12.6429 75.36 13.3755 75.3574 13.4806C75.3547 13.7661 75.5001 14.0031 75.7613 14.1298C75.9498 14.2241 76.1814 14.2295 76.3618 14.1486C76.4291 14.119 77.1077 13.7203 77.8698 13.2651C78.6319 12.8099 79.386 12.36 79.5422 12.2657C79.6983 12.1715 79.8465 12.088 79.868 12.0799C79.8895 12.0718 80.6112 12.4867 81.6022 13.0793C82.534 13.6369 83.3499 14.119 83.4173 14.1486C83.5977 14.2321 83.8293 14.2241 84.0178 14.1298C84.279 14.0031 84.4244 13.7661 84.4217 13.4806C84.419 13.3755 84.2629 12.6429 83.972 11.3661L83.5277 9.41321L83.5869 9.35662C83.6193 9.32429 84.3006 8.72631 85.1004 8.02598C85.9002 7.32831 86.5949 6.70072 86.6407 6.63338C86.7511 6.48249 86.7942 6.32899 86.7754 6.14852C86.7457 5.8738 86.5626 5.62866 86.3149 5.53437C86.2395 5.50476 85.5528 5.43201 84.1767 5.30811C83.0618 5.20576 82.1435 5.11685 82.1381 5.11145C82.1327 5.10608 81.7665 4.26027 81.3276 3.23127C80.8886 2.20234 80.4954 1.31615 80.4551 1.26223C80.2881 1.05481 79.9111 0.941686 79.6714 1.03058L79.6714 1.03056Z" fill="#E08825"/>
<path fill-rule="evenodd" clip-rule="evenodd" d="M95.6714 1.03056C95.5045 1.09252 95.3806 1.18409 95.3025 1.29994C95.2594 1.36191 94.8689 2.24536 94.4354 3.26358C93.6517 5.10066 93.6463 5.11683 93.5629 5.13032C93.5171 5.13566 92.5961 5.22189 91.5135 5.31888C89.4211 5.5074 89.4346 5.50474 89.2434 5.66903C89.0576 5.82529 88.9553 6.16195 89.0199 6.40171C89.0361 6.46365 89.0899 6.56874 89.1384 6.63337C89.1842 6.70071 89.8735 7.32295 90.6653 8.0152C91.457 8.70475 92.1383 9.30279 92.1787 9.34318L92.2541 9.41321L91.8071 11.3661C91.5162 12.6429 91.36 13.3755 91.3574 13.4806C91.3547 13.7661 91.5001 14.0031 91.7613 14.1298C91.9498 14.2241 92.1814 14.2295 92.3618 14.1486C92.4291 14.119 93.1077 13.7203 93.8698 13.2651C94.6319 12.8099 95.386 12.36 95.5422 12.2657C95.6983 12.1715 95.8465 12.088 95.868 12.0799C95.8895 12.0718 96.6112 12.4867 97.6022 13.0793C98.534 13.6369 99.3499 14.119 99.4173 14.1486C99.5977 14.2321 99.8293 14.2241 100.018 14.1298C100.279 14.0031 100.424 13.7661 100.422 13.4806C100.419 13.3755 100.263 12.6429 99.972 11.3661L99.5277 9.41321L99.5869 9.35662C99.6193 9.32429 100.301 8.72631 101.1 8.02598C101.9 7.32831 102.595 6.70072 102.641 6.63338C102.751 6.48249 102.794 6.32899 102.775 6.14852C102.746 5.8738 102.563 5.62866 102.315 5.53437C102.239 5.50476 101.553 5.43201 100.177 5.30811C99.0618 5.20576 98.1435 5.11685 98.1381 5.11145C98.1327 5.10608 97.7665 4.26027 97.3276 3.23127C96.8886 2.20234 96.4954 1.31615 96.4551 1.26223C96.2881 1.05481 95.9111 0.941686 95.6714 1.03058L95.6714 1.03056Z" fill="white" stroke="#E08825"/>
<path d="M10.134 14.004H8.622V10.674H6.192V14.004H3.312L6.462 6.12H3.96L0.288 15.408V16.056H6.192V18H8.622V16.056H10.134V14.004ZM11.5862 16.542C11.5862 17.496 12.3242 18.216 13.2782 18.216C14.2322 18.216 14.9342 17.496 14.9342 16.542C14.9342 15.606 14.2142 14.868 13.2782 14.868C12.3242 14.868 11.5862 15.606 11.5862 16.542ZM19.6587 6.12L15.2127 7.578L15.7887 9.72L18.0387 9V18H20.4687V6.12H19.6587Z" fill="#E08825"/>
</g>
<defs>
<clipPath id="clip0_2_61">
<rect width="102.78" height="25" fill="white"/>
</clipPath>
</defs>
</svg>
