<svg width="67" height="49" viewBox="0 0 67 49" fill="none" xmlns="http://www.w3.org/2000/svg">
<path fill-rule="evenodd" clip-rule="evenodd" d="M0.0259778 13.3794L0.0649346 26.758L3.63627 28.2387C6.31152 29.3558 7.22059 29.6805 7.29851 29.5636C7.66214 28.9142 8.6621 27.7192 9.22054 27.2775C10.1815 26.5112 11.1426 26.1995 12.4672 26.1865C14.2724 26.1865 15.7009 26.8619 16.7788 28.2128L17.2982 28.8882L18.3891 28.9661C19.8436 29.07 21.1163 29.6805 22.0643 30.7196C22.428 31.1223 22.7267 31.4859 22.7267 31.5379C22.7267 31.6028 23.2331 31.6808 23.8435 31.7197C25.35 31.8106 26.5447 32.3822 27.5837 33.5122C27.9863 33.9409 28.3109 34.3435 28.3109 34.4214C28.3109 34.4864 28.5317 34.5124 28.8174 34.4604C29.6226 34.3305 31.155 34.7332 32.0381 35.3047C33.5316 36.2659 34.3237 37.5518 34.5835 39.4092L34.7393 40.5522L37.1159 42.5785C39.7911 44.8515 40.3496 45.2282 41.4404 45.436C42.6482 45.6828 43.6352 45.2932 44.0897 44.4099C44.3365 43.9163 44.3365 43.072 44.0767 42.5265C43.9469 42.2407 41.869 40.4223 37.4665 36.7595C33.9341 33.811 30.9212 31.2521 30.7784 31.0703C29.9083 29.9663 31.2459 28.4205 32.4926 29.096C32.6485 29.1739 36.2847 32.1744 40.5703 35.7463C44.8689 39.3312 48.5831 42.3706 48.8298 42.4876C49.3363 42.7473 50.5571 42.7993 51.1285 42.5785C52.596 42.033 53.0895 39.9937 52.0376 38.8377C51.8817 38.6688 48.2714 35.6164 44.0118 32.0575C35.5575 25.0175 35.7523 25.1993 36.1549 24.2382C36.3496 23.7446 36.9211 23.3679 37.4405 23.3679C37.6094 23.3679 37.96 23.5108 38.2068 23.6666C38.4535 23.8355 42.1677 26.9139 46.4663 30.4858C50.7649 34.0707 54.4401 37.0452 54.6349 37.0972C55.2193 37.266 56.4011 37.1881 56.8166 36.9673C57.6088 36.5646 58.1802 35.6294 58.1802 34.7592C58.1802 33.6941 58.0764 33.6031 48.5701 25.2773C43.6092 20.926 38.9989 16.9124 38.3496 16.3279L37.1418 15.2888L36.2068 15.9253C35.1549 16.6137 32.9861 18.3282 30.0901 20.7312C27.4148 22.9652 26.5058 23.3679 24.2201 23.3679C22.363 23.3679 21.1293 22.9912 19.9085 22.043C17.5839 20.2506 16.9606 16.6526 18.5449 14.1848C19.0644 13.3665 26.7395 5.75496 27.6356 5.15747L28.3239 4.68987L27.5057 4.54698C25.0902 4.13135 24.4409 4.09238 20.9734 4.09238C17.7657 4.09238 17.0125 4.13135 14.636 4.44312C12.2464 4.76783 11.8049 4.7808 10.8698 4.6639C9.09065 4.41711 7.45433 3.78064 6.23358 2.84544C5.83099 2.53373 4.70116 2.01418 1.06489 0.455488L-1.99983e-05 0.000888316L0.0259778 13.3794Z" fill="#29D6C2"/>
<path fill-rule="evenodd" clip-rule="evenodd" d="M61.0464 3.42958L55.7858 6.71551L54.2271 6.88439C50.694 7.23504 47.9402 6.81945 42.4718 5.07907C39.4582 4.11794 38.6659 3.96211 36.9643 4.053C34.7821 4.15694 33.4182 4.70241 30.1969 6.76751C28.9369 7.5857 28.3264 8.13123 24.8973 11.534C22.767 13.6511 20.8966 15.6123 20.7407 15.898C20.351 16.6253 20.351 18.028 20.7407 18.7683C21.1044 19.4437 21.9097 20.171 22.5462 20.3918C23.2476 20.6386 25.3909 20.6256 25.9754 20.3528C26.2352 20.2489 27.664 19.145 29.1577 17.9111C35.3666 12.8069 37.1072 11.7678 38.2243 12.5991C38.4581 12.7679 42.9913 16.6772 48.3169 21.2879C53.6425 25.8986 58.0849 29.7301 58.1888 29.808C58.3446 29.9249 59.2409 29.6262 62.4103 28.3664L66.437 26.7688L66.4759 13.4432C66.4889 6.11809 66.4629 0.117651 66.411 0.130651C66.346 0.143651 63.943 1.62426 61.0464 3.42958H61.0464Z" fill="#29D6C2"/>
<path fill-rule="evenodd" clip-rule="evenodd" d="M11.3657 29.1952C10.7034 29.4939 10.4957 29.7407 9.3789 31.4551C8.37899 32.9747 8.22316 33.4812 8.35302 34.767C8.56079 36.7542 10.7554 37.8322 12.4305 36.7931L13.0539 36.4035L12.7552 36.988C12.4955 37.5075 12.4565 37.7283 12.5085 38.5985C12.5474 39.4557 12.6124 39.6895 12.937 40.157C13.9499 41.5857 15.9886 41.7675 17.1704 40.5467C18.0014 39.6635 20.5207 36.1697 20.6505 35.7022C21.4037 33.0396 19.1831 30.8836 16.8197 31.9876C16.2484 32.2473 15.9886 32.5201 14.6901 34.2605C13.8849 35.3385 13.1967 36.2217 13.1707 36.2217C13.1448 36.2217 13.5733 35.5463 14.1187 34.7151C15.1186 33.2085 15.1316 33.1955 15.1835 32.2214C15.2355 31.0914 15.0666 30.429 14.5862 29.8446C13.872 29.0004 12.4305 28.7016 11.3657 29.1952H11.3657Z" fill="#29D6C2"/>
<path fill-rule="evenodd" clip-rule="evenodd" d="M22.8322 34.5191C22.0402 34.7789 21.5987 35.2205 20.0665 37.2598C18.0149 40.0135 18.0149 40.0135 18.0798 41.3513C18.1187 42.2736 18.1707 42.4814 18.4953 42.949C19.3783 44.2349 21.313 44.5077 22.4947 43.5205C22.9491 43.1438 25.65 39.5589 26.0395 38.8185C26.2213 38.4937 26.2862 38.0781 26.2862 37.3897C26.2992 36.5584 26.2473 36.3246 25.9356 35.805C25.3383 34.7789 23.884 34.1814 22.8322 34.5191L22.8322 34.5191Z" fill="#29D6C2"/>
<path fill-rule="evenodd" clip-rule="evenodd" d="M27.8209 37.5329C27.3663 37.7667 26.9507 38.2212 25.6908 39.8836C24.8465 41.0264 24.0283 42.1433 23.8984 42.3641C23.3269 43.3512 23.4568 45.0005 24.1841 45.8966C25.2232 47.1564 27.2234 47.2083 28.3275 46.0005C28.9899 45.2862 31.4577 41.9096 31.6395 41.481C32.0811 40.4291 31.7694 38.6238 31.0291 37.9485C30.2368 37.2212 28.808 37.0394 27.8209 37.5329L27.8209 37.5329Z" fill="#29D6C2"/>
<path fill-rule="evenodd" clip-rule="evenodd" d="M32.7916 44.7593L31.7661 46.1485L32.7916 47.1093C33.8561 48.083 34.2066 48.3037 34.7388 48.3037C35.4527 48.3037 36.3484 47.0573 36.3614 46.0836C36.3614 45.6551 36.2705 45.5253 35.4268 44.7853C34.9075 44.3308 34.3234 43.8375 34.1416 43.6687L33.8041 43.3571L32.7916 44.7593Z" fill="#29D6C2"/>
</svg>
