<svg width="24" height="24" viewBox="0 0 24 24" fill="none" xmlns="http://www.w3.org/2000/svg">
<g opacity="0.6">
<path fill-rule="evenodd" clip-rule="evenodd" d="M11.1228 1.985C13.1758 2.31816 14.9271 3.42567 16.0391 5.10042C16.8674 6.34749 17.2501 7.59453 17.2546 9.0757C17.2546 9.79155 17.2051 10.2237 17.043 10.8765C16.4082 13.4112 14.3778 15.4416 11.8432 16.0764C11.1904 16.2385 10.7582 16.288 10.0424 16.288C8.56119 16.2835 7.31413 15.9008 6.06707 15.0724C4.08168 13.7533 2.88414 11.5158 2.88414 9.10722C2.88414 7.90071 3.13175 6.88325 3.6945 5.79371C4.60391 4.03346 6.22464 2.72334 8.17402 2.16059C8.99789 1.92649 10.272 1.84998 11.1228 1.98499V1.985ZM8.96188 0.0491721C6.96298 0.301252 5.07213 1.23319 3.63598 2.66935C0.916758 5.38404 0.187428 9.5034 1.80816 12.9384C3.14526 15.7792 5.81947 17.7421 8.88535 18.1473C11.1634 18.4444 13.4909 17.8591 15.3548 16.522C15.5754 16.3645 15.7734 16.2339 15.7915 16.2339C15.8095 16.2339 17.3176 17.7241 19.1365 19.5384C22.6255 23.0275 22.63 23.0275 23.0307 23.032C23.2288 23.032 23.6205 22.8699 23.7375 22.7348C23.8681 22.5863 23.9987 22.2531 23.9987 22.064C23.9987 21.6634 23.9942 21.6589 20.5051 18.1698C18.6908 16.3509 17.2006 14.8473 17.2006 14.8293C17.2006 14.8113 17.3312 14.6132 17.4932 14.3836C18.6097 12.8034 19.177 11.0431 19.1815 9.13421C19.1815 6.66711 18.2361 4.38458 16.4938 2.65127C15.1162 1.28268 13.4234 0.418302 11.483 0.0941721C10.8707 -0.00940793 9.60117 -0.0319279 8.96189 0.0491621L8.96188 0.0491721Z" fill="black"/>
</g>
</svg>
