<svg width="59" height="60" viewBox="0 0 59 60" fill="none" xmlns="http://www.w3.org/2000/svg">
<path fill-rule="evenodd" clip-rule="evenodd" d="M11.1177 1.22029C10.8562 1.35666 10.5948 1.6181 10.4584 1.89087C10.231 2.33411 10.231 2.52734 10.231 17.5188C10.231 25.8613 10.2083 32.6921 10.1742 32.6921C10.1401 32.6921 9.90134 32.5898 9.65124 32.4534C8.9919 32.1238 7.57094 31.7828 6.83203 31.7828C3.12613 31.7942 0 34.9198 0 38.6023C0 42.2848 3.1375 45.4217 6.82067 45.4217C9.95818 45.4217 12.8229 43.0918 13.4708 40.023C13.6072 39.3638 13.6413 37.7726 13.6413 30.7826V22.3379L14.3575 22.8379C14.744 23.1107 15.8808 23.8154 16.8812 24.3951C19.7231 26.0431 20.553 26.6341 21.667 27.7366C23.1903 29.2483 23.7928 30.6121 23.9519 32.8626C23.9974 33.5104 24.0997 34.0446 24.2361 34.306C24.4748 34.7948 25.1342 35.1925 25.6912 35.1925C26.2596 35.1925 26.9075 34.7948 27.169 34.2833C27.385 33.8514 27.3964 33.6354 27.3964 28.0094C27.3964 24.8042 27.3395 21.7923 27.2827 21.3263C26.9303 18.6554 25.9299 16.5413 24.1679 14.791C23.1448 13.7681 21.9967 12.927 19.6208 11.4381C18.5863 10.7903 17.37 9.96057 16.9153 9.59685C14.8236 7.94882 13.8687 6.10756 13.6868 3.36841C13.5959 2.04998 13.3685 1.5385 12.7319 1.2089C12.1749 0.92474 11.6633 0.92474 11.1177 1.22028L11.1177 1.22029Z" fill="#E959EF"/>
<path fill-rule="evenodd" clip-rule="evenodd" d="M43.9871 18.2123C37.2481 20.1333 31.7704 21.7587 31.6113 21.8724C31.4522 21.9861 31.225 22.2248 31.0999 22.3953C30.8613 22.7022 30.8613 22.7931 30.8272 34.5806C30.8158 41.1052 30.7704 46.4477 30.7363 46.4477C30.7135 46.4477 30.4749 46.3454 30.2249 46.209C29.5657 45.8793 28.1452 45.5383 27.4065 45.5383C23.7018 45.5497 20.5766 48.6756 20.5766 52.3585C20.5766 56.0414 23.7131 59.1786 27.3952 59.1786C30.5317 59.1786 33.3956 56.8484 34.0433 53.7794C34.1797 53.1201 34.2138 51.4491 34.2138 43.8561C34.2138 38.8432 34.2479 34.7398 34.282 34.7398C34.3274 34.7398 53.9082 29.1927 54.5901 28.9881C54.7719 28.9313 54.7832 29.2382 54.7832 34.2737C54.7832 37.2178 54.7605 39.6276 54.7264 39.6276C54.6923 39.6276 54.4537 39.5253 54.2037 39.3888C53.5445 39.0592 52.124 38.7182 51.3853 38.7182C47.6805 38.7296 44.5553 41.8555 44.5553 45.5383C44.5553 49.2212 47.6919 52.3585 51.3739 52.3585C54.5105 52.3585 57.3743 50.0283 58.0221 46.9592C58.1585 46.2772 58.1926 43.9129 58.1926 31.1251C58.1926 16.2799 58.1926 16.0866 57.9653 15.6433C57.7039 15.1205 57.0448 14.734 56.4652 14.7453C56.2606 14.7453 50.6466 16.314 43.9871 18.2123Z" fill="#E959EF"/>
</svg>
