<svg width="593" height="382" viewBox="0 0 593 382" fill="none" xmlns="http://www.w3.org/2000/svg">
<path d="M57.8881 326.68C42.5498 322.93 27.1808 314.599 16.9538 302.45C-14.9931 264.495 22.444 215.85 59.6911 200.532C77.8552 193.061 94.226 184.137 99.565 163.425C104.672 143.611 90.6865 122.903 87.0776 103.998C79.8104 65.9346 114.038 36.4928 150.148 36.4883C183.433 36.4856 198.416 49.1721 231.442 71.2989C256.407 88.0236 303.285 97.8312 339.299 94.2962C382.19 90.0859 398.362 71.298 432.548 56.0045C456.075 45.4795 488.873 43.2281 510.881 58.8284C534.392 75.4929 525.457 108.125 528.133 132.491C528.807 138.619 530.402 144.608 533.457 149.998C552.719 183.988 592.174 185.736 592.174 236.069C592.174 273.902 529.279 287.936 499.162 292.042" stroke="#A9C6EA" stroke-dasharray="5 3.5"/>
<path d="M48.888 136.967H61.7266" stroke="#A9C6EA"/>
<path d="M61.7266 144.108H74.5652" stroke="#A9C6EA"/>
<path d="M440.693 80.8779H453.532" stroke="#A9C6EA"/>
<path d="M432.543 88.0195H445.382" stroke="#A9C6EA"/>
<path d="M452.116 84.613H469.562" stroke="#A9C6EA"/>
<path d="M564.081 233.073H573.328" stroke="#A9C6EA"/>
<path d="M555.707 226.013H568.545" stroke="#A9C6EA"/>
<path d="M139.569 46.2163H152.407" stroke="#A9C6EA"/>
<path d="M118.649 200.94H139.762" stroke="#A9C6EA"/>
<path d="M144.224 200.94H155.181" stroke="#A9C6EA"/>
<path fill-rule="evenodd" clip-rule="evenodd" d="M390.868 174.017C390.868 176.305 389.013 178.16 386.724 178.16C384.437 178.16 382.582 176.305 382.582 174.017C382.582 171.729 384.437 169.874 386.724 169.874C389.013 169.874 390.868 171.729 390.868 174.017Z" stroke="#A9C6EA"/>
<path fill-rule="evenodd" clip-rule="evenodd" d="M553.735 145.34C553.735 147.63 551.88 149.487 549.591 149.487C547.303 149.487 545.448 147.63 545.448 145.34C545.448 143.048 547.303 141.191 549.591 141.191C551.88 141.191 553.735 143.048 553.735 145.34Z" stroke="#A9C6EA"/>
<path fill-rule="evenodd" clip-rule="evenodd" d="M399.893 56.0002C399.893 58.2908 398.038 60.1479 395.751 60.1479C393.463 60.1479 391.609 58.2908 391.609 56.0002C391.609 53.7088 393.463 51.8517 395.751 51.8517C398.038 51.8517 399.893 53.7088 399.893 56.0002Z" stroke="#A9C6EA"/>
<path fill-rule="evenodd" clip-rule="evenodd" d="M480.864 62.2062C480.864 63.3432 479.941 64.2654 478.801 64.2654C477.662 64.2654 476.739 63.3432 476.739 62.2062C476.739 61.0692 477.662 60.1479 478.801 60.1479C479.941 60.1479 480.864 61.0692 480.864 62.2062Z" stroke="#A9C6EA"/>
<path fill-rule="evenodd" clip-rule="evenodd" d="M354.814 217.104C354.814 218.24 353.893 219.161 352.756 219.161C351.62 219.161 350.699 218.24 350.699 217.104C350.699 215.967 351.62 215.046 352.756 215.046C353.893 215.046 354.814 215.967 354.814 217.104Z" stroke="#A9C6EA"/>
<path fill-rule="evenodd" clip-rule="evenodd" d="M115.27 69.2341C115.27 70.373 114.345 71.2975 113.206 71.2975C112.067 71.2975 111.142 70.373 111.142 69.2341C111.142 68.0943 112.067 67.1699 113.206 67.1699C114.345 67.1699 115.27 68.0943 115.27 69.2341Z" stroke="#A9C6EA"/>
<path fill-rule="evenodd" clip-rule="evenodd" d="M22.0837 198.058C22.0837 199.195 21.1626 200.117 20.0258 200.117C18.889 200.117 17.9679 199.195 17.9679 198.058C17.9679 196.922 18.889 196 20.0258 196C21.1626 196 22.0837 196.922 22.0837 198.058Z" stroke="#A9C6EA"/>
<path fill-rule="evenodd" clip-rule="evenodd" d="M123.632 155.821C123.632 156.958 122.711 157.88 121.574 157.88C120.437 157.88 119.516 156.958 119.516 155.821C119.516 154.685 120.437 153.763 121.574 153.763C122.711 153.763 123.632 154.685 123.632 155.821Z" stroke="#A9C6EA"/>
<path d="M60.0212 91.8541V96.7319" stroke="#A9C6EA"/>
<path d="M62.4612 94.2915H57.5835" stroke="#A9C6EA"/>
<path d="M345.453 26.7661V31.6439" stroke="#A9C6EA"/>
<path d="M347.895 29.2026H343.017" stroke="#A9C6EA"/>
<path d="M499.012 102.216V107.094" stroke="#A9C6EA"/>
<path d="M501.453 104.657H496.575" stroke="#A9C6EA"/>
<path d="M578.783 167.435V172.313" stroke="#A9C6EA"/>
<path d="M581.225 169.872H576.347" stroke="#A9C6EA"/>
<path d="M555.708 253.071V257.959" stroke="#A9C6EA"/>
<path d="M558.146 255.515H553.268" stroke="#A9C6EA"/>
<path fill-rule="evenodd" clip-rule="evenodd" d="M376.075 193.357C367.964 191 363.3 182.515 365.656 174.404C368.013 166.293 376.499 161.629 384.61 163.986C392.721 166.342 397.385 174.829 395.028 182.939C392.671 191.05 384.186 195.714 376.075 193.357ZM374.556 198.586C363.556 195.391 357.231 183.884 360.427 172.884C363.624 161.886 375.131 155.561 386.129 158.756C397.128 161.952 403.454 173.459 400.257 184.459C397.061 195.457 385.554 201.783 374.556 198.586H374.556ZM416.053 199.004C417.612 196.261 418.887 193.301 419.806 190.139C420.725 186.977 421.235 183.794 421.389 180.643L412.718 179.442C412.79 176.517 412.456 173.636 411.764 170.863L419.975 167.796C418.26 161.573 415.099 155.822 410.763 151.039L403.774 156.328C401.805 154.258 399.55 152.432 397.043 150.925L400.676 142.961C397.933 141.402 394.972 140.127 391.81 139.208C388.647 138.289 385.465 137.779 382.314 137.625L381.113 146.296C378.188 146.225 375.306 146.558 372.534 147.25L369.468 139.04C363.244 140.754 357.493 143.915 352.711 148.25L357.999 155.239C355.929 157.21 354.103 159.464 352.595 161.972L344.631 158.339C343.072 161.082 341.798 164.042 340.879 167.204C339.959 170.366 339.45 173.549 339.296 176.7L347.967 177.901C347.896 180.826 348.229 183.707 348.921 186.481L340.71 189.547C342.424 195.771 345.586 201.521 349.922 206.304L356.91 201.015C358.881 203.086 361.135 204.911 363.643 206.418L360.009 214.382C362.752 215.941 365.712 217.216 368.875 218.135C372.037 219.054 375.219 219.564 378.371 219.718L379.572 211.047C382.497 211.119 385.378 210.785 388.151 210.094L391.217 218.303C397.441 216.589 403.192 213.429 407.974 209.093L402.686 202.103C404.756 200.133 406.582 197.879 408.089 195.372L416.053 199.004Z" fill="#E4ECF9"/>
<path fill-rule="evenodd" clip-rule="evenodd" d="M407.335 124.436C402.82 125.938 397.941 123.496 396.438 118.98C394.936 114.464 397.378 109.585 401.894 108.083C406.41 106.58 411.289 109.024 412.791 113.539C414.294 118.054 411.851 122.933 407.335 124.436ZM424.83 114.508C424.694 112.956 424.381 111.396 423.868 109.853C423.355 108.31 422.67 106.874 421.849 105.55L417.988 107.493C417.197 106.285 416.254 105.208 415.195 104.274L417.671 100.726C415.229 98.6776 412.332 97.2265 409.228 96.4992L407.872 100.608C406.49 100.32 405.062 100.21 403.62 100.301L402.864 96.0446C401.312 96.1805 399.751 96.492 398.208 97.006C396.665 97.5191 395.229 98.2041 393.905 99.0251L395.849 102.886C394.64 103.677 393.562 104.621 392.63 105.679L389.081 103.203C387.032 105.645 385.582 108.542 384.854 111.645L388.963 113.002C388.674 114.383 388.564 115.812 388.655 117.254L384.4 118.01C384.536 119.562 384.848 121.123 385.361 122.666C385.875 124.209 386.56 125.645 387.381 126.969L391.242 125.025C392.033 126.234 392.976 127.312 394.035 128.244L391.558 131.793C394 133.842 396.898 135.292 400.001 136.019L401.358 131.911C402.739 132.2 404.168 132.31 405.609 132.219L406.366 136.474C407.918 136.338 409.479 136.027 411.022 135.514C412.564 134.999 414 134.314 415.324 133.493L413.38 129.633C414.589 128.841 415.667 127.898 416.6 126.839L420.149 129.316C422.197 126.874 423.648 123.977 424.375 120.874L420.267 119.516C420.555 118.135 420.664 116.707 420.574 115.265L424.83 114.508Z" fill="#E4ECF9"/>
<path fill-rule="evenodd" clip-rule="evenodd" d="M185.439 100.534C178.528 102.833 171.061 99.0944 168.761 92.1836C166.461 85.2719 170.199 77.8048 177.111 75.5057C184.023 73.2057 191.489 76.9442 193.789 83.8559C196.089 90.7676 192.35 98.2338 185.439 100.534L185.439 100.534ZM212.213 85.3394C212.006 82.9647 211.528 80.5756 210.743 78.2144C209.957 75.8532 208.908 73.6549 207.652 71.6286L201.743 74.6037C200.532 72.7538 199.087 71.1047 197.467 69.677L201.258 64.2452C197.52 61.1098 193.087 58.8899 188.336 57.7764L186.26 64.0652C184.146 63.6232 181.96 63.4548 179.753 63.5944L178.594 57.0806C176.22 57.2885 173.832 57.7656 171.469 58.5515C169.108 59.3374 166.91 60.3861 164.884 61.6427L167.859 67.5516C166.009 68.7624 164.36 70.2063 162.932 71.8275L157.501 68.0359C154.366 71.7735 152.145 76.2079 151.031 80.9582L157.32 83.0349C156.878 85.1486 156.711 87.3342 156.849 89.5415L150.336 90.6992C150.544 93.0748 151.022 95.463 151.807 97.8242C152.592 100.186 153.641 102.385 154.899 104.411L160.807 101.436C162.018 103.286 163.462 104.935 165.083 106.363L161.292 111.793C165.029 114.929 169.463 117.15 174.213 118.263L176.29 111.974C178.404 112.416 180.59 112.585 182.797 112.445L183.955 118.958C186.33 118.751 188.719 118.273 191.08 117.488C193.441 116.702 195.64 115.653 197.666 114.397L194.691 108.488C196.541 107.276 198.19 105.832 199.618 104.212L205.049 108.003C208.185 104.266 210.405 99.8307 211.518 95.0813L205.229 93.0046C205.671 90.89 205.84 88.7052 205.7 86.498L212.213 85.3394Z" fill="#E4ECF9"/>
<path fill-rule="evenodd" clip-rule="evenodd" d="M130.373 131.35C125.778 130.014 123.135 125.208 124.471 120.614C125.806 116.018 130.613 113.376 135.208 114.711C139.802 116.047 142.444 120.853 141.109 125.448C139.774 130.043 134.967 132.685 130.373 131.35V131.35ZM129.511 134.312C123.281 132.501 119.698 125.983 121.509 119.752C123.319 113.522 129.837 109.939 136.068 111.749C142.299 113.56 145.882 120.078 144.071 126.309C142.261 132.539 135.743 136.123 129.511 134.312V134.312ZM153.019 134.549C153.902 132.995 154.625 131.318 155.145 129.526C155.666 127.735 155.955 125.933 156.042 124.148L151.13 123.467C151.17 121.81 150.982 120.178 150.589 118.607L155.241 116.871C154.269 113.344 152.479 110.087 150.022 107.377L146.064 110.374C144.948 109.201 143.671 108.167 142.25 107.313L144.308 102.801C142.754 101.918 141.077 101.195 139.286 100.675C137.494 100.155 135.692 99.8659 133.907 99.7786L133.227 104.691C131.569 104.65 129.937 104.839 128.366 105.231L126.63 100.58C123.104 101.551 119.846 103.342 117.137 105.798L120.133 109.756C118.96 110.873 117.926 112.15 117.073 113.57L112.561 111.513C111.678 113.066 110.955 114.743 110.434 116.535C109.914 118.326 109.625 120.128 109.538 121.913L114.45 122.594C114.41 124.251 114.598 125.883 114.99 127.454L110.339 129.191C111.31 132.717 113.101 135.974 115.557 138.683L119.517 135.688C120.633 136.86 121.909 137.895 123.33 138.748L121.272 143.26C122.826 144.143 124.503 144.866 126.294 145.386C128.085 145.906 129.888 146.195 131.673 146.283L132.353 141.37C134.011 141.411 135.643 141.223 137.213 140.83L138.951 145.481C142.476 144.51 145.734 142.72 148.443 140.263L145.447 136.304C146.62 135.189 147.654 133.911 148.508 132.491L153.019 134.549Z" fill="#E4ECF9"/>
<path fill-rule="evenodd" clip-rule="evenodd" d="M266.289 381.383C269.03 375.726 283.321 350.968 298.387 342.789C300.302 341.749 302.322 340.786 304.491 340.581C306.661 340.378 309.027 341.065 310.34 342.804C311.538 344.39 311.671 346.556 311.324 348.514C308.588 364.002 290.952 369.932 282.338 381.383" fill="#D7E3F4"/>
<path fill-rule="evenodd" clip-rule="evenodd" d="M266.292 381.288C266.292 381.288 280.472 353.298 294.316 336.626C300.87 328.733 305.371 314.112 298.481 309.731C288.509 303.394 278.712 317.512 274.222 324.521C267.433 335.123 262.439 346.855 258.587 358.808C258.029 360.538 252.944 381.288 252.843 381.288H256.281L266.292 381.288Z" fill="#D7E3F4"/>
<path d="M293.407 317.745C280.33 334.277 269.482 358.75 262.275 381.287" stroke="white"/>
<path fill-rule="evenodd" clip-rule="evenodd" d="M236.556 381.288C236.556 381.288 234.909 338.222 215.856 318.311C210.709 312.932 202.269 307.341 195.343 305.81C186.368 303.825 186.612 314.382 188.237 321.222C190.343 330.086 197.586 335.613 202.809 342.215C212.421 354.364 218.157 362.382 225.174 381.288" fill="#B2CDED"/>
<path fill-rule="evenodd" clip-rule="evenodd" d="M242.289 381.288C247.434 371.876 245.624 331.631 243.044 319.024C241.251 310.263 237.572 301.714 232.54 294.718C227.98 288.378 214.351 274.403 206.331 280.082C201.692 283.366 208.718 295.196 210.572 298.749C216.582 310.266 221.347 322.58 225.071 335.245C229.38 349.896 232.638 365.293 233.803 380.703C233.818 380.897 233.831 381.092 233.844 381.288" fill="#D7E3F4"/>
<path fill-rule="evenodd" clip-rule="evenodd" d="M243.23 381.288C241.535 358.754 242.62 324.171 252.779 304.636C264.299 282.484 279.317 272.257 281.496 280.89C287.818 305.93 262.45 373.274 255.305 381.288" fill="#B2CDED"/>
<path d="M192.826 313.006C213.331 327.299 227.484 354.371 230.119 381.288" stroke="white"/>
<path d="M213.807 287.266C223.88 296.263 229.001 310.335 232.097 323.961C236.361 342.727 238.412 361.96 239.085 381.288" stroke="white"/>
<path d="M275.021 290.368C262.618 318.859 252.158 349.642 250.408 381.288" stroke="white"/>
<path d="M304.284 345.985C304.284 345.985 286.156 358.025 273.504 381.288" stroke="white"/>
<path fill-rule="evenodd" clip-rule="evenodd" d="M489.751 381.213C492.444 345.62 489.444 310.711 503.004 276.983C506.852 267.41 515.621 252.309 527.749 251.793C546.48 250.995 535.011 288.627 531.618 302.709C529.436 311.764 526.182 320.772 522.801 329.432C516.808 344.786 507.794 366.254 500.983 381.213" fill="#B2CDED"/>
<path fill-rule="evenodd" clip-rule="evenodd" d="M480.028 381.213C474.132 366.125 468.362 350.989 462.529 335.875C457.356 322.472 451.336 309.365 447.156 295.596C443.974 285.115 435.752 261.096 447.789 253.713C469.225 240.566 486.356 291.44 488.617 309.507C491.598 333.321 490.954 357.275 491.311 381.213" fill="#D7E3F4"/>
<path fill-rule="evenodd" clip-rule="evenodd" d="M462.994 381.213C462.994 381.213 450.467 365.212 444.817 357.708C432.195 340.945 416.633 322.738 418.956 303.895C419.491 299.559 421.08 294.731 425.438 292.166C428.103 290.598 431.411 290.162 434.438 290.45C444.693 291.428 453.882 306.32 458.496 313.955C467.531 328.907 481.524 381.213 481.524 381.213" fill="#B2CDED"/>
<path d="M453.408 264.255C468.701 295.18 483.628 352.446 483.994 381.213" stroke="white"/>
<path d="M429.635 299.777C443.089 325.622 470.452 381.213 470.452 381.213" stroke="white"/>
<path d="M526.967 259.986C515.988 284.47 500.944 337.541 494.885 381.288" stroke="white"/>
<path fill-rule="evenodd" clip-rule="evenodd" d="M501.512 381.213C501.512 381.213 507.773 353.32 512.107 337.487C516.819 320.268 532.237 293.915 548.443 286.428C552.174 284.704 556.67 283.52 560.278 285.487C562.483 286.689 563.987 288.921 564.8 291.298C567.559 299.353 554.064 324.789 549.424 331.928C540.337 345.906 527.322 368.117 517.003 381.213" fill="#D7E3F4"/>
<path d="M557.264 292.035C538.107 308.669 512.481 361.708 505.316 381.213" stroke="white"/>
<path fill-rule="evenodd" clip-rule="evenodd" d="M85.7515 363.859C83.2978 350.851 79.2743 325.058 76.222 309.228C74.7449 301.569 70.4694 292.213 67.7564 284.946C62.8058 271.687 50.8433 248.646 36.0095 249.878C17.6031 251.406 32.4783 284.497 37.1652 296.99C40.1788 305.021 44.2374 312.881 48.386 320.407C55.7408 333.75 66.6448 352.33 74.762 365.213" fill="#B2CDED"/>
<path fill-rule="evenodd" clip-rule="evenodd" d="M96.3795 349.821C91.8876 338.073 93.1011 323.131 93.1164 310.696C93.1434 288.318 100.915 256.858 115.488 242.172C121.494 236.119 131.434 229.387 137.891 238.641C144.006 247.404 136.936 271.223 134.709 281.457C130.347 301.499 109.456 338.619 103.422 358.024" fill="#B2CDED"/>
<path d="M127.191 248.874C116.836 275.732 102.913 324.736 99.3615 353.3" stroke="white"/>
<path d="M37.5613 257.285C50.6845 278.393 69.9203 323.605 80.0978 362.955" stroke="white"/>
<path fill-rule="evenodd" clip-rule="evenodd" d="M86.28 335.421C91.8009 326.385 98.3478 297.056 99.841 286.573C101.942 271.833 102.168 256.26 98.5197 241.74C96.0572 231.944 84.7913 202.637 70.6533 215.854C64.0145 222.061 65.0739 255.886 65.865 264.94C67.414 282.672 76.5972 314.424 79.7483 331.942" fill="#D7E3F4"/>
<path d="M78.4825 223.416C88.1893 248.702 85.732 311.54 82.6977 333.516" stroke="white"/>
<path d="M-0.000373107 381.289H565.169" stroke="#648ACC"/>
<path fill-rule="evenodd" clip-rule="evenodd" d="M228.099 126.826C230.861 124.099 237.564 114.886 238.325 115.113C239.087 115.34 236.771 118.612 237.432 118.681C238.091 118.75 241.995 113.958 242.695 114.387C243.644 114.97 239.383 119.664 239.383 119.664C239.383 119.664 244.306 114.756 244.983 115.498C245.463 116.025 241.878 119.945 240.695 121.615C242.206 119.968 244.971 117.59 245.458 118.148C245.939 118.701 243.556 121.42 241.842 123.602C243.039 122.341 245.342 120.163 245.815 120.657C246.288 121.149 240.52 129.934 235.238 136.345" fill="#F886BC"/>
<path fill-rule="evenodd" clip-rule="evenodd" d="M192.934 160.467C216.435 140.384 232.202 122.022 232.202 122.022L241.028 127.918C241.028 127.918 226.215 150.887 206.827 170.653" fill="#EEA886"/>
<path fill-rule="evenodd" clip-rule="evenodd" d="M185.914 167.18C190.768 161.082 198.786 155.183 198.786 155.183L213.021 166.696L200.528 181.358" fill="#BF2C4C"/>
<path fill-rule="evenodd" clip-rule="evenodd" d="M210.436 271.588L202.9 370.839L211.816 376.516C211.816 376.516 187.311 377.79 186.514 376.988C185.718 376.185 187.52 370.688 187.52 370.688L183.429 271.352L210.436 271.588Z" fill="#F886BC"/>
<path fill-rule="evenodd" clip-rule="evenodd" d="M190.417 376.918L186.768 373.332L187.284 371.448L192.892 376.927L195.592 376.937L205.105 372.244L215.432 378.704C216.626 379.451 216.093 381.293 214.685 381.287L200.804 381.238L196.374 378.157L195.116 378.153L195.105 381.216L186.066 381.184L186.081 376.903L190.417 376.918Z" fill="#28364C"/>
<path fill-rule="evenodd" clip-rule="evenodd" d="M190.649 271.066L168.416 370.839L177.335 376.516C177.335 376.516 152.825 377.79 152.028 376.988C151.231 376.185 153.034 370.689 153.034 370.689L159.531 271.066L190.649 271.066Z" fill="#F886BC"/>
<path fill-rule="evenodd" clip-rule="evenodd" d="M155.935 376.919L152.287 373.332L152.803 371.448L158.409 376.928L161.108 376.938L170.619 372.244L180.942 378.705C182.135 379.451 181.602 381.293 180.195 381.288L166.318 381.238L161.89 378.157L160.633 378.153L160.621 381.216L151.585 381.184L151.601 376.903L155.935 376.919Z" fill="#28364C"/>
<path fill-rule="evenodd" clip-rule="evenodd" d="M167.273 219.59C155.046 241.114 155.069 281.158 155.069 281.158H211.751C211.751 281.158 210.97 245.987 204.64 226.17L167.273 219.59Z" fill="#222222"/>
<path d="M186.213 221.529L187.629 281.158" stroke="#434343" stroke-width="0.75"/>
<path d="M198.759 224.033C198.759 224.033 195.893 231.299 186.213 233.812" stroke="#434343" stroke-width="0.75"/>
<path fill-rule="evenodd" clip-rule="evenodd" d="M248.881 198.668C252.605 199.753 263.913 201.124 264.086 201.9C264.259 202.675 260.275 202.246 260.536 202.856C260.797 203.466 266.881 204.543 266.847 205.364C266.801 206.476 260.628 205.039 260.628 205.039C260.628 205.039 267.311 206.95 266.991 207.903C266.766 208.578 261.599 207.355 259.565 207.135C261.738 207.654 265.16 208.911 264.911 209.608C264.663 210.299 261.128 209.541 258.388 209.104C260.072 209.537 263.095 210.488 262.895 211.142C262.695 211.794 253.969 210.552 245.8 209.057" fill="#EEA886"/>
<path fill-rule="evenodd" clip-rule="evenodd" d="M182.198 161.427C182.198 161.427 183.13 163.822 188.219 163.822C191.774 163.822 193.113 161.959 193.113 161.959C193.113 161.959 194.422 163.133 208.423 181.514C211.388 185.406 210.748 193.802 205.793 201.063C204.62 208.351 204.183 216.846 204.643 226.177H164.118C164.118 226.177 163.412 197.056 166.214 181.172C167.871 171.778 174.915 164.309 182.198 161.427L182.198 161.427Z" fill="#E74054"/>
<path fill-rule="evenodd" clip-rule="evenodd" d="M208.97 174.011C235.977 195.201 254.706 199.8 254.706 199.8L252.503 210.183C252.503 210.183 220.066 206.069 198.759 188.161" fill="#EEA886"/>
<path fill-rule="evenodd" clip-rule="evenodd" d="M193.283 162.663C200.212 163.829 210.845 174.026 210.845 174.026L199.56 190.59C199.56 190.59 194.77 187.273 188.276 181.692" fill="#E03B5A"/>
<path d="M199.565 189.964C191.109 184.817 187.307 181.042 187.307 181.042" stroke="#A31D4A" stroke-width="0.75"/>
<path fill-rule="evenodd" clip-rule="evenodd" d="M196.308 143.482C199.124 148.139 200.289 152.796 196.343 155.185C192.398 157.574 186.052 158.761 182.018 152.13C179.189 147.481 180.117 141.762 184.063 139.374C188.009 136.985 193.492 138.825 196.308 143.482Z" fill="#EEA886"/>
<path fill-rule="evenodd" clip-rule="evenodd" d="M193.031 144.668C193.162 145.143 193.535 145.702 194.002 145.685C194.134 145.68 194.232 145.599 194.275 145.476C194.547 144.667 192.759 143.676 193.031 144.668H193.031Z" fill="#0B0B3A"/>
<path d="M191.164 144.268C191.889 143.24 192.855 142.82 193.835 142.702" stroke="#0B0B3A" stroke-width="0.5" stroke-linecap="round"/>
<path fill-rule="evenodd" clip-rule="evenodd" d="M197.386 148.785L194.774 150.091C194.774 150.091 195.696 152.344 197.107 151.922C198.287 151.57 197.386 148.785 197.386 148.785Z" fill="white"/>
<path fill-rule="evenodd" clip-rule="evenodd" d="M193.287 162.659C193.287 162.659 191.03 163.89 188.217 163.82C184.137 163.719 182.192 162.089 182.192 162.089L184.882 150.605L194.774 151.326L193.287 162.659Z" fill="#EEA886"/>
<path fill-rule="evenodd" clip-rule="evenodd" d="M195.357 143.692C195.357 143.692 198.737 145.949 198.855 146.55C198.975 147.15 197.546 148.02 197.546 148.02" fill="#EEA886"/>
<path fill-rule="evenodd" clip-rule="evenodd" d="M185.915 136.161C185.551 136.345 184.291 136.005 183.834 136.005C183.192 136.006 182.549 136.052 181.917 136.168C178.153 136.855 175.342 139.969 173.569 143.175C172.405 145.28 171.427 147.617 169.309 148.953C164.653 151.888 158.542 150.838 153.325 152.594C148.017 154.381 143.951 159.768 145.375 165.516C145.84 167.398 146.829 169.11 147.41 170.959C148.652 174.904 148.071 179.497 150.441 182.887C151.077 183.797 151.898 184.566 152.782 185.238C156.745 188.248 162.137 189.284 166.934 187.957C171.732 186.63 175.824 182.97 177.678 178.35C179.784 173.098 179.126 166.841 182.199 162.09C183.634 159.87 185.777 158.176 187.203 155.951C188.506 153.917 189.191 150.09 189.347 147.641C189.384 147.076 188.371 142.371 188.674 142.371C191.112 142.371 194.235 140.854 195.676 139.413C193.84 135.383 189.151 134.521 185.915 136.161L185.915 136.161Z" fill="#0B0B3A"/>
<path fill-rule="evenodd" clip-rule="evenodd" d="M188.548 148.257C188.548 148.257 187.131 147.275 186.199 148.667C184.996 150.467 187.895 152.74 189.29 152.844C190.684 152.95 190.649 151.434 190.649 151.434" fill="#EEA886"/>
<path fill-rule="evenodd" clip-rule="evenodd" d="M403.898 237.43V119.723H492.034V237.43H403.898Z" fill="#D9E4F4" stroke="#648ACC"/>
<path fill-rule="evenodd" clip-rule="evenodd" d="M417.067 237.43V119.723H505.203V237.43H417.067Z" fill="white" stroke="#648ACC"/>
<path opacity="0.45" fill-rule="evenodd" clip-rule="evenodd" d="M432.728 144.272C430.742 144.272 429.133 142.662 429.133 140.676V132.485C429.133 130.499 430.742 128.89 432.728 128.89H490.248C492.234 128.89 493.843 130.499 493.843 132.485V140.677C493.843 142.662 492.234 144.272 490.248 144.272H432.728Z" fill="#D7E3F4"/>
<path opacity="0.45" fill-rule="evenodd" clip-rule="evenodd" d="M432.728 227.722C430.742 227.722 429.133 226.112 429.133 224.127V188.055C429.133 186.07 430.742 184.46 432.728 184.46H462.78C464.765 184.46 466.375 186.07 466.375 188.055V224.127C466.375 226.112 464.765 227.722 462.78 227.722H432.728Z" fill="#D7E3F4"/>
<path fill-rule="evenodd" clip-rule="evenodd" d="M433.959 159.579H431.996C430.415 159.579 429.133 157.897 429.133 155.821C429.133 153.746 430.415 152.064 431.996 152.064H433.959V159.579Z" fill="#B2CDED"/>
<path fill-rule="evenodd" clip-rule="evenodd" d="M436.826 155.821C436.826 157.897 435.544 159.579 433.963 159.579C432.381 159.579 431.1 157.897 431.1 155.821C431.1 153.746 432.381 152.064 433.963 152.064C435.544 152.064 436.826 153.746 436.826 155.821Z" fill="#D7E3F4"/>
<path fill-rule="evenodd" clip-rule="evenodd" d="M452.964 159.579H451.001C449.42 159.579 448.138 157.897 448.138 155.821C448.138 153.746 449.42 152.064 451.001 152.064H452.964V159.579Z" fill="#B2CDED"/>
<path fill-rule="evenodd" clip-rule="evenodd" d="M455.831 155.821C455.831 157.897 454.55 159.579 452.968 159.579C451.387 159.579 450.105 157.897 450.105 155.821C450.105 153.746 451.387 152.064 452.968 152.064C454.55 152.064 455.831 153.746 455.831 155.821Z" fill="#D7E3F4"/>
<path fill-rule="evenodd" clip-rule="evenodd" d="M471.979 159.579H470.013C468.428 159.579 467.144 157.897 467.144 155.821C467.144 153.746 468.428 152.064 470.013 152.064H471.979V159.579Z" fill="#B2CDED"/>
<path fill-rule="evenodd" clip-rule="evenodd" d="M474.838 155.821C474.838 157.897 473.556 159.579 471.974 159.579C470.393 159.579 469.112 157.897 469.112 155.821C469.112 153.746 470.393 152.064 471.974 152.064C473.556 152.064 474.838 153.746 474.838 155.821Z" fill="#D7E3F4"/>
<path fill-rule="evenodd" clip-rule="evenodd" d="M490.986 159.579H489.019C487.435 159.579 486.151 157.897 486.151 155.821C486.151 153.746 487.435 152.064 489.019 152.064H490.986V159.579Z" fill="#B2CDED"/>
<path fill-rule="evenodd" clip-rule="evenodd" d="M493.843 155.821C493.843 157.897 492.562 159.579 490.981 159.579C489.4 159.579 488.117 157.897 488.117 155.821C488.117 153.746 489.4 152.064 490.981 152.064C492.562 152.064 493.843 153.746 493.843 155.821Z" fill="#D7E3F4"/>
<path fill-rule="evenodd" clip-rule="evenodd" d="M433.959 177.774H431.996C430.415 177.774 429.133 176.091 429.133 174.017C429.133 171.942 430.415 170.26 431.996 170.26H433.959V177.774Z" fill="#B2CDED"/>
<path fill-rule="evenodd" clip-rule="evenodd" d="M436.826 174.017C436.826 176.091 435.544 177.774 433.963 177.774C432.381 177.774 431.1 176.091 431.1 174.017C431.1 171.942 432.381 170.26 433.963 170.26C435.544 170.26 436.826 171.942 436.826 174.017Z" fill="#D7E3F4"/>
<path fill-rule="evenodd" clip-rule="evenodd" d="M452.964 177.774H451.001C449.42 177.774 448.138 176.091 448.138 174.017C448.138 171.942 449.42 170.26 451.001 170.26H452.964V177.774Z" fill="#B2CDED"/>
<path fill-rule="evenodd" clip-rule="evenodd" d="M455.831 174.017C455.831 176.091 454.55 177.774 452.968 177.774C451.387 177.774 450.105 176.091 450.105 174.017C450.105 171.942 451.387 170.26 452.968 170.26C454.55 170.26 455.831 171.942 455.831 174.017Z" fill="#D7E3F4"/>
<path fill-rule="evenodd" clip-rule="evenodd" d="M471.979 177.774H470.013C468.428 177.774 467.144 176.091 467.144 174.017C467.144 171.942 468.428 170.26 470.013 170.26H471.979V177.774Z" fill="#B2CDED"/>
<path fill-rule="evenodd" clip-rule="evenodd" d="M474.838 174.017C474.838 176.091 473.556 177.774 471.974 177.774C470.393 177.774 469.112 176.091 469.112 174.017C469.112 171.942 470.393 170.26 471.974 170.26C473.556 170.26 474.838 171.942 474.838 174.017Z" fill="#D7E3F4"/>
<path fill-rule="evenodd" clip-rule="evenodd" d="M490.986 177.774H489.019C487.435 177.774 486.151 176.091 486.151 174.017C486.151 171.942 487.435 170.26 489.019 170.26H490.986V177.774Z" fill="#B2CDED"/>
<path fill-rule="evenodd" clip-rule="evenodd" d="M493.843 174.017C493.843 176.091 492.562 177.774 490.981 177.774C489.4 177.774 488.117 176.091 488.117 174.017C488.117 171.942 489.4 170.26 490.981 170.26C492.562 170.26 493.843 171.942 493.843 174.017Z" fill="#D7E3F4"/>
<path fill-rule="evenodd" clip-rule="evenodd" d="M69.2076 381.288H218.783V266.676H106.844L69.2076 310.688V381.288Z" fill="white" stroke="#648ACC"/>
<path fill-rule="evenodd" clip-rule="evenodd" d="M176.33 381.288H231.435V266.676H213.203L176.33 310.688V381.288Z" fill="#D9E4F4" stroke="#648ACC"/>
<path fill-rule="evenodd" clip-rule="evenodd" d="M176.326 310.687V381.293H69.204L69.204 310.687H176.326Z" fill="#D9E4F4" stroke="#648ACC"/>
<path fill-rule="evenodd" clip-rule="evenodd" d="M185.91 279.526C186.936 280.465 189.033 279.833 190.595 278.115C192.157 276.396 192.591 274.242 191.566 273.303C190.871 272.666 189.442 271.358 189.442 271.358L183.786 277.581C183.786 277.581 184.885 278.587 185.91 279.526V279.526Z" fill="#B2CDED"/>
<path fill-rule="evenodd" clip-rule="evenodd" d="M183.919 277.701C184.944 278.639 187.042 278.008 188.603 276.29C190.166 274.572 190.601 272.418 189.575 271.479C188.55 270.54 186.453 271.172 184.891 272.89C183.329 274.609 182.894 276.762 183.919 277.701Z" fill="#D7E3F4"/>
<path fill-rule="evenodd" clip-rule="evenodd" d="M169.233 279.526C170.258 280.465 172.356 279.833 173.917 278.115C175.48 276.396 175.914 274.242 174.889 273.303C174.194 272.666 172.766 271.358 172.766 271.358L167.11 277.581C167.11 277.581 168.208 278.587 169.233 279.526L169.233 279.526Z" fill="#B2CDED"/>
<path fill-rule="evenodd" clip-rule="evenodd" d="M167.242 277.701C168.267 278.639 170.364 278.008 171.927 276.29C173.488 274.572 173.924 272.418 172.899 271.479C171.873 270.54 169.776 271.172 168.214 272.89C166.652 274.609 166.217 276.762 167.242 277.701Z" fill="#D7E3F4"/>
<path fill-rule="evenodd" clip-rule="evenodd" d="M134.914 279.526C135.939 280.465 138.036 279.833 139.599 278.115C141.16 276.396 141.595 274.242 140.57 273.303C139.874 272.666 138.446 271.358 138.446 271.358L132.79 277.581C132.79 277.581 133.889 278.587 134.914 279.526V279.526Z" fill="#B2CDED"/>
<path fill-rule="evenodd" clip-rule="evenodd" d="M132.923 277.701C133.948 278.639 136.045 278.008 137.607 276.29C139.168 274.572 139.604 272.418 138.579 271.479C137.554 270.54 135.456 271.172 133.895 272.89C132.332 274.609 131.898 276.762 132.923 277.701Z" fill="#D7E3F4"/>
<path fill-rule="evenodd" clip-rule="evenodd" d="M117.234 279.526C118.259 280.465 120.356 279.833 121.918 278.115C123.479 276.396 123.915 274.242 122.89 273.303C122.194 272.666 120.765 271.358 120.765 271.358L115.11 277.581C115.11 277.581 116.209 278.587 117.234 279.526V279.526Z" fill="#B2CDED"/>
<path fill-rule="evenodd" clip-rule="evenodd" d="M115.243 277.701C116.267 278.639 118.365 278.008 119.926 276.29C121.488 274.572 121.924 272.418 120.898 271.479C119.873 270.54 117.776 271.172 116.214 272.89C114.653 274.609 114.218 276.762 115.243 277.701Z" fill="#D7E3F4"/>
<path opacity="0.45" fill-rule="evenodd" clip-rule="evenodd" d="M175.051 302.67L180.995 294.969H90.4882L83.688 302.67H175.051Z" fill="#D7E3F4"/>
<path d="M275.146 249.121V344.839C275.146 349.469 271.392 353.222 266.761 353.222H213.507C208.877 353.222 205.123 349.469 205.123 344.839V342.094" stroke="#648ACC"/>
<path d="M288.339 253.517V362.878C288.339 367.599 284.512 371.427 279.79 371.427H195.125C190.495 371.427 186.741 367.673 186.741 363.043V342.101" stroke="#648ACC"/>
<path d="M312.291 251.68V315.127C312.291 319.757 316.044 323.51 320.674 323.51H386.804C391.434 323.51 395.188 319.757 395.188 315.127V206.436C395.188 201.806 398.941 198.052 403.571 198.052H430.839" stroke="#648ACC"/>
<path d="M301.66 253.515V342.436C301.66 347.066 305.413 350.82 310.043 350.82H431.459C436.088 350.82 439.842 347.066 439.842 342.436V218.814" stroke="#648ACC"/>
<path fill-rule="evenodd" clip-rule="evenodd" d="M215.038 114.367C215.038 70.8017 250.355 35.4852 293.919 35.4852C337.483 35.4852 372.798 70.8017 372.798 114.367C372.798 131.733 367.183 147.785 357.674 160.814V160.814C346.414 177.782 317.159 196.938 317.159 208.415V221.527C317.159 224.144 315.037 226.266 312.42 226.266H299.744H288.094H275.417C272.8 226.266 270.678 224.144 270.678 221.527V208.415C270.678 196.938 241.423 177.782 230.163 160.814V160.814C220.655 147.785 215.038 131.733 215.038 114.367H215.038Z" fill="#FDD305"/>
<path fill-rule="evenodd" clip-rule="evenodd" d="M258.369 116.915C256.548 116.915 254.854 117.364 253.364 118.255C249.355 120.652 247.087 127.486 248.089 134.153C249.883 146.083 259.913 158.718 282.325 161.949C281.046 148.781 278.858 136.728 275.196 129.572C272.07 123.466 267.095 118.928 261.887 117.434C260.677 117.086 259.498 116.915 258.369 116.915ZM329.46 116.915C328.331 116.915 327.152 117.086 325.943 117.434C320.734 118.928 315.76 123.466 312.633 129.572C308.971 136.729 306.782 148.781 305.504 161.949C327.915 158.718 337.947 146.083 339.74 134.153C340.742 127.486 338.475 120.652 334.466 118.255C332.976 117.364 331.282 116.915 329.46 116.915ZM302.871 224.956C302.78 222.979 301.367 191.315 303.903 163.564C300.796 163.933 297.469 164.128 293.915 164.128C290.359 164.128 287.033 163.933 283.927 163.564C286.462 191.315 285.049 222.979 284.957 224.956L283.566 224.891C283.588 224.403 285.051 191.651 282.46 163.375C259.064 160.122 248.593 146.869 246.712 134.36C245.614 127.05 248.11 119.774 252.649 117.059C255.403 115.413 258.73 115.079 262.271 116.095C267.842 117.694 273.137 122.495 276.435 128.938C280.243 136.379 282.495 148.733 283.793 162.145C286.931 162.53 290.3 162.736 293.915 162.736C297.529 162.736 300.898 162.53 304.035 162.145C305.334 148.733 307.586 136.379 311.394 128.938C314.692 122.495 319.987 117.694 325.558 116.095C329.099 115.08 332.428 115.413 335.18 117.059C339.719 119.774 342.216 127.05 341.117 134.36C339.237 146.869 328.765 160.122 305.369 163.375C302.778 191.651 304.241 224.403 304.263 224.891L302.871 224.956Z" fill="white"/>
<path fill-rule="evenodd" clip-rule="evenodd" d="M359.66 118.896C357.161 118.896 355.135 116.87 355.135 114.37C355.135 86.3014 336.161 61.8931 308.995 55.0144C306.572 54.4013 305.105 51.9392 305.717 49.5157C306.331 47.0922 308.792 45.6231 311.215 46.2388C342.403 54.1357 364.184 82.1531 364.184 114.37C364.184 116.87 362.158 118.896 359.66 118.896H359.66Z" fill="#FFEE99"/>
<path fill-rule="evenodd" clip-rule="evenodd" d="M292.39 48.4963C292.39 50.9965 294.417 53.0232 296.916 53.0232C299.416 53.0232 301.441 50.9965 301.441 48.4963C301.441 45.996 299.416 43.9703 296.916 43.9703C294.417 43.9703 292.39 45.996 292.39 48.4963Z" fill="#FFEE99"/>
<g style="mix-blend-mode:multiply" opacity="0.55">
<path fill-rule="evenodd" clip-rule="evenodd" d="M372.645 119.032C368.292 151.376 342.177 184.862 293.914 184.862C245.651 184.862 220.511 149.81 215.183 119.032C216.092 134.602 221.506 148.961 230.156 160.815V160.815C241.416 177.782 270.673 196.939 270.673 208.415V221.527C270.673 224.144 272.795 226.266 275.412 226.266H288.09H299.74H312.417C315.033 226.266 317.155 224.144 317.155 221.527V208.415C317.155 196.939 346.412 177.782 357.672 160.815V160.815C366.323 148.961 371.736 134.602 372.645 119.032Z" fill="#FFC043"/>
</g>
<path fill-rule="evenodd" clip-rule="evenodd" d="M319.016 214.012H268.81V237.941C268.81 241.847 269.923 245.675 272.016 248.973V248.973C275.974 255.209 282.848 258.987 290.234 258.987H297.594C304.98 258.987 311.853 255.209 315.811 248.973V248.973C317.905 245.675 319.016 241.847 319.016 237.941L319.016 214.012Z" fill="#28364C"/>
<path fill-rule="evenodd" clip-rule="evenodd" d="M268.804 230.148C268.947 230.152 269.092 230.148 269.239 230.133L319.451 224.93C321.166 224.752 322.362 223.212 322.124 221.49C321.887 219.769 320.301 218.515 318.591 218.695L268.377 223.897C266.664 224.076 265.466 225.615 265.704 227.337C265.921 228.911 267.264 230.094 268.804 230.148Z" fill="#475577"/>
<path fill-rule="evenodd" clip-rule="evenodd" d="M268.804 241.101C268.947 241.106 269.092 241.101 269.239 241.086L319.451 235.879C321.166 235.701 322.362 234.161 322.124 232.437C321.887 230.714 320.301 229.463 318.591 229.64L268.377 234.847C266.664 235.024 265.466 236.565 265.704 238.288C265.921 239.865 267.264 241.047 268.804 241.101V241.101Z" fill="#475577"/>
<path fill-rule="evenodd" clip-rule="evenodd" d="M270.814 251.942C270.957 251.947 271.102 251.942 271.248 251.927L318.837 246.99C320.55 246.813 321.748 245.272 321.51 243.549C321.272 241.826 319.685 240.572 317.977 240.751L270.388 245.687C268.674 245.865 267.478 247.406 267.715 249.129C267.932 250.705 269.275 251.889 270.814 251.942Z" fill="#475577"/>
<path fill-rule="evenodd" clip-rule="evenodd" d="M293.915 2.00127V26.7862Z" fill="#FFCD5C"/>
<path d="M293.915 2.00127V26.7862" stroke="#FFC043" stroke-width="3" stroke-linecap="round" stroke-linejoin="round"/>
<path fill-rule="evenodd" clip-rule="evenodd" d="M338.611 11.8769L328.609 34.5488Z" fill="#FFCD5C"/>
<path d="M338.611 11.8769L328.609 34.5488" stroke="#FFC043" stroke-width="3" stroke-linecap="round" stroke-linejoin="round"/>
<path fill-rule="evenodd" clip-rule="evenodd" d="M376.293 39.2975L357.97 56.0001Z" fill="#FFCD5C"/>
<path d="M376.293 39.2975L357.97 56.0001" stroke="#FFC043" stroke-width="3" stroke-linecap="round" stroke-linejoin="round"/>
<path fill-rule="evenodd" clip-rule="evenodd" d="M249.218 11.8769L259.229 34.5488Z" fill="#FFCD5C"/>
<path d="M249.218 11.8769L259.229 34.5488" stroke="#FFC043" stroke-width="3" stroke-linecap="round" stroke-linejoin="round"/>
<path fill-rule="evenodd" clip-rule="evenodd" d="M211.535 39.2975L229.858 56.0001Z" fill="#FFCD5C"/>
<path d="M211.535 39.2975L229.858 56.0001" stroke="#FFC043" stroke-width="3" stroke-linecap="round" stroke-linejoin="round"/>
<path fill-rule="evenodd" clip-rule="evenodd" d="M185.037 342.228C185.037 341.283 185.803 340.517 186.747 340.517C187.692 340.517 188.457 341.283 188.457 342.228C188.457 343.172 187.692 343.938 186.747 343.938C185.803 343.938 185.037 343.172 185.037 342.228Z" fill="#648ACC"/>
<path fill-rule="evenodd" clip-rule="evenodd" d="M203.418 342.228C203.418 341.283 204.184 340.517 205.128 340.517C206.073 340.517 206.838 341.283 206.838 342.228C206.838 343.172 206.073 343.938 205.128 343.938C204.184 343.938 203.418 343.172 203.418 342.228Z" fill="#648ACC"/>
<path fill-rule="evenodd" clip-rule="evenodd" d="M438.137 218.814C438.137 217.872 438.9 217.108 439.842 217.108C440.784 217.108 441.547 217.872 441.547 218.814C441.547 219.755 440.784 220.519 439.842 220.519C438.9 220.519 438.137 219.755 438.137 218.814Z" fill="#648ACC"/>
<path fill-rule="evenodd" clip-rule="evenodd" d="M447.759 218.814C447.759 217.872 448.522 217.108 449.464 217.108C450.406 217.108 451.169 217.872 451.169 218.814C451.169 219.755 450.406 220.519 449.464 220.519C448.522 220.519 447.759 219.755 447.759 218.814Z" fill="#648ACC"/>
<path fill-rule="evenodd" clip-rule="evenodd" d="M460.791 218.814C460.791 219.755 460.026 220.519 459.081 220.519C458.137 220.519 457.37 219.755 457.37 218.814C457.37 217.872 458.137 217.109 459.081 217.109C460.026 217.109 460.791 217.872 460.791 218.814Z" fill="#648ACC"/>
<path fill-rule="evenodd" clip-rule="evenodd" d="M429.133 198.058C429.133 197.114 429.896 196.348 430.838 196.348C431.78 196.348 432.543 197.114 432.543 198.058C432.543 199.003 431.78 199.768 430.838 199.768C429.896 199.768 429.133 199.003 429.133 198.058Z" fill="#648ACC"/>
<path fill-rule="evenodd" clip-rule="evenodd" d="M345.743 311.611C338.237 293.659 346.703 273.022 364.653 265.517C382.602 258.012 403.238 266.481 410.744 284.433C418.25 302.386 409.783 323.022 391.834 330.527C373.884 338.032 353.249 329.563 345.743 311.611Z" fill="#F46072"/>
<path fill-rule="evenodd" clip-rule="evenodd" d="M353.385 303.671C350.266 289.945 358.865 276.288 372.591 273.169C386.318 270.05 399.974 278.649 403.093 292.376C406.212 306.102 397.613 319.758 383.886 322.878C370.16 325.997 356.504 317.398 353.385 303.671Z" fill="white"/>
<path fill-rule="evenodd" clip-rule="evenodd" d="M360.732 298.022C360.732 307.691 368.57 315.529 378.239 315.529C387.908 315.529 395.746 307.691 395.746 298.022C395.746 288.354 387.908 280.515 378.239 280.515C368.57 280.515 360.732 288.354 360.732 298.022Z" fill="#F46072"/>
<path fill-rule="evenodd" clip-rule="evenodd" d="M369.073 298.028C369.073 303.093 373.179 307.199 378.244 307.199C383.309 307.199 387.415 303.093 387.415 298.028C387.415 292.963 383.309 288.857 378.244 288.857C373.179 288.857 369.073 292.963 369.073 298.028Z" fill="white"/>
<path fill-rule="evenodd" clip-rule="evenodd" d="M376.825 299.446H382.582L376.825 293.69V299.446Z" fill="#0C3656"/>
<path fill-rule="evenodd" clip-rule="evenodd" d="M414.165 262.108H420.753V260.447H415.826V255.52H414.165V262.108Z" fill="#0C3656"/>
<path fill-rule="evenodd" clip-rule="evenodd" d="M417.176 259.086H423.764V257.425H418.837V252.498H417.176L417.176 259.086Z" fill="#0C3656"/>
<path fill-rule="evenodd" clip-rule="evenodd" d="M379.021 298.413L377.853 297.245L417.701 257.398L418.869 258.566L379.021 298.413Z" fill="#0C3656"/>
<path fill-rule="evenodd" clip-rule="evenodd" d="M107.31 235.165L102.964 243.417C102.964 243.417 99.9991 243.417 95.9088 241.398C91.8474 239.393 90.6643 236.631 90.6643 236.631L98.012 226.911" fill="#EEA886"/>
<path fill-rule="evenodd" clip-rule="evenodd" d="M116.545 219.579C120.586 221.96 113.911 237.044 110.264 237.999C106.617 238.953 99.377 231.826 97.2184 225.788C95.0606 219.749 102.004 216.447 106.087 215.22C110.169 213.994 116.545 219.579 116.545 219.579H116.545Z" fill="#EEA886"/>
<path d="M113.752 227.005C113.633 227.258 113.515 227.511 113.396 227.763" stroke="#00276F" stroke-width="0.75" stroke-linecap="round" stroke-linejoin="round"/>
<path d="M115.788 225.421C115.788 225.421 114.901 224.087 112.568 224.555" stroke="#00276F" stroke-width="0.75" stroke-linecap="round" stroke-linejoin="round"/>
<path fill-rule="evenodd" clip-rule="evenodd" d="M109.999 232.756L112.568 234.591C112.568 234.591 111.564 236.534 110.646 235.778C109.729 235.023 109.999 232.756 109.999 232.756H109.999Z" fill="white"/>
<path fill-rule="evenodd" clip-rule="evenodd" d="M120.173 222.884C118.337 222.293 116.32 221.176 114.93 220.479C113.073 220.863 111.143 222.604 111.093 224.577C111.083 225.021 111.038 225.625 110.597 225.686C110.294 225.728 110.044 225.432 109.958 225.138C109.874 224.844 109.884 224.523 109.764 224.242C109.519 223.67 108.766 223.441 108.179 223.643C107.59 223.845 107.168 224.377 106.927 224.95C106.313 226.416 105.766 228.19 107.166 229.419C107.384 229.611 107.638 229.776 107.779 230.03C108.083 230.58 107.724 231.251 107.365 231.767C106.251 233.367 104.578 235.165 101.293 235.165C98.9838 235.165 95.148 232.12 94.8951 230.599C94.8726 230.463 92.6626 221.144 96.763 215.215C98.9631 212.035 102.836 209.72 106.874 210.057C109.369 210.267 111.545 211.736 112.768 212.686C119.502 213.925 120.946 220.864 120.173 222.884V222.884Z" fill="#212237"/>
<path fill-rule="evenodd" clip-rule="evenodd" d="M116.29 228.388C116.29 228.388 116.886 232.907 115.995 233.401C115.103 233.896 113.223 232.609 113.223 232.609" fill="#EEA886"/>
<path fill-rule="evenodd" clip-rule="evenodd" d="M118.139 350.793L114.843 372.078L114.671 378.487L139.804 378.359C140.418 378.356 140.912 377.855 140.909 377.242V377.242C140.907 376.782 140.621 376.372 140.192 376.209L129.353 371.225L133.64 349.116" fill="#EEA886"/>
<path d="M118.139 350.793L114.843 372.078L114.671 378.487L139.804 378.359C140.418 378.356 140.912 377.855 140.909 377.242V377.242C140.907 376.782 140.621 376.372 140.192 376.209L129.353 371.225L133.64 349.116" stroke="#B9B9B9"/>
<path fill-rule="evenodd" clip-rule="evenodd" d="M142.01 378.089C141.753 377.284 141.282 376.379 140.806 376.174L129.314 371.224C122.979 373.792 114.779 371.829 114.779 371.829L113.317 380.483C113.318 380.769 113.552 381 113.839 380.999L141.817 380.856C142.381 380.853 142.018 378.114 142.01 378.089V378.089Z" fill="#22252D" stroke="#B9B9B9"/>
<path d="M131.803 371.714C131.158 372.554 130.614 373.469 130.182 374.435" stroke="#B9B9B9" stroke-width="0.75"/>
<path d="M133.246 372.584C132.578 373.505 132.311 374.037 131.912 374.891" stroke="#B9B9B9" stroke-width="0.75"/>
<path d="M134.471 373.218C134.019 373.824 133.576 374.663 133.224 375.333" stroke="#B9B9B9" stroke-width="0.75"/>
<path d="M113.463 379.124L142.124 378.98" stroke="#B9B9B9" stroke-width="0.75"/>
<path d="M114.264 374.891C114.264 374.891 121 375.028 121.579 379.087" stroke="#B9B9B9" stroke-width="0.75"/>
<path d="M138.451 375.153C138.451 375.153 136.592 377.795 136.226 379.012" stroke="#B9B9B9" stroke-width="0.75"/>
<path fill-rule="evenodd" clip-rule="evenodd" d="M40.1445 356.368L19.1774 353.869L12.7689 353.697L12.8968 378.831C12.9004 379.444 13.4 379.939 14.0139 379.936V379.936C14.473 379.933 14.8844 379.649 15.0464 379.218L20.0298 368.379L41.7586 370.826" fill="#EEA886"/>
<path d="M40.1445 356.368L19.1774 353.869L12.7689 353.697L12.8968 378.831C12.9004 379.444 13.4 379.939 14.0139 379.936V379.936C14.473 379.933 14.8844 379.649 15.0464 379.218L20.0298 368.379L41.7586 370.826" stroke="#B9B9B9"/>
<path fill-rule="evenodd" clip-rule="evenodd" d="M13.1639 381.037C13.9681 380.78 14.8712 380.308 15.0754 379.833L20.0209 368.341C17.4555 362.007 19.4164 353.807 19.4164 353.807L10.7713 352.344C10.4852 352.346 10.254 352.579 10.2558 352.865L10.3989 380.845C10.4016 381.408 13.1378 381.045 13.1639 381.037V381.037Z" fill="#22252D" stroke="#B9B9B9"/>
<path d="M19.5306 370.83C18.6915 370.186 17.7759 369.64 16.8098 369.209" stroke="#B9B9B9" stroke-width="0.75"/>
<path d="M18.6605 372.273C17.7395 371.605 17.208 371.338 16.3535 370.94" stroke="#B9B9B9" stroke-width="0.75"/>
<path d="M18.0384 373.5C17.4282 373.043 16.5854 372.595 15.9131 372.241" stroke="#B9B9B9" stroke-width="0.75"/>
<path d="M12.1211 352.49L12.2648 381.152" stroke="#B9B9B9" stroke-width="0.75"/>
<path d="M16.3535 353.283C16.3535 353.283 16.2165 360.017 12.1573 360.596" stroke="#B9B9B9" stroke-width="0.75"/>
<path d="M16.0914 377.477C16.0914 377.477 13.4506 375.619 12.2321 375.252" stroke="#B9B9B9" stroke-width="0.75"/>
<path fill-rule="evenodd" clip-rule="evenodd" d="M52.6116 297.947C48.1062 309.993 55.4598 327.481 55.4598 327.481L59.336 355.649L22.5705 354.031L22.9342 378.482C22.9342 378.482 62.3696 381.287 71.9089 381.287C81.4473 381.287 85.1345 379.153 87.9341 373.565C92.1047 365.237 86.1103 319.204 86.1103 318.441L79.565 288.871" fill="#22252D"/>
<path d="M26.9853 354.222L27.2588 378.781" stroke="#474B51" stroke-width="0.75"/>
<path fill-rule="evenodd" clip-rule="evenodd" d="M65.3658 304.459C65.3658 304.459 61.1924 325.788 82.3796 330.371C91.8479 332.419 115.923 333.092 115.923 333.092L111.812 366.044H135.852C135.852 366.044 140.833 341.216 142.333 324.61C143.33 313.561 138.579 308.62 129.646 307.513C122.085 306.575 99.3457 305.096 99.3457 305.096L95.5234 300.297" fill="#22252D"/>
<path d="M87.1235 331.139C87.1235 331.139 69.2965 331.193 65.0312 311.204" stroke="#474B51" stroke-width="0.75"/>
<path d="M74.4406 309.326C74.4406 309.326 79.2649 310.246 85.5473 309.836" stroke="#474B51" stroke-width="0.75"/>
<path d="M51.16 306.494C51.16 306.494 55.9093 307.86 58.9949 307.829" stroke="#474B51" stroke-width="0.75"/>
<path d="M113.397 361.753H136.739" stroke="#474B51" stroke-width="0.75"/>
<path fill-rule="evenodd" clip-rule="evenodd" d="M161.399 291.713V270.801H163.316V291.713H161.399Z" fill="#648ACC"/>
<path fill-rule="evenodd" clip-rule="evenodd" d="M158.827 268.685C158.827 266.738 160.408 265.159 162.358 265.159C164.308 265.159 165.888 266.738 165.888 268.685C165.888 270.632 164.308 272.21 162.358 272.21C160.408 272.21 158.827 270.632 158.827 268.685Z" fill="#648ACC"/>
<path fill-rule="evenodd" clip-rule="evenodd" d="M144.648 274.691L151.749 275.214C151.749 275.214 157.206 273.373 159.38 273.327C160.713 273.299 161.403 274.001 161.403 274.001V276.145C161.403 277.573 163.316 278.202 163.316 277.233V276.053C163.339 276.132 167.248 277.989 164.957 279.757C166.033 279.979 166.604 281.488 164.564 282.524C165.211 282.966 165.96 284.19 164.464 285.172C165.128 286.181 163.778 287.293 162.705 287.525C160.675 287.963 144.431 287.622 144.431 287.622" fill="#EEA886"/>
<path fill-rule="evenodd" clip-rule="evenodd" d="M103.235 242.648C114.894 258.774 108.631 264 100.253 305.137C72.2668 305.137 50.8479 300.298 50.8479 300.298C50.8479 300.298 57.5128 278.71 69.8651 254.684C75.755 243.228 85.5472 237.523 91.0896 236.068" fill="#E74054"/>
<path fill-rule="evenodd" clip-rule="evenodd" d="M85.5473 260.779C85.5473 260.779 103.563 288.989 112.125 290.24C125.72 292.226 148.2 291.669 148.2 291.669L149.541 271.823C149.541 271.823 120.644 270.362 119.451 269.684C115.581 267.484 103.236 242.649 103.236 242.649" fill="#DE3348"/>
<path d="M104.734 285.092C104.734 285.092 94.1614 276.32 87.1234 262.7" stroke="#273B7A" stroke-width="0.75"/>
<path d="M145.377 271.608L143.672 291.741" stroke="#273B7A" stroke-width="0.75"/>
<path fill-rule="evenodd" clip-rule="evenodd" d="M527.681 240.459C527.245 244.313 524.146 255.274 524.795 255.732C525.444 256.191 526.584 252.35 527.047 252.825C527.509 253.302 526.155 259.33 526.926 259.615C527.97 260.001 529.027 253.753 529.027 253.753C529.027 253.753 528.211 260.654 529.214 260.727C529.925 260.779 530.79 255.541 531.372 253.58C531.012 255.785 530.852 259.426 531.591 259.465C532.324 259.503 532.988 255.949 533.643 253.253C533.392 254.974 533.104 258.129 533.785 258.197C534.464 258.263 536.684 249.735 538.458 241.622" fill="#EEA886"/>
<path fill-rule="evenodd" clip-rule="evenodd" d="M540.234 187.562C540.234 187.562 546.475 198.645 547.376 205.448C549.596 222.206 535.689 250.593 535.689 250.593C535.689 250.593 525.582 247.836 525.582 246.569C525.582 245.301 532.625 215.473 532.625 215.473L522.523 192.159" fill="#EEA886"/>
<path fill-rule="evenodd" clip-rule="evenodd" d="M509.891 151.162L511.246 163.664C511.246 163.664 503.753 170.019 497.122 162.899L497.932 154.67L509.891 151.162Z" fill="#EEA886"/>
<path fill-rule="evenodd" clip-rule="evenodd" d="M499.438 138.648C499.438 138.648 491.324 149.816 494.638 154.002C497.084 157.09 503.501 157.441 505.484 156.227C505.91 153.939 511.169 146.38 510.325 144.699C507.103 138.271 499.438 138.648 499.438 138.648Z" fill="#EEA886"/>
<path fill-rule="evenodd" clip-rule="evenodd" d="M512.064 140.578C511.802 136.355 507.638 135.119 499.648 135.595C498.577 135.659 496.674 134.933 496.18 135.883C495.53 137.134 495.415 139.662 496.669 140.801C497.507 141.56 498.068 141.724 499.17 141.982C500.618 142.32 502.093 143.699 501.322 145.216C501.121 145.614 500.643 146.287 500.945 146.615C501.098 146.78 501.613 146.963 501.813 147.069C502.388 147.377 502.351 148.251 501.993 148.797C501.635 149.342 501.795 149.946 501.435 150.49C500.58 151.777 501.593 154.15 502.923 154.938C504.098 155.634 507.955 156.797 510.777 155.333C513.226 154.064 514.697 150.609 514.717 144.396C514.724 142.014 512.953 140.416 512.064 140.578L512.064 140.578Z" fill="#212237"/>
<path fill-rule="evenodd" clip-rule="evenodd" d="M500.324 146.96C501.641 145.29 502.707 145.556 503.289 146.473C504.065 147.696 502.509 150.238 501.784 150.672C500.316 151.551 499.126 151.459 499.014 150.266" fill="#EEA886"/>
<path fill-rule="evenodd" clip-rule="evenodd" d="M497.075 144.4C496.697 144.713 496.343 145.281 496.552 145.698C496.61 145.816 496.725 145.872 496.855 145.86C497.704 145.777 497.866 143.747 497.075 144.4Z" fill="#28364C"/>
<path d="M497.178 142.854C497.707 143.041 498.565 143.521 498.878 144.188" stroke="#28364C" stroke-width="0.75"/>
<path fill-rule="evenodd" clip-rule="evenodd" d="M497.168 150.356L495.312 149.363C495.312 149.363 494.092 151.643 494.957 152.124C495.912 152.656 497.168 150.356 497.168 150.356V150.356Z" fill="white"/>
<path fill-rule="evenodd" clip-rule="evenodd" d="M498.482 379.958L498.483 381.269L469.228 381.292L469.227 379.981L498.482 379.958Z" fill="#103BB2"/>
<path fill-rule="evenodd" clip-rule="evenodd" d="M494.323 369.156L496.855 369.753C496.855 369.753 497.824 373.059 498.195 375.36C498.567 377.662 498.486 379.954 498.486 379.954L469.225 379.976C469.225 379.976 469.99 377.441 476.972 373.354C479.724 371.742 481.124 369.9 481.124 369.9L494.323 369.156Z" fill="#22252D"/>
<path fill-rule="evenodd" clip-rule="evenodd" d="M497.338 358.622L496.857 369.75C496.857 369.75 495.628 371.235 490.658 371.24C485.688 371.243 481.122 369.896 481.122 369.896L480.14 354.884" fill="#F2B18F"/>
<path fill-rule="evenodd" clip-rule="evenodd" d="M540.162 379.958L540.163 381.269L510.898 381.292L510.897 379.981L540.162 379.958Z" fill="#103BB2"/>
<path fill-rule="evenodd" clip-rule="evenodd" d="M536 369.156L538.532 369.753C538.532 369.753 539.501 373.059 539.873 375.36C540.245 377.662 540.164 379.954 540.164 379.954L510.903 379.976C510.903 379.976 511.667 377.441 518.649 373.354C521.401 371.742 522.802 369.9 522.802 369.9L536 369.156Z" fill="#22252D"/>
<path fill-rule="evenodd" clip-rule="evenodd" d="M537.546 358.168L538.532 369.75C538.532 369.75 537.304 371.235 532.334 371.24C527.362 371.243 522.797 369.896 522.797 369.896L520.541 354.884" fill="#F2B18F"/>
<path fill-rule="evenodd" clip-rule="evenodd" d="M532.829 243.038C532.829 243.038 537.394 252.542 533.725 270.728C535.592 311.331 540.448 365.916 540.448 365.916L512.567 365.818C512.567 365.818 506.882 307.143 503.502 277.902C499.737 245.331 497.383 205.444 497.383 205.444" fill="#0070E4"/>
<path d="M517.06 365.82C517.06 365.82 511.379 307.142 508.002 277.9" stroke="#0B2E6B" stroke-width="0.75"/>
<path fill-rule="evenodd" clip-rule="evenodd" d="M479.584 244.862C479.584 244.862 476.622 287.665 476.622 308.206C476.622 328.749 475.302 365.916 475.302 365.916H503.488L513.975 268.759C522.564 258.474 521.937 236.156 519.867 227.465L491.919 219.836L479.584 244.862Z" fill="#0070E4"/>
<path d="M508.219 322.11L513.977 268.759C521.179 260.73 521.179 250.593 521.179 250.593" stroke="#0B2E6B" stroke-width="0.75"/>
<path d="M485.47 240.561L478.801 365.917" stroke="#0B2E6B" stroke-width="0.75"/>
<path d="M503.977 251.854L517.663 252.131" stroke="#0B2E6B" stroke-width="0.75"/>
<path d="M527.425 251.421L532.623 251.314" stroke="#0B2E6B" stroke-width="0.75"/>
<path fill-rule="evenodd" clip-rule="evenodd" d="M455.831 179.659C452.011 175.335 441.759 158.898 440.607 159.157C439.455 159.416 442.558 164.503 441.572 164.539C440.587 164.575 435.281 157.072 434.198 157.638C432.732 158.406 438.577 165.799 438.577 165.799C438.577 165.799 436.288 162.658 435.209 163.692C434.444 164.425 434.848 165.963 436.432 168.558C435.369 167.23 434.366 166.995 433.588 167.772C432.816 168.543 433.581 169.959 434.531 171.391C433.781 170.453 432.686 169.981 432.405 170.959C432.037 172.238 435.139 178.873 442.475 189.693" fill="#EEA886"/>
<path fill-rule="evenodd" clip-rule="evenodd" d="M511.108 162.392C511.108 162.392 527.255 163.069 532.098 181.445C534.282 189.73 535.687 246.544 535.687 246.544L476.684 246.149C476.684 246.149 477.47 194.787 478.79 183.666C481.201 163.343 497.205 162.076 497.205 162.076C497.205 162.076 497.934 163.873 504.188 163.873C510.443 163.873 511.108 162.392 511.108 162.392Z" fill="#FEB62B"/>
<path fill-rule="evenodd" clip-rule="evenodd" d="M511.111 162.389C530.272 162.389 542.07 188.712 542.07 188.712L530.022 194.764" fill="#F5AF29"/>
<path fill-rule="evenodd" clip-rule="evenodd" d="M485.798 199.739C485.798 199.739 475.57 214.456 467.312 215.255C456.212 216.329 436.465 179.379 436.465 179.379L448.921 170.967L465.982 192.422L471.801 183.726" fill="#EEA886"/>
<path fill-rule="evenodd" clip-rule="evenodd" d="M497.205 162.076C480.706 162.983 468.631 187.561 468.631 187.561L487.948 201.427L498.913 187.124" fill="#F5AF29"/>
<path d="M487.271 200.94L496.612 188.789" stroke="#846A6A" stroke-width="0.75"/>
<path d="M533.723 192.91C532.653 185.176 530.029 178.576 530.029 178.576" stroke="#846A6A" stroke-width="0.75"/>
<path fill-rule="evenodd" clip-rule="evenodd" d="M496.372 145.34C496.372 145.34 493.715 146.616 493.847 147.103C493.981 147.59 494.778 148.768 494.778 148.768" fill="#EEA886"/>
<path d="M475.303 359.809H503.977" stroke="#0B2E6B" stroke-width="0.75"/>
<path d="M511.976 360.052H539.869" stroke="#0B2E6B" stroke-width="0.75"/>
</svg>
