<svg width="47" height="33" viewBox="0 0 47 33" fill="none" xmlns="http://www.w3.org/2000/svg">
<path fill-rule="evenodd" clip-rule="evenodd" d="M36.5358 11.6769C42.1785 11.6769 46.753 16.2513 46.753 21.8941C46.753 27.5368 42.1785 32.1113 36.5358 32.1113C30.893 32.1113 26.3185 27.5368 26.3185 21.8941L26.2729 20.4345C26.2729 9.14882 35.4216 0 46.7074 0V5.83842C42.8088 5.83842 39.1432 7.35668 36.3864 10.1135C35.8557 10.6443 35.3714 11.209 34.9345 11.8021C35.4562 11.72 35.9909 11.6769 36.5358 11.6769H36.5358ZM10.2628 11.6769C15.9057 11.6769 20.4801 16.2513 20.4801 21.8941C20.4801 27.5368 15.9057 32.1113 10.2628 32.1113C4.62001 32.1113 0.04561 27.5368 0.04561 21.8941L0 20.4345C0 9.14882 9.14881 0 20.4345 0V5.83842C16.5358 5.83842 12.8703 7.35668 10.1135 10.1135C9.58286 10.6443 9.09855 11.209 8.66167 11.8021C9.18339 11.72 9.71806 11.6769 10.2629 11.6769H10.2628Z" fill="#E08825"/>
</svg>
