<svg width="64" height="47" viewBox="0 0 64 47" fill="none" xmlns="http://www.w3.org/2000/svg">
<path fill-rule="evenodd" clip-rule="evenodd" d="M43.6124 11.3333C43.8225 11.4568 46.2193 13.7918 48.9497 16.5346C53.1751 20.7847 53.9287 21.5878 54.0399 22.0078C54.3241 23.095 54.4105 22.9839 48.332 29.0871C45.2556 32.1634 42.587 34.7827 42.377 34.8815C41.8704 35.1533 41.0056 35.1286 40.5979 34.8198C39.8319 34.2514 39.4983 33.2384 39.8566 32.534C39.9307 32.3859 42.1669 30.0755 44.8232 27.4192L49.6663 22.5638L45.3792 18.2767C42.377 15.2621 41.0303 13.829 40.8944 13.4953C40.499 12.5564 41.0056 11.4815 42.0063 11.1356C42.5746 10.9503 43.0812 11.012 43.6124 11.3333L43.6124 11.3333ZM22.5475 11.3086C23.3011 11.8398 23.6347 12.8776 23.2764 13.5818C23.2023 13.7301 20.9661 16.0405 18.3098 18.6967L13.4667 23.5522L17.8033 27.9011C22.3993 32.5094 22.5475 32.7071 22.3622 33.5966C22.0904 34.8445 20.6325 35.487 19.5576 34.8074C19.3353 34.6715 16.9137 32.3241 14.1833 29.5813C8.7719 24.1452 8.80896 24.1946 9.09312 23.1198C9.20431 22.6996 10.0197 21.8348 14.8752 16.9671C20.8055 11.0244 20.9784 10.8761 21.868 11.0367C22.078 11.0738 22.3745 11.1973 22.5475 11.3086ZM37.3486 7.6145C37.8798 7.9357 38.2381 8.55346 38.2381 9.14648C38.2381 9.4801 36.6073 14.2737 33.2838 23.6633C30.5658 31.3851 28.2554 37.822 28.1566 37.9826C27.6624 38.7486 26.4022 38.9957 25.6362 38.4644C25.1667 38.1432 24.7714 37.4761 24.7714 36.9942C24.7714 36.8089 26.9458 30.4955 29.6021 22.9715C32.2584 15.435 34.5193 9.04763 34.6182 8.76348C34.8035 8.21984 35.2853 7.65154 35.7054 7.4786C36.1625 7.30557 36.9285 7.355 37.3486 7.61449V7.6145ZM7.3511 0.0409476C6.67159 0.152188 5.38669 0.621638 4.57127 1.04171C3.48405 1.61001 1.79144 3.26556 1.13664 4.40228C0.87719 4.84701 0.5189 5.65005 0.33358 6.19369L0 7.18203V23.0579V38.9339L0.33358 39.9222C0.82777 41.3801 1.47022 42.3932 2.65628 43.5669C3.75586 44.6789 4.67011 45.2472 6.23917 45.8155L7.04223 46.0997L31.1341 46.1367C58.1664 46.1738 56.1526 46.2357 58.2035 45.2348C60.6744 44.0365 62.4906 41.6396 63.0218 38.8969C63.2813 37.5378 63.2813 8.57806 63.0218 7.21912C62.4041 3.99451 60.1802 1.48648 56.8939 0.300448L56.0908 0.0162976L31.8754 0.00390758C18.5569 -0.00845242 7.52408 0.00390758 7.35111 0.0409576L7.3511 0.0409476Z" fill="#FFFFFC"/>
</svg>
