<svg width="29" height="26" viewBox="0 0 29 26" fill="none" xmlns="http://www.w3.org/2000/svg">
<g opacity="0.6">
<path fill-rule="evenodd" clip-rule="evenodd" d="M21.2371 24.5226C20.5853 24.5226 20.0553 23.9926 20.0553 23.3408C20.0553 22.6891 20.5853 22.159 21.2371 22.159C21.8889 22.159 22.4189 22.6891 22.4189 23.3408C22.4189 23.9926 21.8889 24.5226 21.2371 24.5226ZM11.4872 24.5226C10.8354 24.5226 10.3053 23.9926 10.3053 23.3408C10.3053 22.6891 10.8354 22.159 11.4872 22.159C12.139 22.159 12.669 22.6891 12.669 23.3408C12.669 23.9926 12.139 24.5226 11.4872 24.5226ZM28.4642 4.95875C28.306 4.73211 28.0516 4.59202 27.7752 4.58021L10.6389 3.84156C10.1472 3.82005 9.73632 4.19963 9.7153 4.68902C9.6944 5.17822 10.0734 5.59156 10.5627 5.61258L26.5389 6.30128L23.3976 16.1022H9.41868L6.89318 2.35103C6.83766 2.04965 6.63074 1.79822 6.34537 1.68626L2.20903 0.0612579C1.75315 -0.117222 1.23873 0.106698 1.05969 0.562018C0.880959 1.01759 1.10482 1.53232 1.56045 1.71136L5.23831 3.15621L7.80838 17.1487C7.88584 17.5694 8.25245 17.8749 8.68032 17.8749H9.10665L8.13314 20.579C8.05166 20.8055 8.08523 21.0571 8.2239 21.2538C8.36238 21.4507 8.5876 21.5678 8.82803 21.5678H9.51086C9.08775 22.0387 8.82803 22.6587 8.82803 23.3405C8.82803 24.8068 10.0211 25.9996 11.4871 25.9996C12.9531 25.9996 14.1462 24.8068 14.1462 23.3405C14.1462 22.6588 13.8865 22.0387 13.4635 21.5678H19.261C18.8377 22.0387 18.578 22.6587 18.578 23.3405C18.578 24.8068 19.7708 25.9996 21.2371 25.9996C22.7035 25.9996 23.8962 24.8068 23.8962 23.3405C23.8962 22.6588 23.6366 22.0387 23.2136 21.5678H24.044C24.452 21.5678 24.7826 21.2371 24.7826 20.8292C24.7826 20.4212 24.4519 20.0905 24.044 20.0905H9.87902L10.6766 17.8746H24.0439C24.4294 17.8746 24.7704 17.6256 24.8878 17.2589L28.581 5.73604C28.6659 5.47304 28.6223 5.18551 28.4642 4.95875H28.4642Z" fill="black"/>
</g>
</svg>
