<svg width="58" height="57" viewBox="0 0 58 57" fill="none" xmlns="http://www.w3.org/2000/svg">
<path fill-rule="evenodd" clip-rule="evenodd" d="M49.4032 6.91812C49.905 7.17459 50.2954 7.81027 50.2954 8.36789C50.2954 8.92545 49.905 9.56113 49.4032 9.8176C48.9794 10.0295 48.7564 10.0407 43.593 10.0407C38.2401 10.0407 38.2289 10.0407 37.7829 9.79532C36.6565 9.1597 36.6454 7.63187 37.7606 6.96274L38.1955 6.6951H43.5819C48.7564 6.6951 48.9794 6.70621 49.4032 6.91812ZM22.6385 6.91812C23.1403 7.17459 23.5307 7.81027 23.5307 8.36789C23.5307 9.21542 22.7054 10.0407 21.8467 10.0407C21.3337 10.0407 20.6423 9.60574 20.397 9.12619C19.9843 8.32327 20.2408 7.44223 21.0326 6.96274C21.5679 6.63931 22.0586 6.62815 22.6385 6.91812ZM15.9473 6.91812C16.4492 7.17459 16.8395 7.81027 16.8395 8.36789C16.8395 9.21542 16.0142 10.0407 15.1555 10.0407C14.6425 10.0407 13.9511 9.60574 13.7058 9.12619C13.2932 8.32327 13.5496 7.44223 14.3414 6.96274C14.8767 6.63931 15.3674 6.62815 15.9473 6.91812ZM9.25614 6.91812C9.75798 7.17459 10.1483 7.81027 10.1483 8.36789C10.1483 9.21542 9.32305 10.0407 8.46435 10.0407C7.95136 10.0407 7.25994 9.60574 7.01459 9.12619C6.60197 8.32327 6.85846 7.44223 7.65025 6.96274C8.18554 6.63931 8.67623 6.62815 9.25613 6.91812H9.25614ZM3.84744 0.16C2.91067 0.39419 2.2081 0.79568 1.49438 1.50937C0.769495 2.23428 0.323415 3.02609 0.122685 3.99631C0.0446253 4.37546 1.52588e-05 6.1821 1.52588e-05 8.98123V13.3863H28.549H57.0981V8.98123C57.0981 6.12631 57.0535 4.37546 56.9754 3.99631C56.5628 2.07816 55.0127 0.52805 53.1057 0.12656C52.2024 -0.06302 4.60579 -0.02957 3.84745 0.16001L3.84744 0.16Z" fill="#110F74"/>
<path fill-rule="evenodd" clip-rule="evenodd" d="M39.3218 26.9693C39.5114 27.0697 41.608 28.709 43.9722 30.6049C48.4107 34.1512 48.6226 34.3631 48.6226 35.1326C48.6226 35.9021 48.4107 36.1139 43.9722 39.6603C41.608 41.5561 39.5114 43.1955 39.3218 43.2958C38.2959 43.8646 36.913 43.017 36.913 41.8349C36.913 41.0766 37.1695 40.8089 40.727 37.9763C42.6117 36.4597 44.1618 35.1772 44.1618 35.1326C44.1618 35.088 42.6117 33.8055 40.727 32.2888C38.2401 30.3038 37.2253 29.4339 37.1026 29.1551C36.4223 27.7388 37.9725 26.2221 39.3219 26.9693H39.3218ZM19.2929 26.9917C19.7836 27.2481 20.1851 27.8838 20.1851 28.4303C20.1851 29.1886 19.9286 29.4562 16.3711 32.2888C14.4864 33.8055 12.9363 35.088 12.9363 35.1326C12.9363 35.1772 14.4864 36.4597 16.3711 37.9763C19.9286 40.8089 20.1851 41.0766 20.1851 41.8349C20.1851 43.017 18.8022 43.8646 17.7762 43.2958C17.5867 43.1955 15.4901 41.5561 13.1259 39.6603C8.6874 36.1139 8.47551 35.9021 8.47551 35.1326C8.47551 34.3631 8.6874 34.1512 13.1259 30.6049C15.4901 28.709 17.5867 27.0697 17.7762 26.9693C18.2446 26.7129 18.7576 26.724 19.2929 26.9917H19.2929ZM34.3481 21.9733C34.8499 22.2298 35.2402 22.8654 35.2402 23.423C35.2402 23.7241 25.828 45.9277 25.025 47.5335C24.7239 48.1246 24.1329 48.5149 23.5195 48.5149C22.7054 48.5149 21.8579 47.6674 21.8579 46.8421C21.8579 46.6302 23.8206 41.913 26.8316 34.8761C29.5639 28.486 31.9169 23.0327 32.0508 22.7539C32.4968 21.8506 33.4671 21.5272 34.3481 21.9733H34.3481ZM1e-05 34.5192C1e-05 47.344 0.03347 52.4627 0.12268 52.8865C0.5353 54.8046 2.07427 56.3436 3.99241 56.7562C4.82881 56.9347 52.2581 56.9347 53.1057 56.7562C55.0015 56.3548 56.5739 54.7712 56.9754 52.8865C57.0646 52.4627 57.0981 47.1098 57.0981 34.5192V16.7318H28.549H0L1e-05 34.5192Z" fill="#110F74"/>
</svg>
